<mxfile host="app.diagrams.net" modified="2023-11-21T12:45:37.945Z" agent="Mozilla/5.0 (Windows NT 10.0; Win64; x64) AppleWebKit/537.36 (KHTML, like Gecko) Chrome/119.0.0.0 Safari/537.36" etag="8bEhArXMZjq-B3Kua9Zx" version="22.1.3" type="device">
  <diagram id="C5RBs43oDa-KdzZeNtuy" name="Page-1">
    <mxGraphModel dx="1050" dy="566" grid="1" gridSize="10" guides="1" tooltips="1" connect="1" arrows="1" fold="1" page="1" pageScale="1" pageWidth="827" pageHeight="1169" math="0" shadow="0">
      <root>
        <mxCell id="WIyWlLk6GJQsqaUBKTNV-0" />
        <mxCell id="WIyWlLk6GJQsqaUBKTNV-1" parent="WIyWlLk6GJQsqaUBKTNV-0" />
        <mxCell id="bH_OISczCfJRNenOQu4P-0" value="DFS&lt;br&gt;(Depth-First-Search)" style="rounded=0;whiteSpace=wrap;html=1;" vertex="1" parent="WIyWlLk6GJQsqaUBKTNV-1">
          <mxGeometry x="40" y="40" width="120" height="60" as="geometry" />
        </mxCell>
        <mxCell id="bH_OISczCfJRNenOQu4P-1" value="깊이 우선 탐색" style="text;html=1;strokeColor=none;fillColor=none;align=center;verticalAlign=middle;whiteSpace=wrap;rounded=0;" vertex="1" parent="WIyWlLk6GJQsqaUBKTNV-1">
          <mxGeometry x="170" y="40" width="180" height="60" as="geometry" />
        </mxCell>
        <mxCell id="bH_OISczCfJRNenOQu4P-13" style="edgeStyle=orthogonalEdgeStyle;rounded=0;orthogonalLoop=1;jettySize=auto;html=1;" edge="1" parent="WIyWlLk6GJQsqaUBKTNV-1" source="bH_OISczCfJRNenOQu4P-2" target="bH_OISczCfJRNenOQu4P-3">
          <mxGeometry relative="1" as="geometry">
            <Array as="points">
              <mxPoint x="180" y="190" />
              <mxPoint x="40" y="190" />
            </Array>
          </mxGeometry>
        </mxCell>
        <mxCell id="bH_OISczCfJRNenOQu4P-14" style="edgeStyle=orthogonalEdgeStyle;rounded=0;orthogonalLoop=1;jettySize=auto;html=1;" edge="1" parent="WIyWlLk6GJQsqaUBKTNV-1" source="bH_OISczCfJRNenOQu4P-2" target="bH_OISczCfJRNenOQu4P-4">
          <mxGeometry relative="1" as="geometry" />
        </mxCell>
        <mxCell id="bH_OISczCfJRNenOQu4P-15" style="edgeStyle=orthogonalEdgeStyle;rounded=0;orthogonalLoop=1;jettySize=auto;html=1;" edge="1" parent="WIyWlLk6GJQsqaUBKTNV-1" source="bH_OISczCfJRNenOQu4P-2" target="bH_OISczCfJRNenOQu4P-5">
          <mxGeometry relative="1" as="geometry" />
        </mxCell>
        <mxCell id="bH_OISczCfJRNenOQu4P-16" style="edgeStyle=orthogonalEdgeStyle;rounded=0;orthogonalLoop=1;jettySize=auto;html=1;" edge="1" parent="WIyWlLk6GJQsqaUBKTNV-1" source="bH_OISczCfJRNenOQu4P-2" target="bH_OISczCfJRNenOQu4P-6">
          <mxGeometry relative="1" as="geometry">
            <Array as="points">
              <mxPoint x="180" y="190" />
              <mxPoint x="340" y="190" />
            </Array>
          </mxGeometry>
        </mxCell>
        <mxCell id="bH_OISczCfJRNenOQu4P-2" value="1" style="ellipse;whiteSpace=wrap;html=1;aspect=fixed;" vertex="1" parent="WIyWlLk6GJQsqaUBKTNV-1">
          <mxGeometry x="150" y="110" width="60" height="60" as="geometry" />
        </mxCell>
        <mxCell id="bH_OISczCfJRNenOQu4P-3" value="2" style="ellipse;whiteSpace=wrap;html=1;aspect=fixed;" vertex="1" parent="WIyWlLk6GJQsqaUBKTNV-1">
          <mxGeometry x="10" y="210" width="60" height="60" as="geometry" />
        </mxCell>
        <mxCell id="bH_OISczCfJRNenOQu4P-17" style="edgeStyle=orthogonalEdgeStyle;rounded=0;orthogonalLoop=1;jettySize=auto;html=1;" edge="1" parent="WIyWlLk6GJQsqaUBKTNV-1" source="bH_OISczCfJRNenOQu4P-4" target="bH_OISczCfJRNenOQu4P-7">
          <mxGeometry relative="1" as="geometry" />
        </mxCell>
        <mxCell id="bH_OISczCfJRNenOQu4P-4" value="3" style="ellipse;whiteSpace=wrap;html=1;aspect=fixed;" vertex="1" parent="WIyWlLk6GJQsqaUBKTNV-1">
          <mxGeometry x="110" y="220" width="60" height="60" as="geometry" />
        </mxCell>
        <mxCell id="bH_OISczCfJRNenOQu4P-18" style="edgeStyle=orthogonalEdgeStyle;rounded=0;orthogonalLoop=1;jettySize=auto;html=1;entryX=0.5;entryY=0;entryDx=0;entryDy=0;" edge="1" parent="WIyWlLk6GJQsqaUBKTNV-1" source="bH_OISczCfJRNenOQu4P-5" target="bH_OISczCfJRNenOQu4P-8">
          <mxGeometry relative="1" as="geometry" />
        </mxCell>
        <mxCell id="bH_OISczCfJRNenOQu4P-5" value="5" style="ellipse;whiteSpace=wrap;html=1;aspect=fixed;" vertex="1" parent="WIyWlLk6GJQsqaUBKTNV-1">
          <mxGeometry x="210" y="230" width="60" height="60" as="geometry" />
        </mxCell>
        <mxCell id="bH_OISczCfJRNenOQu4P-22" style="edgeStyle=orthogonalEdgeStyle;rounded=0;orthogonalLoop=1;jettySize=auto;html=1;" edge="1" parent="WIyWlLk6GJQsqaUBKTNV-1" source="bH_OISczCfJRNenOQu4P-6" target="bH_OISczCfJRNenOQu4P-12">
          <mxGeometry relative="1" as="geometry" />
        </mxCell>
        <mxCell id="bH_OISczCfJRNenOQu4P-6" value="" style="ellipse;whiteSpace=wrap;html=1;aspect=fixed;" vertex="1" parent="WIyWlLk6GJQsqaUBKTNV-1">
          <mxGeometry x="310" y="220" width="60" height="60" as="geometry" />
        </mxCell>
        <mxCell id="bH_OISczCfJRNenOQu4P-7" value="4" style="ellipse;whiteSpace=wrap;html=1;aspect=fixed;" vertex="1" parent="WIyWlLk6GJQsqaUBKTNV-1">
          <mxGeometry x="70" y="320" width="60" height="60" as="geometry" />
        </mxCell>
        <mxCell id="bH_OISczCfJRNenOQu4P-19" style="edgeStyle=orthogonalEdgeStyle;rounded=0;orthogonalLoop=1;jettySize=auto;html=1;" edge="1" parent="WIyWlLk6GJQsqaUBKTNV-1" source="bH_OISczCfJRNenOQu4P-8" target="bH_OISczCfJRNenOQu4P-10">
          <mxGeometry relative="1" as="geometry" />
        </mxCell>
        <mxCell id="bH_OISczCfJRNenOQu4P-20" style="edgeStyle=orthogonalEdgeStyle;rounded=0;orthogonalLoop=1;jettySize=auto;html=1;" edge="1" parent="WIyWlLk6GJQsqaUBKTNV-1" source="bH_OISczCfJRNenOQu4P-8" target="bH_OISczCfJRNenOQu4P-9">
          <mxGeometry relative="1" as="geometry" />
        </mxCell>
        <mxCell id="bH_OISczCfJRNenOQu4P-8" value="6" style="ellipse;whiteSpace=wrap;html=1;aspect=fixed;" vertex="1" parent="WIyWlLk6GJQsqaUBKTNV-1">
          <mxGeometry x="210" y="330" width="60" height="60" as="geometry" />
        </mxCell>
        <mxCell id="bH_OISczCfJRNenOQu4P-21" style="edgeStyle=orthogonalEdgeStyle;rounded=0;orthogonalLoop=1;jettySize=auto;html=1;entryX=0.5;entryY=0;entryDx=0;entryDy=0;" edge="1" parent="WIyWlLk6GJQsqaUBKTNV-1" source="bH_OISczCfJRNenOQu4P-9" target="bH_OISczCfJRNenOQu4P-11">
          <mxGeometry relative="1" as="geometry" />
        </mxCell>
        <mxCell id="bH_OISczCfJRNenOQu4P-9" value="8" style="ellipse;whiteSpace=wrap;html=1;aspect=fixed;fillColor=#ffe6cc;strokeColor=#d79b00;" vertex="1" parent="WIyWlLk6GJQsqaUBKTNV-1">
          <mxGeometry x="270" y="430" width="60" height="60" as="geometry" />
        </mxCell>
        <mxCell id="bH_OISczCfJRNenOQu4P-10" value="7" style="ellipse;whiteSpace=wrap;html=1;aspect=fixed;" vertex="1" parent="WIyWlLk6GJQsqaUBKTNV-1">
          <mxGeometry x="150" y="430" width="60" height="60" as="geometry" />
        </mxCell>
        <mxCell id="bH_OISczCfJRNenOQu4P-11" value="" style="ellipse;whiteSpace=wrap;html=1;aspect=fixed;" vertex="1" parent="WIyWlLk6GJQsqaUBKTNV-1">
          <mxGeometry x="270" y="510" width="60" height="60" as="geometry" />
        </mxCell>
        <mxCell id="bH_OISczCfJRNenOQu4P-12" value="" style="ellipse;whiteSpace=wrap;html=1;aspect=fixed;" vertex="1" parent="WIyWlLk6GJQsqaUBKTNV-1">
          <mxGeometry x="354" y="320" width="60" height="60" as="geometry" />
        </mxCell>
        <mxCell id="bH_OISczCfJRNenOQu4P-23" value="" style="whiteSpace=wrap;html=1;aspect=fixed;fillColor=#647687;fontColor=#ffffff;strokeColor=#314354;" vertex="1" parent="WIyWlLk6GJQsqaUBKTNV-1">
          <mxGeometry x="530" y="140" width="40" height="40" as="geometry" />
        </mxCell>
        <mxCell id="bH_OISczCfJRNenOQu4P-24" value="" style="whiteSpace=wrap;html=1;aspect=fixed;fillColor=#ffcccc;strokeColor=#36393d;" vertex="1" parent="WIyWlLk6GJQsqaUBKTNV-1">
          <mxGeometry x="570" y="140" width="40" height="40" as="geometry" />
        </mxCell>
        <mxCell id="bH_OISczCfJRNenOQu4P-25" value="" style="whiteSpace=wrap;html=1;aspect=fixed;fillColor=#647687;fontColor=#ffffff;strokeColor=#314354;" vertex="1" parent="WIyWlLk6GJQsqaUBKTNV-1">
          <mxGeometry x="610" y="140" width="40" height="40" as="geometry" />
        </mxCell>
        <mxCell id="bH_OISczCfJRNenOQu4P-26" value="" style="whiteSpace=wrap;html=1;aspect=fixed;fillColor=#647687;fontColor=#ffffff;strokeColor=#314354;" vertex="1" parent="WIyWlLk6GJQsqaUBKTNV-1">
          <mxGeometry x="650" y="140" width="40" height="40" as="geometry" />
        </mxCell>
        <mxCell id="bH_OISczCfJRNenOQu4P-27" value="" style="whiteSpace=wrap;html=1;aspect=fixed;fillColor=#647687;fontColor=#ffffff;strokeColor=#314354;" vertex="1" parent="WIyWlLk6GJQsqaUBKTNV-1">
          <mxGeometry x="690" y="140" width="40" height="40" as="geometry" />
        </mxCell>
        <mxCell id="bH_OISczCfJRNenOQu4P-28" value="" style="whiteSpace=wrap;html=1;aspect=fixed;fillColor=#647687;fontColor=#ffffff;strokeColor=#314354;" vertex="1" parent="WIyWlLk6GJQsqaUBKTNV-1">
          <mxGeometry x="530" y="180" width="40" height="40" as="geometry" />
        </mxCell>
        <mxCell id="bH_OISczCfJRNenOQu4P-29" value="" style="whiteSpace=wrap;html=1;aspect=fixed;fillColor=#e3c800;fontColor=#000000;strokeColor=#B09500;" vertex="1" parent="WIyWlLk6GJQsqaUBKTNV-1">
          <mxGeometry x="570" y="180" width="40" height="40" as="geometry" />
        </mxCell>
        <mxCell id="bH_OISczCfJRNenOQu4P-30" value="" style="whiteSpace=wrap;html=1;aspect=fixed;fillColor=#e3c800;fontColor=#000000;strokeColor=#B09500;" vertex="1" parent="WIyWlLk6GJQsqaUBKTNV-1">
          <mxGeometry x="610" y="180" width="40" height="40" as="geometry" />
        </mxCell>
        <mxCell id="bH_OISczCfJRNenOQu4P-31" value="" style="whiteSpace=wrap;html=1;aspect=fixed;fillColor=#e3c800;fontColor=#000000;strokeColor=#B09500;" vertex="1" parent="WIyWlLk6GJQsqaUBKTNV-1">
          <mxGeometry x="650" y="180" width="40" height="40" as="geometry" />
        </mxCell>
        <mxCell id="bH_OISczCfJRNenOQu4P-32" value="" style="whiteSpace=wrap;html=1;aspect=fixed;fillColor=#e3c800;fontColor=#000000;strokeColor=#B09500;" vertex="1" parent="WIyWlLk6GJQsqaUBKTNV-1">
          <mxGeometry x="690" y="180" width="40" height="40" as="geometry" />
        </mxCell>
        <mxCell id="bH_OISczCfJRNenOQu4P-33" value="" style="whiteSpace=wrap;html=1;aspect=fixed;fillColor=#647687;fontColor=#ffffff;strokeColor=#314354;" vertex="1" parent="WIyWlLk6GJQsqaUBKTNV-1">
          <mxGeometry x="530" y="220" width="40" height="40" as="geometry" />
        </mxCell>
        <mxCell id="bH_OISczCfJRNenOQu4P-34" value="" style="whiteSpace=wrap;html=1;aspect=fixed;fillColor=#e3c800;fontColor=#000000;strokeColor=#B09500;" vertex="1" parent="WIyWlLk6GJQsqaUBKTNV-1">
          <mxGeometry x="570" y="220" width="40" height="40" as="geometry" />
        </mxCell>
        <mxCell id="bH_OISczCfJRNenOQu4P-35" value="" style="whiteSpace=wrap;html=1;aspect=fixed;fillColor=#647687;fontColor=#ffffff;strokeColor=#314354;" vertex="1" parent="WIyWlLk6GJQsqaUBKTNV-1">
          <mxGeometry x="610" y="220" width="40" height="40" as="geometry" />
        </mxCell>
        <mxCell id="bH_OISczCfJRNenOQu4P-36" value="" style="whiteSpace=wrap;html=1;aspect=fixed;fillColor=#e3c800;fontColor=#000000;strokeColor=#B09500;" vertex="1" parent="WIyWlLk6GJQsqaUBKTNV-1">
          <mxGeometry x="650" y="220" width="40" height="40" as="geometry" />
        </mxCell>
        <mxCell id="bH_OISczCfJRNenOQu4P-37" value="" style="whiteSpace=wrap;html=1;aspect=fixed;fillColor=#647687;fontColor=#ffffff;strokeColor=#314354;" vertex="1" parent="WIyWlLk6GJQsqaUBKTNV-1">
          <mxGeometry x="690" y="220" width="40" height="40" as="geometry" />
        </mxCell>
        <mxCell id="bH_OISczCfJRNenOQu4P-38" value="" style="whiteSpace=wrap;html=1;aspect=fixed;fillColor=#647687;fontColor=#ffffff;strokeColor=#314354;" vertex="1" parent="WIyWlLk6GJQsqaUBKTNV-1">
          <mxGeometry x="530" y="260" width="40" height="40" as="geometry" />
        </mxCell>
        <mxCell id="bH_OISczCfJRNenOQu4P-39" value="" style="whiteSpace=wrap;html=1;aspect=fixed;fillColor=#e3c800;fontColor=#000000;strokeColor=#B09500;" vertex="1" parent="WIyWlLk6GJQsqaUBKTNV-1">
          <mxGeometry x="570" y="260" width="40" height="40" as="geometry" />
        </mxCell>
        <mxCell id="bH_OISczCfJRNenOQu4P-40" value="" style="whiteSpace=wrap;html=1;aspect=fixed;fillColor=#e3c800;fontColor=#000000;strokeColor=#B09500;" vertex="1" parent="WIyWlLk6GJQsqaUBKTNV-1">
          <mxGeometry x="610" y="260" width="40" height="40" as="geometry" />
        </mxCell>
        <mxCell id="bH_OISczCfJRNenOQu4P-41" value="" style="whiteSpace=wrap;html=1;aspect=fixed;fillColor=#e3c800;fontColor=#000000;strokeColor=#B09500;" vertex="1" parent="WIyWlLk6GJQsqaUBKTNV-1">
          <mxGeometry x="650" y="260" width="40" height="40" as="geometry" />
        </mxCell>
        <mxCell id="bH_OISczCfJRNenOQu4P-42" value="" style="whiteSpace=wrap;html=1;aspect=fixed;fillColor=#647687;fontColor=#ffffff;strokeColor=#314354;" vertex="1" parent="WIyWlLk6GJQsqaUBKTNV-1">
          <mxGeometry x="690" y="260" width="40" height="40" as="geometry" />
        </mxCell>
        <mxCell id="bH_OISczCfJRNenOQu4P-48" value="int[,] map = new int[4, 5]" style="text;html=1;strokeColor=none;fillColor=none;align=center;verticalAlign=middle;whiteSpace=wrap;rounded=0;" vertex="1" parent="WIyWlLk6GJQsqaUBKTNV-1">
          <mxGeometry x="520" width="150" height="40" as="geometry" />
        </mxCell>
        <mxCell id="bH_OISczCfJRNenOQu4P-49" value="" style="ellipse;whiteSpace=wrap;html=1;aspect=fixed;fillColor=#e6d0de;gradientColor=#d5739d;strokeColor=#996185;" vertex="1" parent="WIyWlLk6GJQsqaUBKTNV-1">
          <mxGeometry x="580" y="150" width="20" height="20" as="geometry" />
        </mxCell>
        <mxCell id="bH_OISczCfJRNenOQu4P-50" value="" style="ellipse;whiteSpace=wrap;html=1;aspect=fixed;fillColor=#dae8fc;gradientColor=#7ea6e0;strokeColor=#6c8ebf;" vertex="1" parent="WIyWlLk6GJQsqaUBKTNV-1">
          <mxGeometry x="700" y="190" width="20" height="20" as="geometry" />
        </mxCell>
        <mxCell id="bH_OISczCfJRNenOQu4P-51" value="" style="endArrow=classic;html=1;rounded=0;" edge="1" parent="WIyWlLk6GJQsqaUBKTNV-1">
          <mxGeometry width="50" height="50" relative="1" as="geometry">
            <mxPoint x="520" y="310" as="sourcePoint" />
            <mxPoint x="600" y="310" as="targetPoint" />
          </mxGeometry>
        </mxCell>
        <mxCell id="bH_OISczCfJRNenOQu4P-53" value="" style="endArrow=classic;html=1;rounded=0;" edge="1" parent="WIyWlLk6GJQsqaUBKTNV-1">
          <mxGeometry width="50" height="50" relative="1" as="geometry">
            <mxPoint x="520" y="310" as="sourcePoint" />
            <mxPoint x="520" y="230" as="targetPoint" />
          </mxGeometry>
        </mxCell>
        <mxCell id="bH_OISczCfJRNenOQu4P-54" value="0,0" style="text;html=1;strokeColor=none;fillColor=none;align=center;verticalAlign=middle;whiteSpace=wrap;rounded=0;" vertex="1" parent="WIyWlLk6GJQsqaUBKTNV-1">
          <mxGeometry x="530" y="260" width="40" height="40" as="geometry" />
        </mxCell>
        <mxCell id="bH_OISczCfJRNenOQu4P-55" value="4,3" style="text;html=1;strokeColor=none;fillColor=none;align=center;verticalAlign=middle;whiteSpace=wrap;rounded=0;" vertex="1" parent="WIyWlLk6GJQsqaUBKTNV-1">
          <mxGeometry x="690" y="140" width="40" height="40" as="geometry" />
        </mxCell>
        <mxCell id="bH_OISczCfJRNenOQu4P-56" value="탐색 우선순위&lt;br&gt;하, 좌, 상, 우" style="text;html=1;strokeColor=none;fillColor=none;align=center;verticalAlign=middle;whiteSpace=wrap;rounded=0;" vertex="1" parent="WIyWlLk6GJQsqaUBKTNV-1">
          <mxGeometry x="520" y="40" width="150" height="40" as="geometry" />
        </mxCell>
        <mxCell id="bH_OISczCfJRNenOQu4P-57" value="" style="whiteSpace=wrap;html=1;aspect=fixed;fillColor=#647687;fontColor=#ffffff;strokeColor=#314354;" vertex="1" parent="WIyWlLk6GJQsqaUBKTNV-1">
          <mxGeometry x="790" y="140" width="40" height="40" as="geometry" />
        </mxCell>
        <mxCell id="bH_OISczCfJRNenOQu4P-58" value="" style="whiteSpace=wrap;html=1;aspect=fixed;fillColor=#ffcccc;strokeColor=#36393d;" vertex="1" parent="WIyWlLk6GJQsqaUBKTNV-1">
          <mxGeometry x="830" y="140" width="40" height="40" as="geometry" />
        </mxCell>
        <mxCell id="bH_OISczCfJRNenOQu4P-59" value="" style="whiteSpace=wrap;html=1;aspect=fixed;fillColor=#647687;fontColor=#ffffff;strokeColor=#314354;" vertex="1" parent="WIyWlLk6GJQsqaUBKTNV-1">
          <mxGeometry x="870" y="140" width="40" height="40" as="geometry" />
        </mxCell>
        <mxCell id="bH_OISczCfJRNenOQu4P-60" value="" style="whiteSpace=wrap;html=1;aspect=fixed;fillColor=#647687;fontColor=#ffffff;strokeColor=#314354;" vertex="1" parent="WIyWlLk6GJQsqaUBKTNV-1">
          <mxGeometry x="910" y="140" width="40" height="40" as="geometry" />
        </mxCell>
        <mxCell id="bH_OISczCfJRNenOQu4P-61" value="" style="whiteSpace=wrap;html=1;aspect=fixed;fillColor=#647687;fontColor=#ffffff;strokeColor=#314354;" vertex="1" parent="WIyWlLk6GJQsqaUBKTNV-1">
          <mxGeometry x="950" y="140" width="40" height="40" as="geometry" />
        </mxCell>
        <mxCell id="bH_OISczCfJRNenOQu4P-62" value="" style="whiteSpace=wrap;html=1;aspect=fixed;fillColor=#647687;fontColor=#ffffff;strokeColor=#314354;" vertex="1" parent="WIyWlLk6GJQsqaUBKTNV-1">
          <mxGeometry x="790" y="180" width="40" height="40" as="geometry" />
        </mxCell>
        <mxCell id="bH_OISczCfJRNenOQu4P-63" value="" style="whiteSpace=wrap;html=1;aspect=fixed;fillColor=#ffcccc;strokeColor=#36393d;" vertex="1" parent="WIyWlLk6GJQsqaUBKTNV-1">
          <mxGeometry x="830" y="180" width="40" height="40" as="geometry" />
        </mxCell>
        <mxCell id="bH_OISczCfJRNenOQu4P-64" value="" style="whiteSpace=wrap;html=1;aspect=fixed;fillColor=#e3c800;fontColor=#000000;strokeColor=#B09500;" vertex="1" parent="WIyWlLk6GJQsqaUBKTNV-1">
          <mxGeometry x="870" y="180" width="40" height="40" as="geometry" />
        </mxCell>
        <mxCell id="bH_OISczCfJRNenOQu4P-65" value="" style="whiteSpace=wrap;html=1;aspect=fixed;fillColor=#e3c800;fontColor=#000000;strokeColor=#B09500;" vertex="1" parent="WIyWlLk6GJQsqaUBKTNV-1">
          <mxGeometry x="910" y="180" width="40" height="40" as="geometry" />
        </mxCell>
        <mxCell id="bH_OISczCfJRNenOQu4P-66" value="" style="whiteSpace=wrap;html=1;aspect=fixed;fillColor=#e3c800;fontColor=#000000;strokeColor=#B09500;" vertex="1" parent="WIyWlLk6GJQsqaUBKTNV-1">
          <mxGeometry x="950" y="180" width="40" height="40" as="geometry" />
        </mxCell>
        <mxCell id="bH_OISczCfJRNenOQu4P-67" value="" style="whiteSpace=wrap;html=1;aspect=fixed;fillColor=#647687;fontColor=#ffffff;strokeColor=#314354;" vertex="1" parent="WIyWlLk6GJQsqaUBKTNV-1">
          <mxGeometry x="790" y="220" width="40" height="40" as="geometry" />
        </mxCell>
        <mxCell id="bH_OISczCfJRNenOQu4P-68" value="" style="whiteSpace=wrap;html=1;aspect=fixed;fillColor=#e3c800;fontColor=#000000;strokeColor=#B09500;" vertex="1" parent="WIyWlLk6GJQsqaUBKTNV-1">
          <mxGeometry x="830" y="220" width="40" height="40" as="geometry" />
        </mxCell>
        <mxCell id="bH_OISczCfJRNenOQu4P-69" value="" style="whiteSpace=wrap;html=1;aspect=fixed;fillColor=#647687;fontColor=#ffffff;strokeColor=#314354;" vertex="1" parent="WIyWlLk6GJQsqaUBKTNV-1">
          <mxGeometry x="870" y="220" width="40" height="40" as="geometry" />
        </mxCell>
        <mxCell id="bH_OISczCfJRNenOQu4P-70" value="" style="whiteSpace=wrap;html=1;aspect=fixed;fillColor=#e3c800;fontColor=#000000;strokeColor=#B09500;" vertex="1" parent="WIyWlLk6GJQsqaUBKTNV-1">
          <mxGeometry x="910" y="220" width="40" height="40" as="geometry" />
        </mxCell>
        <mxCell id="bH_OISczCfJRNenOQu4P-71" value="" style="whiteSpace=wrap;html=1;aspect=fixed;fillColor=#647687;fontColor=#ffffff;strokeColor=#314354;" vertex="1" parent="WIyWlLk6GJQsqaUBKTNV-1">
          <mxGeometry x="950" y="220" width="40" height="40" as="geometry" />
        </mxCell>
        <mxCell id="bH_OISczCfJRNenOQu4P-72" value="" style="whiteSpace=wrap;html=1;aspect=fixed;fillColor=#647687;fontColor=#ffffff;strokeColor=#314354;" vertex="1" parent="WIyWlLk6GJQsqaUBKTNV-1">
          <mxGeometry x="790" y="260" width="40" height="40" as="geometry" />
        </mxCell>
        <mxCell id="bH_OISczCfJRNenOQu4P-73" value="" style="whiteSpace=wrap;html=1;aspect=fixed;fillColor=#e3c800;fontColor=#000000;strokeColor=#B09500;" vertex="1" parent="WIyWlLk6GJQsqaUBKTNV-1">
          <mxGeometry x="830" y="260" width="40" height="40" as="geometry" />
        </mxCell>
        <mxCell id="bH_OISczCfJRNenOQu4P-74" value="" style="whiteSpace=wrap;html=1;aspect=fixed;fillColor=#e3c800;fontColor=#000000;strokeColor=#B09500;" vertex="1" parent="WIyWlLk6GJQsqaUBKTNV-1">
          <mxGeometry x="870" y="260" width="40" height="40" as="geometry" />
        </mxCell>
        <mxCell id="bH_OISczCfJRNenOQu4P-75" value="" style="whiteSpace=wrap;html=1;aspect=fixed;fillColor=#e3c800;fontColor=#000000;strokeColor=#B09500;" vertex="1" parent="WIyWlLk6GJQsqaUBKTNV-1">
          <mxGeometry x="910" y="260" width="40" height="40" as="geometry" />
        </mxCell>
        <mxCell id="bH_OISczCfJRNenOQu4P-76" value="" style="whiteSpace=wrap;html=1;aspect=fixed;fillColor=#647687;fontColor=#ffffff;strokeColor=#314354;" vertex="1" parent="WIyWlLk6GJQsqaUBKTNV-1">
          <mxGeometry x="950" y="260" width="40" height="40" as="geometry" />
        </mxCell>
        <mxCell id="bH_OISczCfJRNenOQu4P-77" value="" style="ellipse;whiteSpace=wrap;html=1;aspect=fixed;fillColor=#e6d0de;gradientColor=#d5739d;strokeColor=#996185;" vertex="1" parent="WIyWlLk6GJQsqaUBKTNV-1">
          <mxGeometry x="840" y="150" width="20" height="20" as="geometry" />
        </mxCell>
        <mxCell id="bH_OISczCfJRNenOQu4P-78" value="" style="ellipse;whiteSpace=wrap;html=1;aspect=fixed;fillColor=#dae8fc;gradientColor=#7ea6e0;strokeColor=#6c8ebf;" vertex="1" parent="WIyWlLk6GJQsqaUBKTNV-1">
          <mxGeometry x="960" y="190" width="20" height="20" as="geometry" />
        </mxCell>
        <mxCell id="bH_OISczCfJRNenOQu4P-79" value="0,0" style="text;html=1;strokeColor=none;fillColor=none;align=center;verticalAlign=middle;whiteSpace=wrap;rounded=0;" vertex="1" parent="WIyWlLk6GJQsqaUBKTNV-1">
          <mxGeometry x="790" y="260" width="40" height="40" as="geometry" />
        </mxCell>
        <mxCell id="bH_OISczCfJRNenOQu4P-80" value="4,3" style="text;html=1;strokeColor=none;fillColor=none;align=center;verticalAlign=middle;whiteSpace=wrap;rounded=0;" vertex="1" parent="WIyWlLk6GJQsqaUBKTNV-1">
          <mxGeometry x="950" y="140" width="40" height="40" as="geometry" />
        </mxCell>
        <mxCell id="bH_OISczCfJRNenOQu4P-81" value="Stack!" style="text;html=1;strokeColor=#82b366;fillColor=#d5e8d4;align=center;verticalAlign=middle;whiteSpace=wrap;rounded=0;rotation=-25;gradientColor=#97d077;" vertex="1" parent="WIyWlLk6GJQsqaUBKTNV-1">
          <mxGeometry x="570" y="190" width="40" height="20" as="geometry" />
        </mxCell>
        <mxCell id="bH_OISczCfJRNenOQu4P-82" value="Stack" style="text;html=1;strokeColor=#82b366;fillColor=#d5e8d4;align=center;verticalAlign=middle;whiteSpace=wrap;rounded=0;rotation=0;gradientColor=#97d077;" vertex="1" parent="WIyWlLk6GJQsqaUBKTNV-1">
          <mxGeometry x="470" y="380" width="40" height="20" as="geometry" />
        </mxCell>
        <mxCell id="bH_OISczCfJRNenOQu4P-83" value="1, 3" style="rounded=0;whiteSpace=wrap;html=1;" vertex="1" parent="WIyWlLk6GJQsqaUBKTNV-1">
          <mxGeometry x="470" y="360" width="40" height="20" as="geometry" />
        </mxCell>
        <mxCell id="bH_OISczCfJRNenOQu4P-84" value="Stack" style="text;html=1;strokeColor=#82b366;fillColor=#d5e8d4;align=center;verticalAlign=middle;whiteSpace=wrap;rounded=0;rotation=0;gradientColor=#97d077;" vertex="1" parent="WIyWlLk6GJQsqaUBKTNV-1">
          <mxGeometry x="610" y="380" width="40" height="20" as="geometry" />
        </mxCell>
        <mxCell id="bH_OISczCfJRNenOQu4P-85" value="1, 2" style="rounded=0;whiteSpace=wrap;html=1;" vertex="1" parent="WIyWlLk6GJQsqaUBKTNV-1">
          <mxGeometry x="610" y="360" width="40" height="20" as="geometry" />
        </mxCell>
        <mxCell id="bH_OISczCfJRNenOQu4P-86" value="Stack" style="text;html=1;strokeColor=#82b366;fillColor=#d5e8d4;align=center;verticalAlign=middle;whiteSpace=wrap;rounded=0;rotation=0;gradientColor=#97d077;" vertex="1" parent="WIyWlLk6GJQsqaUBKTNV-1">
          <mxGeometry x="870" y="380" width="40" height="20" as="geometry" />
        </mxCell>
        <mxCell id="bH_OISczCfJRNenOQu4P-87" value="Stack!" style="text;html=1;strokeColor=#82b366;fillColor=#d5e8d4;align=center;verticalAlign=middle;whiteSpace=wrap;rounded=0;rotation=-25;gradientColor=#97d077;" vertex="1" parent="WIyWlLk6GJQsqaUBKTNV-1">
          <mxGeometry x="870" y="190" width="40" height="20" as="geometry" />
        </mxCell>
        <mxCell id="bH_OISczCfJRNenOQu4P-88" value="2, 2" style="rounded=0;whiteSpace=wrap;html=1;" vertex="1" parent="WIyWlLk6GJQsqaUBKTNV-1">
          <mxGeometry x="870" y="360" width="40" height="20" as="geometry" />
        </mxCell>
        <mxCell id="bH_OISczCfJRNenOQu4P-89" value="Stack!" style="text;html=1;strokeColor=#82b366;fillColor=#d5e8d4;align=center;verticalAlign=middle;whiteSpace=wrap;rounded=0;rotation=-25;gradientColor=#97d077;" vertex="1" parent="WIyWlLk6GJQsqaUBKTNV-1">
          <mxGeometry x="830" y="230" width="40" height="20" as="geometry" />
        </mxCell>
        <mxCell id="bH_OISczCfJRNenOQu4P-90" value="1, 1" style="rounded=0;whiteSpace=wrap;html=1;" vertex="1" parent="WIyWlLk6GJQsqaUBKTNV-1">
          <mxGeometry x="870" y="340" width="40" height="20" as="geometry" />
        </mxCell>
        <mxCell id="bH_OISczCfJRNenOQu4P-91" value="" style="whiteSpace=wrap;html=1;aspect=fixed;fillColor=#647687;fontColor=#ffffff;strokeColor=#314354;" vertex="1" parent="WIyWlLk6GJQsqaUBKTNV-1">
          <mxGeometry x="1041" y="140" width="40" height="40" as="geometry" />
        </mxCell>
        <mxCell id="bH_OISczCfJRNenOQu4P-92" value="" style="whiteSpace=wrap;html=1;aspect=fixed;fillColor=#ffcccc;strokeColor=#36393d;" vertex="1" parent="WIyWlLk6GJQsqaUBKTNV-1">
          <mxGeometry x="1081" y="140" width="40" height="40" as="geometry" />
        </mxCell>
        <mxCell id="bH_OISczCfJRNenOQu4P-93" value="" style="whiteSpace=wrap;html=1;aspect=fixed;fillColor=#647687;fontColor=#ffffff;strokeColor=#314354;" vertex="1" parent="WIyWlLk6GJQsqaUBKTNV-1">
          <mxGeometry x="1121" y="140" width="40" height="40" as="geometry" />
        </mxCell>
        <mxCell id="bH_OISczCfJRNenOQu4P-94" value="" style="whiteSpace=wrap;html=1;aspect=fixed;fillColor=#647687;fontColor=#ffffff;strokeColor=#314354;" vertex="1" parent="WIyWlLk6GJQsqaUBKTNV-1">
          <mxGeometry x="1161" y="140" width="40" height="40" as="geometry" />
        </mxCell>
        <mxCell id="bH_OISczCfJRNenOQu4P-95" value="" style="whiteSpace=wrap;html=1;aspect=fixed;fillColor=#647687;fontColor=#ffffff;strokeColor=#314354;" vertex="1" parent="WIyWlLk6GJQsqaUBKTNV-1">
          <mxGeometry x="1201" y="140" width="40" height="40" as="geometry" />
        </mxCell>
        <mxCell id="bH_OISczCfJRNenOQu4P-96" value="" style="whiteSpace=wrap;html=1;aspect=fixed;fillColor=#647687;fontColor=#ffffff;strokeColor=#314354;" vertex="1" parent="WIyWlLk6GJQsqaUBKTNV-1">
          <mxGeometry x="1041" y="180" width="40" height="40" as="geometry" />
        </mxCell>
        <mxCell id="bH_OISczCfJRNenOQu4P-97" value="" style="whiteSpace=wrap;html=1;aspect=fixed;fillColor=#ffcccc;strokeColor=#36393d;" vertex="1" parent="WIyWlLk6GJQsqaUBKTNV-1">
          <mxGeometry x="1081" y="180" width="40" height="40" as="geometry" />
        </mxCell>
        <mxCell id="bH_OISczCfJRNenOQu4P-98" value="" style="whiteSpace=wrap;html=1;aspect=fixed;fillColor=#e3c800;fontColor=#000000;strokeColor=#B09500;" vertex="1" parent="WIyWlLk6GJQsqaUBKTNV-1">
          <mxGeometry x="1121" y="180" width="40" height="40" as="geometry" />
        </mxCell>
        <mxCell id="bH_OISczCfJRNenOQu4P-99" value="" style="whiteSpace=wrap;html=1;aspect=fixed;fillColor=#e3c800;fontColor=#000000;strokeColor=#B09500;" vertex="1" parent="WIyWlLk6GJQsqaUBKTNV-1">
          <mxGeometry x="1161" y="180" width="40" height="40" as="geometry" />
        </mxCell>
        <mxCell id="bH_OISczCfJRNenOQu4P-100" value="" style="whiteSpace=wrap;html=1;aspect=fixed;fillColor=#e3c800;fontColor=#000000;strokeColor=#B09500;" vertex="1" parent="WIyWlLk6GJQsqaUBKTNV-1">
          <mxGeometry x="1201" y="180" width="40" height="40" as="geometry" />
        </mxCell>
        <mxCell id="bH_OISczCfJRNenOQu4P-101" value="" style="whiteSpace=wrap;html=1;aspect=fixed;fillColor=#647687;fontColor=#ffffff;strokeColor=#314354;" vertex="1" parent="WIyWlLk6GJQsqaUBKTNV-1">
          <mxGeometry x="1041" y="220" width="40" height="40" as="geometry" />
        </mxCell>
        <mxCell id="bH_OISczCfJRNenOQu4P-102" value="" style="whiteSpace=wrap;html=1;aspect=fixed;fillColor=#ffcccc;strokeColor=#36393d;" vertex="1" parent="WIyWlLk6GJQsqaUBKTNV-1">
          <mxGeometry x="1081" y="220" width="40" height="40" as="geometry" />
        </mxCell>
        <mxCell id="bH_OISczCfJRNenOQu4P-103" value="" style="whiteSpace=wrap;html=1;aspect=fixed;fillColor=#647687;fontColor=#ffffff;strokeColor=#314354;" vertex="1" parent="WIyWlLk6GJQsqaUBKTNV-1">
          <mxGeometry x="1121" y="220" width="40" height="40" as="geometry" />
        </mxCell>
        <mxCell id="bH_OISczCfJRNenOQu4P-104" value="" style="whiteSpace=wrap;html=1;aspect=fixed;fillColor=#e3c800;fontColor=#000000;strokeColor=#B09500;" vertex="1" parent="WIyWlLk6GJQsqaUBKTNV-1">
          <mxGeometry x="1161" y="220" width="40" height="40" as="geometry" />
        </mxCell>
        <mxCell id="bH_OISczCfJRNenOQu4P-105" value="" style="whiteSpace=wrap;html=1;aspect=fixed;fillColor=#647687;fontColor=#ffffff;strokeColor=#314354;" vertex="1" parent="WIyWlLk6GJQsqaUBKTNV-1">
          <mxGeometry x="1201" y="220" width="40" height="40" as="geometry" />
        </mxCell>
        <mxCell id="bH_OISczCfJRNenOQu4P-106" value="" style="whiteSpace=wrap;html=1;aspect=fixed;fillColor=#647687;fontColor=#ffffff;strokeColor=#314354;" vertex="1" parent="WIyWlLk6GJQsqaUBKTNV-1">
          <mxGeometry x="1041" y="260" width="40" height="40" as="geometry" />
        </mxCell>
        <mxCell id="bH_OISczCfJRNenOQu4P-107" value="" style="whiteSpace=wrap;html=1;aspect=fixed;fillColor=#e3c800;fontColor=#000000;strokeColor=#B09500;" vertex="1" parent="WIyWlLk6GJQsqaUBKTNV-1">
          <mxGeometry x="1081" y="260" width="40" height="40" as="geometry" />
        </mxCell>
        <mxCell id="bH_OISczCfJRNenOQu4P-108" value="" style="whiteSpace=wrap;html=1;aspect=fixed;fillColor=#e3c800;fontColor=#000000;strokeColor=#B09500;" vertex="1" parent="WIyWlLk6GJQsqaUBKTNV-1">
          <mxGeometry x="1121" y="260" width="40" height="40" as="geometry" />
        </mxCell>
        <mxCell id="bH_OISczCfJRNenOQu4P-109" value="" style="whiteSpace=wrap;html=1;aspect=fixed;fillColor=#e3c800;fontColor=#000000;strokeColor=#B09500;" vertex="1" parent="WIyWlLk6GJQsqaUBKTNV-1">
          <mxGeometry x="1161" y="260" width="40" height="40" as="geometry" />
        </mxCell>
        <mxCell id="bH_OISczCfJRNenOQu4P-110" value="" style="whiteSpace=wrap;html=1;aspect=fixed;fillColor=#647687;fontColor=#ffffff;strokeColor=#314354;" vertex="1" parent="WIyWlLk6GJQsqaUBKTNV-1">
          <mxGeometry x="1201" y="260" width="40" height="40" as="geometry" />
        </mxCell>
        <mxCell id="bH_OISczCfJRNenOQu4P-111" value="" style="ellipse;whiteSpace=wrap;html=1;aspect=fixed;fillColor=#e6d0de;gradientColor=#d5739d;strokeColor=#996185;" vertex="1" parent="WIyWlLk6GJQsqaUBKTNV-1">
          <mxGeometry x="1091" y="150" width="20" height="20" as="geometry" />
        </mxCell>
        <mxCell id="bH_OISczCfJRNenOQu4P-112" value="" style="ellipse;whiteSpace=wrap;html=1;aspect=fixed;fillColor=#dae8fc;gradientColor=#7ea6e0;strokeColor=#6c8ebf;" vertex="1" parent="WIyWlLk6GJQsqaUBKTNV-1">
          <mxGeometry x="1211" y="190" width="20" height="20" as="geometry" />
        </mxCell>
        <mxCell id="bH_OISczCfJRNenOQu4P-113" value="0,0" style="text;html=1;strokeColor=none;fillColor=none;align=center;verticalAlign=middle;whiteSpace=wrap;rounded=0;" vertex="1" parent="WIyWlLk6GJQsqaUBKTNV-1">
          <mxGeometry x="1041" y="260" width="40" height="40" as="geometry" />
        </mxCell>
        <mxCell id="bH_OISczCfJRNenOQu4P-114" value="4,3" style="text;html=1;strokeColor=none;fillColor=none;align=center;verticalAlign=middle;whiteSpace=wrap;rounded=0;" vertex="1" parent="WIyWlLk6GJQsqaUBKTNV-1">
          <mxGeometry x="1201" y="140" width="40" height="40" as="geometry" />
        </mxCell>
        <mxCell id="bH_OISczCfJRNenOQu4P-117" value="1, 3" style="rounded=0;whiteSpace=wrap;html=1;fillColor=#ffcd28;gradientColor=#ffa500;strokeColor=#d79b00;" vertex="1" parent="WIyWlLk6GJQsqaUBKTNV-1">
          <mxGeometry x="610" y="110" width="40" height="20" as="geometry" />
        </mxCell>
        <mxCell id="bH_OISczCfJRNenOQu4P-119" value="1, 2" style="rounded=0;whiteSpace=wrap;html=1;fillColor=#ffcd28;gradientColor=#ffa500;strokeColor=#d79b00;" vertex="1" parent="WIyWlLk6GJQsqaUBKTNV-1">
          <mxGeometry x="870" y="110" width="40" height="20" as="geometry" />
        </mxCell>
        <mxCell id="bH_OISczCfJRNenOQu4P-120" value="1, 1" style="rounded=0;whiteSpace=wrap;html=1;fillColor=#ffcd28;gradientColor=#ffa500;strokeColor=#d79b00;" vertex="1" parent="WIyWlLk6GJQsqaUBKTNV-1">
          <mxGeometry x="1130" y="110" width="40" height="20" as="geometry" />
        </mxCell>
        <mxCell id="bH_OISczCfJRNenOQu4P-121" value="Stack" style="text;html=1;strokeColor=#82b366;fillColor=#d5e8d4;align=center;verticalAlign=middle;whiteSpace=wrap;rounded=0;rotation=0;gradientColor=#97d077;" vertex="1" parent="WIyWlLk6GJQsqaUBKTNV-1">
          <mxGeometry x="1121" y="380" width="40" height="20" as="geometry" />
        </mxCell>
        <mxCell id="bH_OISczCfJRNenOQu4P-122" value="2, 2" style="rounded=0;whiteSpace=wrap;html=1;" vertex="1" parent="WIyWlLk6GJQsqaUBKTNV-1">
          <mxGeometry x="1121" y="360" width="40" height="20" as="geometry" />
        </mxCell>
        <mxCell id="bH_OISczCfJRNenOQu4P-123" value="Stack!" style="text;html=1;strokeColor=#82b366;fillColor=#d5e8d4;align=center;verticalAlign=middle;whiteSpace=wrap;rounded=0;rotation=-25;gradientColor=#97d077;" vertex="1" parent="WIyWlLk6GJQsqaUBKTNV-1">
          <mxGeometry x="1081" y="270" width="40" height="20" as="geometry" />
        </mxCell>
        <mxCell id="bH_OISczCfJRNenOQu4P-124" value="1, 0" style="rounded=0;whiteSpace=wrap;html=1;" vertex="1" parent="WIyWlLk6GJQsqaUBKTNV-1">
          <mxGeometry x="1121" y="340" width="40" height="20" as="geometry" />
        </mxCell>
        <mxCell id="bH_OISczCfJRNenOQu4P-125" value="" style="whiteSpace=wrap;html=1;aspect=fixed;fillColor=#647687;fontColor=#ffffff;strokeColor=#314354;" vertex="1" parent="WIyWlLk6GJQsqaUBKTNV-1">
          <mxGeometry x="1280" y="140" width="40" height="40" as="geometry" />
        </mxCell>
        <mxCell id="bH_OISczCfJRNenOQu4P-126" value="" style="whiteSpace=wrap;html=1;aspect=fixed;fillColor=#ffcccc;strokeColor=#36393d;" vertex="1" parent="WIyWlLk6GJQsqaUBKTNV-1">
          <mxGeometry x="1320" y="140" width="40" height="40" as="geometry" />
        </mxCell>
        <mxCell id="bH_OISczCfJRNenOQu4P-127" value="" style="whiteSpace=wrap;html=1;aspect=fixed;fillColor=#647687;fontColor=#ffffff;strokeColor=#314354;" vertex="1" parent="WIyWlLk6GJQsqaUBKTNV-1">
          <mxGeometry x="1360" y="140" width="40" height="40" as="geometry" />
        </mxCell>
        <mxCell id="bH_OISczCfJRNenOQu4P-128" value="" style="whiteSpace=wrap;html=1;aspect=fixed;fillColor=#647687;fontColor=#ffffff;strokeColor=#314354;" vertex="1" parent="WIyWlLk6GJQsqaUBKTNV-1">
          <mxGeometry x="1400" y="140" width="40" height="40" as="geometry" />
        </mxCell>
        <mxCell id="bH_OISczCfJRNenOQu4P-129" value="" style="whiteSpace=wrap;html=1;aspect=fixed;fillColor=#647687;fontColor=#ffffff;strokeColor=#314354;" vertex="1" parent="WIyWlLk6GJQsqaUBKTNV-1">
          <mxGeometry x="1440" y="140" width="40" height="40" as="geometry" />
        </mxCell>
        <mxCell id="bH_OISczCfJRNenOQu4P-130" value="" style="whiteSpace=wrap;html=1;aspect=fixed;fillColor=#647687;fontColor=#ffffff;strokeColor=#314354;" vertex="1" parent="WIyWlLk6GJQsqaUBKTNV-1">
          <mxGeometry x="1280" y="180" width="40" height="40" as="geometry" />
        </mxCell>
        <mxCell id="bH_OISczCfJRNenOQu4P-131" value="" style="whiteSpace=wrap;html=1;aspect=fixed;fillColor=#ffcccc;strokeColor=#36393d;" vertex="1" parent="WIyWlLk6GJQsqaUBKTNV-1">
          <mxGeometry x="1320" y="180" width="40" height="40" as="geometry" />
        </mxCell>
        <mxCell id="bH_OISczCfJRNenOQu4P-132" value="" style="whiteSpace=wrap;html=1;aspect=fixed;fillColor=#e3c800;fontColor=#000000;strokeColor=#B09500;" vertex="1" parent="WIyWlLk6GJQsqaUBKTNV-1">
          <mxGeometry x="1360" y="180" width="40" height="40" as="geometry" />
        </mxCell>
        <mxCell id="bH_OISczCfJRNenOQu4P-133" value="" style="whiteSpace=wrap;html=1;aspect=fixed;fillColor=#e3c800;fontColor=#000000;strokeColor=#B09500;" vertex="1" parent="WIyWlLk6GJQsqaUBKTNV-1">
          <mxGeometry x="1400" y="180" width="40" height="40" as="geometry" />
        </mxCell>
        <mxCell id="bH_OISczCfJRNenOQu4P-134" value="" style="whiteSpace=wrap;html=1;aspect=fixed;fillColor=#e3c800;fontColor=#000000;strokeColor=#B09500;" vertex="1" parent="WIyWlLk6GJQsqaUBKTNV-1">
          <mxGeometry x="1440" y="180" width="40" height="40" as="geometry" />
        </mxCell>
        <mxCell id="bH_OISczCfJRNenOQu4P-135" value="" style="whiteSpace=wrap;html=1;aspect=fixed;fillColor=#647687;fontColor=#ffffff;strokeColor=#314354;" vertex="1" parent="WIyWlLk6GJQsqaUBKTNV-1">
          <mxGeometry x="1280" y="220" width="40" height="40" as="geometry" />
        </mxCell>
        <mxCell id="bH_OISczCfJRNenOQu4P-136" value="" style="whiteSpace=wrap;html=1;aspect=fixed;fillColor=#ffcccc;strokeColor=#36393d;" vertex="1" parent="WIyWlLk6GJQsqaUBKTNV-1">
          <mxGeometry x="1320" y="220" width="40" height="40" as="geometry" />
        </mxCell>
        <mxCell id="bH_OISczCfJRNenOQu4P-137" value="" style="whiteSpace=wrap;html=1;aspect=fixed;fillColor=#647687;fontColor=#ffffff;strokeColor=#314354;" vertex="1" parent="WIyWlLk6GJQsqaUBKTNV-1">
          <mxGeometry x="1360" y="220" width="40" height="40" as="geometry" />
        </mxCell>
        <mxCell id="bH_OISczCfJRNenOQu4P-138" value="" style="whiteSpace=wrap;html=1;aspect=fixed;fillColor=#e3c800;fontColor=#000000;strokeColor=#B09500;" vertex="1" parent="WIyWlLk6GJQsqaUBKTNV-1">
          <mxGeometry x="1400" y="220" width="40" height="40" as="geometry" />
        </mxCell>
        <mxCell id="bH_OISczCfJRNenOQu4P-139" value="" style="whiteSpace=wrap;html=1;aspect=fixed;fillColor=#647687;fontColor=#ffffff;strokeColor=#314354;" vertex="1" parent="WIyWlLk6GJQsqaUBKTNV-1">
          <mxGeometry x="1440" y="220" width="40" height="40" as="geometry" />
        </mxCell>
        <mxCell id="bH_OISczCfJRNenOQu4P-140" value="" style="whiteSpace=wrap;html=1;aspect=fixed;fillColor=#647687;fontColor=#ffffff;strokeColor=#314354;" vertex="1" parent="WIyWlLk6GJQsqaUBKTNV-1">
          <mxGeometry x="1280" y="260" width="40" height="40" as="geometry" />
        </mxCell>
        <mxCell id="bH_OISczCfJRNenOQu4P-141" value="" style="whiteSpace=wrap;html=1;aspect=fixed;fillColor=#ffcccc;strokeColor=#36393d;" vertex="1" parent="WIyWlLk6GJQsqaUBKTNV-1">
          <mxGeometry x="1320" y="260" width="40" height="40" as="geometry" />
        </mxCell>
        <mxCell id="bH_OISczCfJRNenOQu4P-142" value="" style="whiteSpace=wrap;html=1;aspect=fixed;fillColor=#e3c800;fontColor=#000000;strokeColor=#B09500;" vertex="1" parent="WIyWlLk6GJQsqaUBKTNV-1">
          <mxGeometry x="1360" y="260" width="40" height="40" as="geometry" />
        </mxCell>
        <mxCell id="bH_OISczCfJRNenOQu4P-143" value="" style="whiteSpace=wrap;html=1;aspect=fixed;fillColor=#e3c800;fontColor=#000000;strokeColor=#B09500;" vertex="1" parent="WIyWlLk6GJQsqaUBKTNV-1">
          <mxGeometry x="1400" y="260" width="40" height="40" as="geometry" />
        </mxCell>
        <mxCell id="bH_OISczCfJRNenOQu4P-144" value="" style="whiteSpace=wrap;html=1;aspect=fixed;fillColor=#647687;fontColor=#ffffff;strokeColor=#314354;" vertex="1" parent="WIyWlLk6GJQsqaUBKTNV-1">
          <mxGeometry x="1440" y="260" width="40" height="40" as="geometry" />
        </mxCell>
        <mxCell id="bH_OISczCfJRNenOQu4P-145" value="" style="ellipse;whiteSpace=wrap;html=1;aspect=fixed;fillColor=#e6d0de;gradientColor=#d5739d;strokeColor=#996185;" vertex="1" parent="WIyWlLk6GJQsqaUBKTNV-1">
          <mxGeometry x="1330" y="150" width="20" height="20" as="geometry" />
        </mxCell>
        <mxCell id="bH_OISczCfJRNenOQu4P-146" value="" style="ellipse;whiteSpace=wrap;html=1;aspect=fixed;fillColor=#dae8fc;gradientColor=#7ea6e0;strokeColor=#6c8ebf;" vertex="1" parent="WIyWlLk6GJQsqaUBKTNV-1">
          <mxGeometry x="1450" y="190" width="20" height="20" as="geometry" />
        </mxCell>
        <mxCell id="bH_OISczCfJRNenOQu4P-147" value="0,0" style="text;html=1;strokeColor=none;fillColor=none;align=center;verticalAlign=middle;whiteSpace=wrap;rounded=0;" vertex="1" parent="WIyWlLk6GJQsqaUBKTNV-1">
          <mxGeometry x="1280" y="260" width="40" height="40" as="geometry" />
        </mxCell>
        <mxCell id="bH_OISczCfJRNenOQu4P-148" value="4,3" style="text;html=1;strokeColor=none;fillColor=none;align=center;verticalAlign=middle;whiteSpace=wrap;rounded=0;" vertex="1" parent="WIyWlLk6GJQsqaUBKTNV-1">
          <mxGeometry x="1440" y="140" width="40" height="40" as="geometry" />
        </mxCell>
        <mxCell id="bH_OISczCfJRNenOQu4P-149" value="1, 0" style="rounded=0;whiteSpace=wrap;html=1;fillColor=#ffcd28;gradientColor=#ffa500;strokeColor=#d79b00;" vertex="1" parent="WIyWlLk6GJQsqaUBKTNV-1">
          <mxGeometry x="1369" y="110" width="40" height="20" as="geometry" />
        </mxCell>
        <mxCell id="bH_OISczCfJRNenOQu4P-151" value="Stack" style="text;html=1;strokeColor=#82b366;fillColor=#d5e8d4;align=center;verticalAlign=middle;whiteSpace=wrap;rounded=0;rotation=0;gradientColor=#97d077;" vertex="1" parent="WIyWlLk6GJQsqaUBKTNV-1">
          <mxGeometry x="1360" y="380" width="40" height="20" as="geometry" />
        </mxCell>
        <mxCell id="bH_OISczCfJRNenOQu4P-152" value="2, 2" style="rounded=0;whiteSpace=wrap;html=1;" vertex="1" parent="WIyWlLk6GJQsqaUBKTNV-1">
          <mxGeometry x="1360" y="360" width="40" height="20" as="geometry" />
        </mxCell>
        <mxCell id="bH_OISczCfJRNenOQu4P-153" value="Stack!" style="text;html=1;strokeColor=#82b366;fillColor=#d5e8d4;align=center;verticalAlign=middle;whiteSpace=wrap;rounded=0;rotation=-25;gradientColor=#97d077;" vertex="1" parent="WIyWlLk6GJQsqaUBKTNV-1">
          <mxGeometry x="1360" y="270" width="40" height="20" as="geometry" />
        </mxCell>
        <mxCell id="bH_OISczCfJRNenOQu4P-154" value="2, 0" style="rounded=0;whiteSpace=wrap;html=1;" vertex="1" parent="WIyWlLk6GJQsqaUBKTNV-1">
          <mxGeometry x="1360" y="340" width="40" height="20" as="geometry" />
        </mxCell>
        <mxCell id="bH_OISczCfJRNenOQu4P-155" value="" style="whiteSpace=wrap;html=1;aspect=fixed;fillColor=#647687;fontColor=#ffffff;strokeColor=#314354;" vertex="1" parent="WIyWlLk6GJQsqaUBKTNV-1">
          <mxGeometry x="1520" y="140" width="40" height="40" as="geometry" />
        </mxCell>
        <mxCell id="bH_OISczCfJRNenOQu4P-156" value="" style="whiteSpace=wrap;html=1;aspect=fixed;fillColor=#ffcccc;strokeColor=#36393d;" vertex="1" parent="WIyWlLk6GJQsqaUBKTNV-1">
          <mxGeometry x="1560" y="140" width="40" height="40" as="geometry" />
        </mxCell>
        <mxCell id="bH_OISczCfJRNenOQu4P-157" value="" style="whiteSpace=wrap;html=1;aspect=fixed;fillColor=#647687;fontColor=#ffffff;strokeColor=#314354;" vertex="1" parent="WIyWlLk6GJQsqaUBKTNV-1">
          <mxGeometry x="1600" y="140" width="40" height="40" as="geometry" />
        </mxCell>
        <mxCell id="bH_OISczCfJRNenOQu4P-158" value="" style="whiteSpace=wrap;html=1;aspect=fixed;fillColor=#647687;fontColor=#ffffff;strokeColor=#314354;" vertex="1" parent="WIyWlLk6GJQsqaUBKTNV-1">
          <mxGeometry x="1640" y="140" width="40" height="40" as="geometry" />
        </mxCell>
        <mxCell id="bH_OISczCfJRNenOQu4P-159" value="" style="whiteSpace=wrap;html=1;aspect=fixed;fillColor=#647687;fontColor=#ffffff;strokeColor=#314354;" vertex="1" parent="WIyWlLk6GJQsqaUBKTNV-1">
          <mxGeometry x="1680" y="140" width="40" height="40" as="geometry" />
        </mxCell>
        <mxCell id="bH_OISczCfJRNenOQu4P-160" value="" style="whiteSpace=wrap;html=1;aspect=fixed;fillColor=#647687;fontColor=#ffffff;strokeColor=#314354;" vertex="1" parent="WIyWlLk6GJQsqaUBKTNV-1">
          <mxGeometry x="1520" y="180" width="40" height="40" as="geometry" />
        </mxCell>
        <mxCell id="bH_OISczCfJRNenOQu4P-161" value="" style="whiteSpace=wrap;html=1;aspect=fixed;fillColor=#ffcccc;strokeColor=#36393d;" vertex="1" parent="WIyWlLk6GJQsqaUBKTNV-1">
          <mxGeometry x="1560" y="180" width="40" height="40" as="geometry" />
        </mxCell>
        <mxCell id="bH_OISczCfJRNenOQu4P-162" value="" style="whiteSpace=wrap;html=1;aspect=fixed;fillColor=#e3c800;fontColor=#000000;strokeColor=#B09500;" vertex="1" parent="WIyWlLk6GJQsqaUBKTNV-1">
          <mxGeometry x="1600" y="180" width="40" height="40" as="geometry" />
        </mxCell>
        <mxCell id="bH_OISczCfJRNenOQu4P-163" value="" style="whiteSpace=wrap;html=1;aspect=fixed;fillColor=#e3c800;fontColor=#000000;strokeColor=#B09500;" vertex="1" parent="WIyWlLk6GJQsqaUBKTNV-1">
          <mxGeometry x="1640" y="180" width="40" height="40" as="geometry" />
        </mxCell>
        <mxCell id="bH_OISczCfJRNenOQu4P-164" value="" style="whiteSpace=wrap;html=1;aspect=fixed;fillColor=#e3c800;fontColor=#000000;strokeColor=#B09500;" vertex="1" parent="WIyWlLk6GJQsqaUBKTNV-1">
          <mxGeometry x="1680" y="180" width="40" height="40" as="geometry" />
        </mxCell>
        <mxCell id="bH_OISczCfJRNenOQu4P-165" value="" style="whiteSpace=wrap;html=1;aspect=fixed;fillColor=#647687;fontColor=#ffffff;strokeColor=#314354;" vertex="1" parent="WIyWlLk6GJQsqaUBKTNV-1">
          <mxGeometry x="1520" y="220" width="40" height="40" as="geometry" />
        </mxCell>
        <mxCell id="bH_OISczCfJRNenOQu4P-166" value="" style="whiteSpace=wrap;html=1;aspect=fixed;fillColor=#ffcccc;strokeColor=#36393d;" vertex="1" parent="WIyWlLk6GJQsqaUBKTNV-1">
          <mxGeometry x="1560" y="220" width="40" height="40" as="geometry" />
        </mxCell>
        <mxCell id="bH_OISczCfJRNenOQu4P-167" value="" style="whiteSpace=wrap;html=1;aspect=fixed;fillColor=#647687;fontColor=#ffffff;strokeColor=#314354;" vertex="1" parent="WIyWlLk6GJQsqaUBKTNV-1">
          <mxGeometry x="1600" y="220" width="40" height="40" as="geometry" />
        </mxCell>
        <mxCell id="bH_OISczCfJRNenOQu4P-168" value="" style="whiteSpace=wrap;html=1;aspect=fixed;fillColor=#e3c800;fontColor=#000000;strokeColor=#B09500;" vertex="1" parent="WIyWlLk6GJQsqaUBKTNV-1">
          <mxGeometry x="1640" y="220" width="40" height="40" as="geometry" />
        </mxCell>
        <mxCell id="bH_OISczCfJRNenOQu4P-169" value="" style="whiteSpace=wrap;html=1;aspect=fixed;fillColor=#647687;fontColor=#ffffff;strokeColor=#314354;" vertex="1" parent="WIyWlLk6GJQsqaUBKTNV-1">
          <mxGeometry x="1680" y="220" width="40" height="40" as="geometry" />
        </mxCell>
        <mxCell id="bH_OISczCfJRNenOQu4P-170" value="" style="whiteSpace=wrap;html=1;aspect=fixed;fillColor=#647687;fontColor=#ffffff;strokeColor=#314354;" vertex="1" parent="WIyWlLk6GJQsqaUBKTNV-1">
          <mxGeometry x="1520" y="260" width="40" height="40" as="geometry" />
        </mxCell>
        <mxCell id="bH_OISczCfJRNenOQu4P-171" value="" style="whiteSpace=wrap;html=1;aspect=fixed;fillColor=#ffcccc;strokeColor=#36393d;" vertex="1" parent="WIyWlLk6GJQsqaUBKTNV-1">
          <mxGeometry x="1560" y="260" width="40" height="40" as="geometry" />
        </mxCell>
        <mxCell id="bH_OISczCfJRNenOQu4P-172" value="" style="whiteSpace=wrap;html=1;aspect=fixed;fillColor=#ffcccc;strokeColor=#36393d;" vertex="1" parent="WIyWlLk6GJQsqaUBKTNV-1">
          <mxGeometry x="1600" y="260" width="40" height="40" as="geometry" />
        </mxCell>
        <mxCell id="bH_OISczCfJRNenOQu4P-173" value="" style="whiteSpace=wrap;html=1;aspect=fixed;fillColor=#e3c800;fontColor=#000000;strokeColor=#B09500;" vertex="1" parent="WIyWlLk6GJQsqaUBKTNV-1">
          <mxGeometry x="1640" y="260" width="40" height="40" as="geometry" />
        </mxCell>
        <mxCell id="bH_OISczCfJRNenOQu4P-174" value="" style="whiteSpace=wrap;html=1;aspect=fixed;fillColor=#647687;fontColor=#ffffff;strokeColor=#314354;" vertex="1" parent="WIyWlLk6GJQsqaUBKTNV-1">
          <mxGeometry x="1680" y="260" width="40" height="40" as="geometry" />
        </mxCell>
        <mxCell id="bH_OISczCfJRNenOQu4P-175" value="" style="ellipse;whiteSpace=wrap;html=1;aspect=fixed;fillColor=#e6d0de;gradientColor=#d5739d;strokeColor=#996185;" vertex="1" parent="WIyWlLk6GJQsqaUBKTNV-1">
          <mxGeometry x="1570" y="150" width="20" height="20" as="geometry" />
        </mxCell>
        <mxCell id="bH_OISczCfJRNenOQu4P-176" value="" style="ellipse;whiteSpace=wrap;html=1;aspect=fixed;fillColor=#dae8fc;gradientColor=#7ea6e0;strokeColor=#6c8ebf;" vertex="1" parent="WIyWlLk6GJQsqaUBKTNV-1">
          <mxGeometry x="1690" y="190" width="20" height="20" as="geometry" />
        </mxCell>
        <mxCell id="bH_OISczCfJRNenOQu4P-177" value="0,0" style="text;html=1;strokeColor=none;fillColor=none;align=center;verticalAlign=middle;whiteSpace=wrap;rounded=0;" vertex="1" parent="WIyWlLk6GJQsqaUBKTNV-1">
          <mxGeometry x="1520" y="260" width="40" height="40" as="geometry" />
        </mxCell>
        <mxCell id="bH_OISczCfJRNenOQu4P-178" value="4,3" style="text;html=1;strokeColor=none;fillColor=none;align=center;verticalAlign=middle;whiteSpace=wrap;rounded=0;" vertex="1" parent="WIyWlLk6GJQsqaUBKTNV-1">
          <mxGeometry x="1680" y="140" width="40" height="40" as="geometry" />
        </mxCell>
        <mxCell id="bH_OISczCfJRNenOQu4P-179" value="2, 0" style="rounded=0;whiteSpace=wrap;html=1;fillColor=#ffcd28;gradientColor=#ffa500;strokeColor=#d79b00;" vertex="1" parent="WIyWlLk6GJQsqaUBKTNV-1">
          <mxGeometry x="1609" y="110" width="40" height="20" as="geometry" />
        </mxCell>
        <mxCell id="bH_OISczCfJRNenOQu4P-181" value="Stack" style="text;html=1;strokeColor=#82b366;fillColor=#d5e8d4;align=center;verticalAlign=middle;whiteSpace=wrap;rounded=0;rotation=0;gradientColor=#97d077;" vertex="1" parent="WIyWlLk6GJQsqaUBKTNV-1">
          <mxGeometry x="1600" y="380" width="40" height="20" as="geometry" />
        </mxCell>
        <mxCell id="bH_OISczCfJRNenOQu4P-182" value="2, 2" style="rounded=0;whiteSpace=wrap;html=1;" vertex="1" parent="WIyWlLk6GJQsqaUBKTNV-1">
          <mxGeometry x="1600" y="360" width="40" height="20" as="geometry" />
        </mxCell>
        <mxCell id="bH_OISczCfJRNenOQu4P-183" value="3, 0" style="rounded=0;whiteSpace=wrap;html=1;" vertex="1" parent="WIyWlLk6GJQsqaUBKTNV-1">
          <mxGeometry x="1600" y="340" width="40" height="20" as="geometry" />
        </mxCell>
        <mxCell id="bH_OISczCfJRNenOQu4P-184" value="Stack!" style="text;html=1;strokeColor=#82b366;fillColor=#d5e8d4;align=center;verticalAlign=middle;whiteSpace=wrap;rounded=0;rotation=-25;gradientColor=#97d077;" vertex="1" parent="WIyWlLk6GJQsqaUBKTNV-1">
          <mxGeometry x="1640" y="270" width="40" height="20" as="geometry" />
        </mxCell>
        <mxCell id="bH_OISczCfJRNenOQu4P-185" value="" style="whiteSpace=wrap;html=1;aspect=fixed;fillColor=#647687;fontColor=#ffffff;strokeColor=#314354;" vertex="1" parent="WIyWlLk6GJQsqaUBKTNV-1">
          <mxGeometry x="1760" y="140" width="40" height="40" as="geometry" />
        </mxCell>
        <mxCell id="bH_OISczCfJRNenOQu4P-186" value="" style="whiteSpace=wrap;html=1;aspect=fixed;fillColor=#ffcccc;strokeColor=#36393d;" vertex="1" parent="WIyWlLk6GJQsqaUBKTNV-1">
          <mxGeometry x="1800" y="140" width="40" height="40" as="geometry" />
        </mxCell>
        <mxCell id="bH_OISczCfJRNenOQu4P-187" value="" style="whiteSpace=wrap;html=1;aspect=fixed;fillColor=#647687;fontColor=#ffffff;strokeColor=#314354;" vertex="1" parent="WIyWlLk6GJQsqaUBKTNV-1">
          <mxGeometry x="1840" y="140" width="40" height="40" as="geometry" />
        </mxCell>
        <mxCell id="bH_OISczCfJRNenOQu4P-188" value="" style="whiteSpace=wrap;html=1;aspect=fixed;fillColor=#647687;fontColor=#ffffff;strokeColor=#314354;" vertex="1" parent="WIyWlLk6GJQsqaUBKTNV-1">
          <mxGeometry x="1880" y="140" width="40" height="40" as="geometry" />
        </mxCell>
        <mxCell id="bH_OISczCfJRNenOQu4P-189" value="" style="whiteSpace=wrap;html=1;aspect=fixed;fillColor=#647687;fontColor=#ffffff;strokeColor=#314354;" vertex="1" parent="WIyWlLk6GJQsqaUBKTNV-1">
          <mxGeometry x="1920" y="140" width="40" height="40" as="geometry" />
        </mxCell>
        <mxCell id="bH_OISczCfJRNenOQu4P-190" value="" style="whiteSpace=wrap;html=1;aspect=fixed;fillColor=#647687;fontColor=#ffffff;strokeColor=#314354;" vertex="1" parent="WIyWlLk6GJQsqaUBKTNV-1">
          <mxGeometry x="1760" y="180" width="40" height="40" as="geometry" />
        </mxCell>
        <mxCell id="bH_OISczCfJRNenOQu4P-191" value="" style="whiteSpace=wrap;html=1;aspect=fixed;fillColor=#ffcccc;strokeColor=#36393d;" vertex="1" parent="WIyWlLk6GJQsqaUBKTNV-1">
          <mxGeometry x="1800" y="180" width="40" height="40" as="geometry" />
        </mxCell>
        <mxCell id="bH_OISczCfJRNenOQu4P-192" value="" style="whiteSpace=wrap;html=1;aspect=fixed;fillColor=#e3c800;fontColor=#000000;strokeColor=#B09500;" vertex="1" parent="WIyWlLk6GJQsqaUBKTNV-1">
          <mxGeometry x="1840" y="180" width="40" height="40" as="geometry" />
        </mxCell>
        <mxCell id="bH_OISczCfJRNenOQu4P-193" value="" style="whiteSpace=wrap;html=1;aspect=fixed;fillColor=#e3c800;fontColor=#000000;strokeColor=#B09500;" vertex="1" parent="WIyWlLk6GJQsqaUBKTNV-1">
          <mxGeometry x="1880" y="180" width="40" height="40" as="geometry" />
        </mxCell>
        <mxCell id="bH_OISczCfJRNenOQu4P-194" value="" style="whiteSpace=wrap;html=1;aspect=fixed;fillColor=#e3c800;fontColor=#000000;strokeColor=#B09500;" vertex="1" parent="WIyWlLk6GJQsqaUBKTNV-1">
          <mxGeometry x="1920" y="180" width="40" height="40" as="geometry" />
        </mxCell>
        <mxCell id="bH_OISczCfJRNenOQu4P-195" value="" style="whiteSpace=wrap;html=1;aspect=fixed;fillColor=#647687;fontColor=#ffffff;strokeColor=#314354;" vertex="1" parent="WIyWlLk6GJQsqaUBKTNV-1">
          <mxGeometry x="1760" y="220" width="40" height="40" as="geometry" />
        </mxCell>
        <mxCell id="bH_OISczCfJRNenOQu4P-196" value="" style="whiteSpace=wrap;html=1;aspect=fixed;fillColor=#ffcccc;strokeColor=#36393d;" vertex="1" parent="WIyWlLk6GJQsqaUBKTNV-1">
          <mxGeometry x="1800" y="220" width="40" height="40" as="geometry" />
        </mxCell>
        <mxCell id="bH_OISczCfJRNenOQu4P-197" value="" style="whiteSpace=wrap;html=1;aspect=fixed;fillColor=#647687;fontColor=#ffffff;strokeColor=#314354;" vertex="1" parent="WIyWlLk6GJQsqaUBKTNV-1">
          <mxGeometry x="1840" y="220" width="40" height="40" as="geometry" />
        </mxCell>
        <mxCell id="bH_OISczCfJRNenOQu4P-198" value="" style="whiteSpace=wrap;html=1;aspect=fixed;fillColor=#e3c800;fontColor=#000000;strokeColor=#B09500;" vertex="1" parent="WIyWlLk6GJQsqaUBKTNV-1">
          <mxGeometry x="1880" y="220" width="40" height="40" as="geometry" />
        </mxCell>
        <mxCell id="bH_OISczCfJRNenOQu4P-199" value="" style="whiteSpace=wrap;html=1;aspect=fixed;fillColor=#647687;fontColor=#ffffff;strokeColor=#314354;" vertex="1" parent="WIyWlLk6GJQsqaUBKTNV-1">
          <mxGeometry x="1920" y="220" width="40" height="40" as="geometry" />
        </mxCell>
        <mxCell id="bH_OISczCfJRNenOQu4P-200" value="" style="whiteSpace=wrap;html=1;aspect=fixed;fillColor=#647687;fontColor=#ffffff;strokeColor=#314354;" vertex="1" parent="WIyWlLk6GJQsqaUBKTNV-1">
          <mxGeometry x="1760" y="260" width="40" height="40" as="geometry" />
        </mxCell>
        <mxCell id="bH_OISczCfJRNenOQu4P-201" value="" style="whiteSpace=wrap;html=1;aspect=fixed;fillColor=#ffcccc;strokeColor=#36393d;" vertex="1" parent="WIyWlLk6GJQsqaUBKTNV-1">
          <mxGeometry x="1800" y="260" width="40" height="40" as="geometry" />
        </mxCell>
        <mxCell id="bH_OISczCfJRNenOQu4P-202" value="" style="whiteSpace=wrap;html=1;aspect=fixed;fillColor=#ffcccc;strokeColor=#36393d;" vertex="1" parent="WIyWlLk6GJQsqaUBKTNV-1">
          <mxGeometry x="1840" y="260" width="40" height="40" as="geometry" />
        </mxCell>
        <mxCell id="bH_OISczCfJRNenOQu4P-203" value="" style="whiteSpace=wrap;html=1;aspect=fixed;fillColor=#ffcccc;strokeColor=#36393d;" vertex="1" parent="WIyWlLk6GJQsqaUBKTNV-1">
          <mxGeometry x="1880" y="260" width="40" height="40" as="geometry" />
        </mxCell>
        <mxCell id="bH_OISczCfJRNenOQu4P-204" value="" style="whiteSpace=wrap;html=1;aspect=fixed;fillColor=#647687;fontColor=#ffffff;strokeColor=#314354;" vertex="1" parent="WIyWlLk6GJQsqaUBKTNV-1">
          <mxGeometry x="1920" y="260" width="40" height="40" as="geometry" />
        </mxCell>
        <mxCell id="bH_OISczCfJRNenOQu4P-205" value="" style="ellipse;whiteSpace=wrap;html=1;aspect=fixed;fillColor=#e6d0de;gradientColor=#d5739d;strokeColor=#996185;" vertex="1" parent="WIyWlLk6GJQsqaUBKTNV-1">
          <mxGeometry x="1810" y="150" width="20" height="20" as="geometry" />
        </mxCell>
        <mxCell id="bH_OISczCfJRNenOQu4P-206" value="" style="ellipse;whiteSpace=wrap;html=1;aspect=fixed;fillColor=#dae8fc;gradientColor=#7ea6e0;strokeColor=#6c8ebf;" vertex="1" parent="WIyWlLk6GJQsqaUBKTNV-1">
          <mxGeometry x="1930" y="190" width="20" height="20" as="geometry" />
        </mxCell>
        <mxCell id="bH_OISczCfJRNenOQu4P-207" value="0,0" style="text;html=1;strokeColor=none;fillColor=none;align=center;verticalAlign=middle;whiteSpace=wrap;rounded=0;" vertex="1" parent="WIyWlLk6GJQsqaUBKTNV-1">
          <mxGeometry x="1760" y="260" width="40" height="40" as="geometry" />
        </mxCell>
        <mxCell id="bH_OISczCfJRNenOQu4P-208" value="4,3" style="text;html=1;strokeColor=none;fillColor=none;align=center;verticalAlign=middle;whiteSpace=wrap;rounded=0;" vertex="1" parent="WIyWlLk6GJQsqaUBKTNV-1">
          <mxGeometry x="1920" y="140" width="40" height="40" as="geometry" />
        </mxCell>
        <mxCell id="bH_OISczCfJRNenOQu4P-209" value="3, 0" style="rounded=0;whiteSpace=wrap;html=1;fillColor=#ffcd28;gradientColor=#ffa500;strokeColor=#d79b00;" vertex="1" parent="WIyWlLk6GJQsqaUBKTNV-1">
          <mxGeometry x="1849" y="110" width="40" height="20" as="geometry" />
        </mxCell>
        <mxCell id="bH_OISczCfJRNenOQu4P-214" value="Stack" style="text;html=1;strokeColor=#82b366;fillColor=#d5e8d4;align=center;verticalAlign=middle;whiteSpace=wrap;rounded=0;rotation=0;gradientColor=#97d077;" vertex="1" parent="WIyWlLk6GJQsqaUBKTNV-1">
          <mxGeometry x="1840" y="380" width="40" height="20" as="geometry" />
        </mxCell>
        <mxCell id="bH_OISczCfJRNenOQu4P-215" value="2, 2" style="rounded=0;whiteSpace=wrap;html=1;" vertex="1" parent="WIyWlLk6GJQsqaUBKTNV-1">
          <mxGeometry x="1840" y="360" width="40" height="20" as="geometry" />
        </mxCell>
        <mxCell id="bH_OISczCfJRNenOQu4P-216" value="Stack!" style="text;html=1;strokeColor=#82b366;fillColor=#d5e8d4;align=center;verticalAlign=middle;whiteSpace=wrap;rounded=0;rotation=-25;gradientColor=#97d077;" vertex="1" parent="WIyWlLk6GJQsqaUBKTNV-1">
          <mxGeometry x="1880" y="230" width="40" height="20" as="geometry" />
        </mxCell>
        <mxCell id="bH_OISczCfJRNenOQu4P-217" value="3, 1" style="rounded=0;whiteSpace=wrap;html=1;" vertex="1" parent="WIyWlLk6GJQsqaUBKTNV-1">
          <mxGeometry x="1840" y="340" width="40" height="20" as="geometry" />
        </mxCell>
        <mxCell id="bH_OISczCfJRNenOQu4P-218" value="" style="whiteSpace=wrap;html=1;aspect=fixed;fillColor=#647687;fontColor=#ffffff;strokeColor=#314354;" vertex="1" parent="WIyWlLk6GJQsqaUBKTNV-1">
          <mxGeometry x="2020" y="140" width="40" height="40" as="geometry" />
        </mxCell>
        <mxCell id="bH_OISczCfJRNenOQu4P-219" value="" style="whiteSpace=wrap;html=1;aspect=fixed;fillColor=#ffcccc;strokeColor=#36393d;" vertex="1" parent="WIyWlLk6GJQsqaUBKTNV-1">
          <mxGeometry x="2060" y="140" width="40" height="40" as="geometry" />
        </mxCell>
        <mxCell id="bH_OISczCfJRNenOQu4P-220" value="" style="whiteSpace=wrap;html=1;aspect=fixed;fillColor=#647687;fontColor=#ffffff;strokeColor=#314354;" vertex="1" parent="WIyWlLk6GJQsqaUBKTNV-1">
          <mxGeometry x="2100" y="140" width="40" height="40" as="geometry" />
        </mxCell>
        <mxCell id="bH_OISczCfJRNenOQu4P-221" value="" style="whiteSpace=wrap;html=1;aspect=fixed;fillColor=#647687;fontColor=#ffffff;strokeColor=#314354;" vertex="1" parent="WIyWlLk6GJQsqaUBKTNV-1">
          <mxGeometry x="2140" y="140" width="40" height="40" as="geometry" />
        </mxCell>
        <mxCell id="bH_OISczCfJRNenOQu4P-222" value="" style="whiteSpace=wrap;html=1;aspect=fixed;fillColor=#647687;fontColor=#ffffff;strokeColor=#314354;" vertex="1" parent="WIyWlLk6GJQsqaUBKTNV-1">
          <mxGeometry x="2180" y="140" width="40" height="40" as="geometry" />
        </mxCell>
        <mxCell id="bH_OISczCfJRNenOQu4P-223" value="" style="whiteSpace=wrap;html=1;aspect=fixed;fillColor=#647687;fontColor=#ffffff;strokeColor=#314354;" vertex="1" parent="WIyWlLk6GJQsqaUBKTNV-1">
          <mxGeometry x="2020" y="180" width="40" height="40" as="geometry" />
        </mxCell>
        <mxCell id="bH_OISczCfJRNenOQu4P-224" value="" style="whiteSpace=wrap;html=1;aspect=fixed;fillColor=#ffcccc;strokeColor=#36393d;" vertex="1" parent="WIyWlLk6GJQsqaUBKTNV-1">
          <mxGeometry x="2060" y="180" width="40" height="40" as="geometry" />
        </mxCell>
        <mxCell id="bH_OISczCfJRNenOQu4P-225" value="" style="whiteSpace=wrap;html=1;aspect=fixed;fillColor=#e3c800;fontColor=#000000;strokeColor=#B09500;" vertex="1" parent="WIyWlLk6GJQsqaUBKTNV-1">
          <mxGeometry x="2100" y="180" width="40" height="40" as="geometry" />
        </mxCell>
        <mxCell id="bH_OISczCfJRNenOQu4P-226" value="" style="whiteSpace=wrap;html=1;aspect=fixed;fillColor=#e3c800;fontColor=#000000;strokeColor=#B09500;" vertex="1" parent="WIyWlLk6GJQsqaUBKTNV-1">
          <mxGeometry x="2140" y="180" width="40" height="40" as="geometry" />
        </mxCell>
        <mxCell id="bH_OISczCfJRNenOQu4P-227" value="" style="whiteSpace=wrap;html=1;aspect=fixed;fillColor=#e3c800;fontColor=#000000;strokeColor=#B09500;" vertex="1" parent="WIyWlLk6GJQsqaUBKTNV-1">
          <mxGeometry x="2180" y="180" width="40" height="40" as="geometry" />
        </mxCell>
        <mxCell id="bH_OISczCfJRNenOQu4P-228" value="" style="whiteSpace=wrap;html=1;aspect=fixed;fillColor=#647687;fontColor=#ffffff;strokeColor=#314354;" vertex="1" parent="WIyWlLk6GJQsqaUBKTNV-1">
          <mxGeometry x="2020" y="220" width="40" height="40" as="geometry" />
        </mxCell>
        <mxCell id="bH_OISczCfJRNenOQu4P-229" value="" style="whiteSpace=wrap;html=1;aspect=fixed;fillColor=#ffcccc;strokeColor=#36393d;" vertex="1" parent="WIyWlLk6GJQsqaUBKTNV-1">
          <mxGeometry x="2060" y="220" width="40" height="40" as="geometry" />
        </mxCell>
        <mxCell id="bH_OISczCfJRNenOQu4P-230" value="" style="whiteSpace=wrap;html=1;aspect=fixed;fillColor=#647687;fontColor=#ffffff;strokeColor=#314354;" vertex="1" parent="WIyWlLk6GJQsqaUBKTNV-1">
          <mxGeometry x="2100" y="220" width="40" height="40" as="geometry" />
        </mxCell>
        <mxCell id="bH_OISczCfJRNenOQu4P-231" value="" style="whiteSpace=wrap;html=1;aspect=fixed;fillColor=#ffcccc;strokeColor=#36393d;" vertex="1" parent="WIyWlLk6GJQsqaUBKTNV-1">
          <mxGeometry x="2140" y="220" width="40" height="40" as="geometry" />
        </mxCell>
        <mxCell id="bH_OISczCfJRNenOQu4P-232" value="" style="whiteSpace=wrap;html=1;aspect=fixed;fillColor=#647687;fontColor=#ffffff;strokeColor=#314354;" vertex="1" parent="WIyWlLk6GJQsqaUBKTNV-1">
          <mxGeometry x="2180" y="220" width="40" height="40" as="geometry" />
        </mxCell>
        <mxCell id="bH_OISczCfJRNenOQu4P-233" value="" style="whiteSpace=wrap;html=1;aspect=fixed;fillColor=#647687;fontColor=#ffffff;strokeColor=#314354;" vertex="1" parent="WIyWlLk6GJQsqaUBKTNV-1">
          <mxGeometry x="2020" y="260" width="40" height="40" as="geometry" />
        </mxCell>
        <mxCell id="bH_OISczCfJRNenOQu4P-234" value="" style="whiteSpace=wrap;html=1;aspect=fixed;fillColor=#ffcccc;strokeColor=#36393d;" vertex="1" parent="WIyWlLk6GJQsqaUBKTNV-1">
          <mxGeometry x="2060" y="260" width="40" height="40" as="geometry" />
        </mxCell>
        <mxCell id="bH_OISczCfJRNenOQu4P-235" value="" style="whiteSpace=wrap;html=1;aspect=fixed;fillColor=#ffcccc;strokeColor=#36393d;" vertex="1" parent="WIyWlLk6GJQsqaUBKTNV-1">
          <mxGeometry x="2100" y="260" width="40" height="40" as="geometry" />
        </mxCell>
        <mxCell id="bH_OISczCfJRNenOQu4P-236" value="" style="whiteSpace=wrap;html=1;aspect=fixed;fillColor=#ffcccc;strokeColor=#36393d;" vertex="1" parent="WIyWlLk6GJQsqaUBKTNV-1">
          <mxGeometry x="2140" y="260" width="40" height="40" as="geometry" />
        </mxCell>
        <mxCell id="bH_OISczCfJRNenOQu4P-237" value="" style="whiteSpace=wrap;html=1;aspect=fixed;fillColor=#647687;fontColor=#ffffff;strokeColor=#314354;" vertex="1" parent="WIyWlLk6GJQsqaUBKTNV-1">
          <mxGeometry x="2180" y="260" width="40" height="40" as="geometry" />
        </mxCell>
        <mxCell id="bH_OISczCfJRNenOQu4P-238" value="" style="ellipse;whiteSpace=wrap;html=1;aspect=fixed;fillColor=#e6d0de;gradientColor=#d5739d;strokeColor=#996185;" vertex="1" parent="WIyWlLk6GJQsqaUBKTNV-1">
          <mxGeometry x="2070" y="150" width="20" height="20" as="geometry" />
        </mxCell>
        <mxCell id="bH_OISczCfJRNenOQu4P-239" value="" style="ellipse;whiteSpace=wrap;html=1;aspect=fixed;fillColor=#dae8fc;gradientColor=#7ea6e0;strokeColor=#6c8ebf;" vertex="1" parent="WIyWlLk6GJQsqaUBKTNV-1">
          <mxGeometry x="2190" y="190" width="20" height="20" as="geometry" />
        </mxCell>
        <mxCell id="bH_OISczCfJRNenOQu4P-240" value="0,0" style="text;html=1;strokeColor=none;fillColor=none;align=center;verticalAlign=middle;whiteSpace=wrap;rounded=0;" vertex="1" parent="WIyWlLk6GJQsqaUBKTNV-1">
          <mxGeometry x="2020" y="260" width="40" height="40" as="geometry" />
        </mxCell>
        <mxCell id="bH_OISczCfJRNenOQu4P-241" value="4,3" style="text;html=1;strokeColor=none;fillColor=none;align=center;verticalAlign=middle;whiteSpace=wrap;rounded=0;" vertex="1" parent="WIyWlLk6GJQsqaUBKTNV-1">
          <mxGeometry x="2180" y="140" width="40" height="40" as="geometry" />
        </mxCell>
        <mxCell id="bH_OISczCfJRNenOQu4P-242" value="3, 1" style="rounded=0;whiteSpace=wrap;html=1;fillColor=#ffcd28;gradientColor=#ffa500;strokeColor=#d79b00;" vertex="1" parent="WIyWlLk6GJQsqaUBKTNV-1">
          <mxGeometry x="2109" y="110" width="40" height="20" as="geometry" />
        </mxCell>
        <mxCell id="bH_OISczCfJRNenOQu4P-243" value="Stack" style="text;html=1;strokeColor=#82b366;fillColor=#d5e8d4;align=center;verticalAlign=middle;whiteSpace=wrap;rounded=0;rotation=0;gradientColor=#97d077;" vertex="1" parent="WIyWlLk6GJQsqaUBKTNV-1">
          <mxGeometry x="2100" y="380" width="40" height="20" as="geometry" />
        </mxCell>
        <mxCell id="bH_OISczCfJRNenOQu4P-244" value="2, 2" style="rounded=0;whiteSpace=wrap;html=1;" vertex="1" parent="WIyWlLk6GJQsqaUBKTNV-1">
          <mxGeometry x="2100" y="360" width="40" height="20" as="geometry" />
        </mxCell>
        <mxCell id="bH_OISczCfJRNenOQu4P-247" value="Stack!" style="text;html=1;strokeColor=#82b366;fillColor=#d5e8d4;align=center;verticalAlign=middle;whiteSpace=wrap;rounded=0;rotation=-25;gradientColor=#97d077;" vertex="1" parent="WIyWlLk6GJQsqaUBKTNV-1">
          <mxGeometry x="2140" y="190" width="40" height="20" as="geometry" />
        </mxCell>
        <mxCell id="bH_OISczCfJRNenOQu4P-248" value="3, 2" style="rounded=0;whiteSpace=wrap;html=1;" vertex="1" parent="WIyWlLk6GJQsqaUBKTNV-1">
          <mxGeometry x="2100" y="340" width="40" height="20" as="geometry" />
        </mxCell>
        <mxCell id="bH_OISczCfJRNenOQu4P-249" value="" style="whiteSpace=wrap;html=1;aspect=fixed;fillColor=#647687;fontColor=#ffffff;strokeColor=#314354;" vertex="1" parent="WIyWlLk6GJQsqaUBKTNV-1">
          <mxGeometry x="2270" y="140" width="40" height="40" as="geometry" />
        </mxCell>
        <mxCell id="bH_OISczCfJRNenOQu4P-250" value="" style="whiteSpace=wrap;html=1;aspect=fixed;fillColor=#ffcccc;strokeColor=#36393d;" vertex="1" parent="WIyWlLk6GJQsqaUBKTNV-1">
          <mxGeometry x="2310" y="140" width="40" height="40" as="geometry" />
        </mxCell>
        <mxCell id="bH_OISczCfJRNenOQu4P-251" value="" style="whiteSpace=wrap;html=1;aspect=fixed;fillColor=#647687;fontColor=#ffffff;strokeColor=#314354;" vertex="1" parent="WIyWlLk6GJQsqaUBKTNV-1">
          <mxGeometry x="2350" y="140" width="40" height="40" as="geometry" />
        </mxCell>
        <mxCell id="bH_OISczCfJRNenOQu4P-252" value="" style="whiteSpace=wrap;html=1;aspect=fixed;fillColor=#647687;fontColor=#ffffff;strokeColor=#314354;" vertex="1" parent="WIyWlLk6GJQsqaUBKTNV-1">
          <mxGeometry x="2390" y="140" width="40" height="40" as="geometry" />
        </mxCell>
        <mxCell id="bH_OISczCfJRNenOQu4P-253" value="" style="whiteSpace=wrap;html=1;aspect=fixed;fillColor=#647687;fontColor=#ffffff;strokeColor=#314354;" vertex="1" parent="WIyWlLk6GJQsqaUBKTNV-1">
          <mxGeometry x="2430" y="140" width="40" height="40" as="geometry" />
        </mxCell>
        <mxCell id="bH_OISczCfJRNenOQu4P-254" value="" style="whiteSpace=wrap;html=1;aspect=fixed;fillColor=#647687;fontColor=#ffffff;strokeColor=#314354;" vertex="1" parent="WIyWlLk6GJQsqaUBKTNV-1">
          <mxGeometry x="2270" y="180" width="40" height="40" as="geometry" />
        </mxCell>
        <mxCell id="bH_OISczCfJRNenOQu4P-255" value="" style="whiteSpace=wrap;html=1;aspect=fixed;fillColor=#ffcccc;strokeColor=#36393d;" vertex="1" parent="WIyWlLk6GJQsqaUBKTNV-1">
          <mxGeometry x="2310" y="180" width="40" height="40" as="geometry" />
        </mxCell>
        <mxCell id="bH_OISczCfJRNenOQu4P-256" value="" style="whiteSpace=wrap;html=1;aspect=fixed;fillColor=#e3c800;fontColor=#000000;strokeColor=#B09500;" vertex="1" parent="WIyWlLk6GJQsqaUBKTNV-1">
          <mxGeometry x="2350" y="180" width="40" height="40" as="geometry" />
        </mxCell>
        <mxCell id="bH_OISczCfJRNenOQu4P-257" value="" style="whiteSpace=wrap;html=1;aspect=fixed;fillColor=#ffcccc;strokeColor=#36393d;" vertex="1" parent="WIyWlLk6GJQsqaUBKTNV-1">
          <mxGeometry x="2390" y="180" width="40" height="40" as="geometry" />
        </mxCell>
        <mxCell id="bH_OISczCfJRNenOQu4P-258" value="" style="whiteSpace=wrap;html=1;aspect=fixed;fillColor=#e3c800;fontColor=#000000;strokeColor=#B09500;" vertex="1" parent="WIyWlLk6GJQsqaUBKTNV-1">
          <mxGeometry x="2430" y="180" width="40" height="40" as="geometry" />
        </mxCell>
        <mxCell id="bH_OISczCfJRNenOQu4P-259" value="" style="whiteSpace=wrap;html=1;aspect=fixed;fillColor=#647687;fontColor=#ffffff;strokeColor=#314354;" vertex="1" parent="WIyWlLk6GJQsqaUBKTNV-1">
          <mxGeometry x="2270" y="220" width="40" height="40" as="geometry" />
        </mxCell>
        <mxCell id="bH_OISczCfJRNenOQu4P-260" value="" style="whiteSpace=wrap;html=1;aspect=fixed;fillColor=#ffcccc;strokeColor=#36393d;" vertex="1" parent="WIyWlLk6GJQsqaUBKTNV-1">
          <mxGeometry x="2310" y="220" width="40" height="40" as="geometry" />
        </mxCell>
        <mxCell id="bH_OISczCfJRNenOQu4P-261" value="" style="whiteSpace=wrap;html=1;aspect=fixed;fillColor=#647687;fontColor=#ffffff;strokeColor=#314354;" vertex="1" parent="WIyWlLk6GJQsqaUBKTNV-1">
          <mxGeometry x="2350" y="220" width="40" height="40" as="geometry" />
        </mxCell>
        <mxCell id="bH_OISczCfJRNenOQu4P-262" value="" style="whiteSpace=wrap;html=1;aspect=fixed;fillColor=#ffcccc;strokeColor=#36393d;" vertex="1" parent="WIyWlLk6GJQsqaUBKTNV-1">
          <mxGeometry x="2390" y="220" width="40" height="40" as="geometry" />
        </mxCell>
        <mxCell id="bH_OISczCfJRNenOQu4P-263" value="" style="whiteSpace=wrap;html=1;aspect=fixed;fillColor=#647687;fontColor=#ffffff;strokeColor=#314354;" vertex="1" parent="WIyWlLk6GJQsqaUBKTNV-1">
          <mxGeometry x="2430" y="220" width="40" height="40" as="geometry" />
        </mxCell>
        <mxCell id="bH_OISczCfJRNenOQu4P-264" value="" style="whiteSpace=wrap;html=1;aspect=fixed;fillColor=#647687;fontColor=#ffffff;strokeColor=#314354;" vertex="1" parent="WIyWlLk6GJQsqaUBKTNV-1">
          <mxGeometry x="2270" y="260" width="40" height="40" as="geometry" />
        </mxCell>
        <mxCell id="bH_OISczCfJRNenOQu4P-265" value="" style="whiteSpace=wrap;html=1;aspect=fixed;fillColor=#ffcccc;strokeColor=#36393d;" vertex="1" parent="WIyWlLk6GJQsqaUBKTNV-1">
          <mxGeometry x="2310" y="260" width="40" height="40" as="geometry" />
        </mxCell>
        <mxCell id="bH_OISczCfJRNenOQu4P-266" value="" style="whiteSpace=wrap;html=1;aspect=fixed;fillColor=#ffcccc;strokeColor=#36393d;" vertex="1" parent="WIyWlLk6GJQsqaUBKTNV-1">
          <mxGeometry x="2350" y="260" width="40" height="40" as="geometry" />
        </mxCell>
        <mxCell id="bH_OISczCfJRNenOQu4P-267" value="" style="whiteSpace=wrap;html=1;aspect=fixed;fillColor=#ffcccc;strokeColor=#36393d;" vertex="1" parent="WIyWlLk6GJQsqaUBKTNV-1">
          <mxGeometry x="2390" y="260" width="40" height="40" as="geometry" />
        </mxCell>
        <mxCell id="bH_OISczCfJRNenOQu4P-268" value="" style="whiteSpace=wrap;html=1;aspect=fixed;fillColor=#647687;fontColor=#ffffff;strokeColor=#314354;" vertex="1" parent="WIyWlLk6GJQsqaUBKTNV-1">
          <mxGeometry x="2430" y="260" width="40" height="40" as="geometry" />
        </mxCell>
        <mxCell id="bH_OISczCfJRNenOQu4P-269" value="" style="ellipse;whiteSpace=wrap;html=1;aspect=fixed;fillColor=#e6d0de;gradientColor=#d5739d;strokeColor=#996185;" vertex="1" parent="WIyWlLk6GJQsqaUBKTNV-1">
          <mxGeometry x="2320" y="150" width="20" height="20" as="geometry" />
        </mxCell>
        <mxCell id="bH_OISczCfJRNenOQu4P-270" value="" style="ellipse;whiteSpace=wrap;html=1;aspect=fixed;fillColor=#dae8fc;gradientColor=#7ea6e0;strokeColor=#6c8ebf;" vertex="1" parent="WIyWlLk6GJQsqaUBKTNV-1">
          <mxGeometry x="2440" y="190" width="20" height="20" as="geometry" />
        </mxCell>
        <mxCell id="bH_OISczCfJRNenOQu4P-271" value="0,0" style="text;html=1;strokeColor=none;fillColor=none;align=center;verticalAlign=middle;whiteSpace=wrap;rounded=0;" vertex="1" parent="WIyWlLk6GJQsqaUBKTNV-1">
          <mxGeometry x="2270" y="260" width="40" height="40" as="geometry" />
        </mxCell>
        <mxCell id="bH_OISczCfJRNenOQu4P-272" value="4,3" style="text;html=1;strokeColor=none;fillColor=none;align=center;verticalAlign=middle;whiteSpace=wrap;rounded=0;" vertex="1" parent="WIyWlLk6GJQsqaUBKTNV-1">
          <mxGeometry x="2430" y="140" width="40" height="40" as="geometry" />
        </mxCell>
        <mxCell id="bH_OISczCfJRNenOQu4P-273" value="3, 2" style="rounded=0;whiteSpace=wrap;html=1;fillColor=#ffcd28;gradientColor=#ffa500;strokeColor=#d79b00;" vertex="1" parent="WIyWlLk6GJQsqaUBKTNV-1">
          <mxGeometry x="2359" y="110" width="40" height="20" as="geometry" />
        </mxCell>
        <mxCell id="bH_OISczCfJRNenOQu4P-274" value="Stack" style="text;html=1;strokeColor=#82b366;fillColor=#d5e8d4;align=center;verticalAlign=middle;whiteSpace=wrap;rounded=0;rotation=0;gradientColor=#97d077;" vertex="1" parent="WIyWlLk6GJQsqaUBKTNV-1">
          <mxGeometry x="2350" y="380" width="40" height="20" as="geometry" />
        </mxCell>
        <mxCell id="bH_OISczCfJRNenOQu4P-275" value="2, 2" style="rounded=0;whiteSpace=wrap;html=1;" vertex="1" parent="WIyWlLk6GJQsqaUBKTNV-1">
          <mxGeometry x="2350" y="360" width="40" height="20" as="geometry" />
        </mxCell>
        <mxCell id="bH_OISczCfJRNenOQu4P-278" value="4, 2" style="rounded=0;whiteSpace=wrap;html=1;" vertex="1" parent="WIyWlLk6GJQsqaUBKTNV-1">
          <mxGeometry x="2350" y="340" width="40" height="20" as="geometry" />
        </mxCell>
        <mxCell id="bH_OISczCfJRNenOQu4P-279" value="Stack!" style="text;html=1;strokeColor=#82b366;fillColor=#d5e8d4;align=center;verticalAlign=middle;whiteSpace=wrap;rounded=0;rotation=-25;gradientColor=#97d077;" vertex="1" parent="WIyWlLk6GJQsqaUBKTNV-1">
          <mxGeometry x="2430" y="190" width="40" height="20" as="geometry" />
        </mxCell>
        <mxCell id="bH_OISczCfJRNenOQu4P-280" value="Stack!" style="text;html=1;strokeColor=#82b366;fillColor=#d5e8d4;align=center;verticalAlign=middle;whiteSpace=wrap;rounded=0;rotation=-25;gradientColor=#97d077;" vertex="1" parent="WIyWlLk6GJQsqaUBKTNV-1">
          <mxGeometry x="2350" y="190" width="40" height="20" as="geometry" />
        </mxCell>
        <mxCell id="bH_OISczCfJRNenOQu4P-281" value="2, 2" style="rounded=0;whiteSpace=wrap;html=1;" vertex="1" parent="WIyWlLk6GJQsqaUBKTNV-1">
          <mxGeometry x="2350" y="320" width="40" height="20" as="geometry" />
        </mxCell>
        <mxCell id="bH_OISczCfJRNenOQu4P-282" value="" style="whiteSpace=wrap;html=1;aspect=fixed;fillColor=#647687;fontColor=#ffffff;strokeColor=#314354;" vertex="1" parent="WIyWlLk6GJQsqaUBKTNV-1">
          <mxGeometry x="2510" y="140" width="40" height="40" as="geometry" />
        </mxCell>
        <mxCell id="bH_OISczCfJRNenOQu4P-283" value="" style="whiteSpace=wrap;html=1;aspect=fixed;fillColor=#ffcccc;strokeColor=#36393d;" vertex="1" parent="WIyWlLk6GJQsqaUBKTNV-1">
          <mxGeometry x="2550" y="140" width="40" height="40" as="geometry" />
        </mxCell>
        <mxCell id="bH_OISczCfJRNenOQu4P-284" value="" style="whiteSpace=wrap;html=1;aspect=fixed;fillColor=#647687;fontColor=#ffffff;strokeColor=#314354;" vertex="1" parent="WIyWlLk6GJQsqaUBKTNV-1">
          <mxGeometry x="2590" y="140" width="40" height="40" as="geometry" />
        </mxCell>
        <mxCell id="bH_OISczCfJRNenOQu4P-285" value="" style="whiteSpace=wrap;html=1;aspect=fixed;fillColor=#647687;fontColor=#ffffff;strokeColor=#314354;" vertex="1" parent="WIyWlLk6GJQsqaUBKTNV-1">
          <mxGeometry x="2630" y="140" width="40" height="40" as="geometry" />
        </mxCell>
        <mxCell id="bH_OISczCfJRNenOQu4P-286" value="" style="whiteSpace=wrap;html=1;aspect=fixed;fillColor=#647687;fontColor=#ffffff;strokeColor=#314354;" vertex="1" parent="WIyWlLk6GJQsqaUBKTNV-1">
          <mxGeometry x="2670" y="140" width="40" height="40" as="geometry" />
        </mxCell>
        <mxCell id="bH_OISczCfJRNenOQu4P-287" value="" style="whiteSpace=wrap;html=1;aspect=fixed;fillColor=#647687;fontColor=#ffffff;strokeColor=#314354;" vertex="1" parent="WIyWlLk6GJQsqaUBKTNV-1">
          <mxGeometry x="2510" y="180" width="40" height="40" as="geometry" />
        </mxCell>
        <mxCell id="bH_OISczCfJRNenOQu4P-288" value="" style="whiteSpace=wrap;html=1;aspect=fixed;fillColor=#ffcccc;strokeColor=#36393d;" vertex="1" parent="WIyWlLk6GJQsqaUBKTNV-1">
          <mxGeometry x="2550" y="180" width="40" height="40" as="geometry" />
        </mxCell>
        <mxCell id="bH_OISczCfJRNenOQu4P-289" value="" style="whiteSpace=wrap;html=1;aspect=fixed;fillColor=#ffcccc;strokeColor=#36393d;" vertex="1" parent="WIyWlLk6GJQsqaUBKTNV-1">
          <mxGeometry x="2590" y="180" width="40" height="40" as="geometry" />
        </mxCell>
        <mxCell id="bH_OISczCfJRNenOQu4P-290" value="" style="whiteSpace=wrap;html=1;aspect=fixed;fillColor=#ffcccc;strokeColor=#36393d;" vertex="1" parent="WIyWlLk6GJQsqaUBKTNV-1">
          <mxGeometry x="2630" y="180" width="40" height="40" as="geometry" />
        </mxCell>
        <mxCell id="bH_OISczCfJRNenOQu4P-291" value="" style="whiteSpace=wrap;html=1;aspect=fixed;fillColor=#e3c800;fontColor=#000000;strokeColor=#B09500;" vertex="1" parent="WIyWlLk6GJQsqaUBKTNV-1">
          <mxGeometry x="2670" y="180" width="40" height="40" as="geometry" />
        </mxCell>
        <mxCell id="bH_OISczCfJRNenOQu4P-292" value="" style="whiteSpace=wrap;html=1;aspect=fixed;fillColor=#647687;fontColor=#ffffff;strokeColor=#314354;" vertex="1" parent="WIyWlLk6GJQsqaUBKTNV-1">
          <mxGeometry x="2510" y="220" width="40" height="40" as="geometry" />
        </mxCell>
        <mxCell id="bH_OISczCfJRNenOQu4P-293" value="" style="whiteSpace=wrap;html=1;aspect=fixed;fillColor=#ffcccc;strokeColor=#36393d;" vertex="1" parent="WIyWlLk6GJQsqaUBKTNV-1">
          <mxGeometry x="2550" y="220" width="40" height="40" as="geometry" />
        </mxCell>
        <mxCell id="bH_OISczCfJRNenOQu4P-294" value="" style="whiteSpace=wrap;html=1;aspect=fixed;fillColor=#647687;fontColor=#ffffff;strokeColor=#314354;" vertex="1" parent="WIyWlLk6GJQsqaUBKTNV-1">
          <mxGeometry x="2590" y="220" width="40" height="40" as="geometry" />
        </mxCell>
        <mxCell id="bH_OISczCfJRNenOQu4P-295" value="" style="whiteSpace=wrap;html=1;aspect=fixed;fillColor=#ffcccc;strokeColor=#36393d;" vertex="1" parent="WIyWlLk6GJQsqaUBKTNV-1">
          <mxGeometry x="2630" y="220" width="40" height="40" as="geometry" />
        </mxCell>
        <mxCell id="bH_OISczCfJRNenOQu4P-296" value="" style="whiteSpace=wrap;html=1;aspect=fixed;fillColor=#647687;fontColor=#ffffff;strokeColor=#314354;" vertex="1" parent="WIyWlLk6GJQsqaUBKTNV-1">
          <mxGeometry x="2670" y="220" width="40" height="40" as="geometry" />
        </mxCell>
        <mxCell id="bH_OISczCfJRNenOQu4P-297" value="" style="whiteSpace=wrap;html=1;aspect=fixed;fillColor=#647687;fontColor=#ffffff;strokeColor=#314354;" vertex="1" parent="WIyWlLk6GJQsqaUBKTNV-1">
          <mxGeometry x="2510" y="260" width="40" height="40" as="geometry" />
        </mxCell>
        <mxCell id="bH_OISczCfJRNenOQu4P-298" value="" style="whiteSpace=wrap;html=1;aspect=fixed;fillColor=#ffcccc;strokeColor=#36393d;" vertex="1" parent="WIyWlLk6GJQsqaUBKTNV-1">
          <mxGeometry x="2550" y="260" width="40" height="40" as="geometry" />
        </mxCell>
        <mxCell id="bH_OISczCfJRNenOQu4P-299" value="" style="whiteSpace=wrap;html=1;aspect=fixed;fillColor=#ffcccc;strokeColor=#36393d;" vertex="1" parent="WIyWlLk6GJQsqaUBKTNV-1">
          <mxGeometry x="2590" y="260" width="40" height="40" as="geometry" />
        </mxCell>
        <mxCell id="bH_OISczCfJRNenOQu4P-300" value="" style="whiteSpace=wrap;html=1;aspect=fixed;fillColor=#ffcccc;strokeColor=#36393d;" vertex="1" parent="WIyWlLk6GJQsqaUBKTNV-1">
          <mxGeometry x="2630" y="260" width="40" height="40" as="geometry" />
        </mxCell>
        <mxCell id="bH_OISczCfJRNenOQu4P-301" value="" style="whiteSpace=wrap;html=1;aspect=fixed;fillColor=#647687;fontColor=#ffffff;strokeColor=#314354;" vertex="1" parent="WIyWlLk6GJQsqaUBKTNV-1">
          <mxGeometry x="2670" y="260" width="40" height="40" as="geometry" />
        </mxCell>
        <mxCell id="bH_OISczCfJRNenOQu4P-302" value="" style="ellipse;whiteSpace=wrap;html=1;aspect=fixed;fillColor=#e6d0de;gradientColor=#d5739d;strokeColor=#996185;" vertex="1" parent="WIyWlLk6GJQsqaUBKTNV-1">
          <mxGeometry x="2560" y="150" width="20" height="20" as="geometry" />
        </mxCell>
        <mxCell id="bH_OISczCfJRNenOQu4P-303" value="" style="ellipse;whiteSpace=wrap;html=1;aspect=fixed;fillColor=#dae8fc;gradientColor=#7ea6e0;strokeColor=#6c8ebf;" vertex="1" parent="WIyWlLk6GJQsqaUBKTNV-1">
          <mxGeometry x="2680" y="190" width="20" height="20" as="geometry" />
        </mxCell>
        <mxCell id="bH_OISczCfJRNenOQu4P-304" value="0,0" style="text;html=1;strokeColor=none;fillColor=none;align=center;verticalAlign=middle;whiteSpace=wrap;rounded=0;" vertex="1" parent="WIyWlLk6GJQsqaUBKTNV-1">
          <mxGeometry x="2510" y="260" width="40" height="40" as="geometry" />
        </mxCell>
        <mxCell id="bH_OISczCfJRNenOQu4P-305" value="4,3" style="text;html=1;strokeColor=none;fillColor=none;align=center;verticalAlign=middle;whiteSpace=wrap;rounded=0;" vertex="1" parent="WIyWlLk6GJQsqaUBKTNV-1">
          <mxGeometry x="2670" y="140" width="40" height="40" as="geometry" />
        </mxCell>
        <mxCell id="bH_OISczCfJRNenOQu4P-306" value="2, 2" style="rounded=0;whiteSpace=wrap;html=1;fillColor=#ffcd28;gradientColor=#ffa500;strokeColor=#d79b00;" vertex="1" parent="WIyWlLk6GJQsqaUBKTNV-1">
          <mxGeometry x="2599" y="110" width="40" height="20" as="geometry" />
        </mxCell>
        <mxCell id="bH_OISczCfJRNenOQu4P-307" value="Stack" style="text;html=1;strokeColor=#82b366;fillColor=#d5e8d4;align=center;verticalAlign=middle;whiteSpace=wrap;rounded=0;rotation=0;gradientColor=#97d077;" vertex="1" parent="WIyWlLk6GJQsqaUBKTNV-1">
          <mxGeometry x="2590" y="380" width="40" height="20" as="geometry" />
        </mxCell>
        <mxCell id="bH_OISczCfJRNenOQu4P-308" value="2, 2" style="rounded=0;whiteSpace=wrap;html=1;" vertex="1" parent="WIyWlLk6GJQsqaUBKTNV-1">
          <mxGeometry x="2590" y="360" width="40" height="20" as="geometry" />
        </mxCell>
        <mxCell id="bH_OISczCfJRNenOQu4P-338" value="" style="whiteSpace=wrap;html=1;aspect=fixed;fillColor=#647687;fontColor=#ffffff;strokeColor=#314354;" vertex="1" parent="WIyWlLk6GJQsqaUBKTNV-1">
          <mxGeometry x="2750" y="140" width="40" height="40" as="geometry" />
        </mxCell>
        <mxCell id="bH_OISczCfJRNenOQu4P-339" value="" style="whiteSpace=wrap;html=1;aspect=fixed;fillColor=#b0e3e6;strokeColor=#0e8088;" vertex="1" parent="WIyWlLk6GJQsqaUBKTNV-1">
          <mxGeometry x="2790" y="140" width="40" height="40" as="geometry" />
        </mxCell>
        <mxCell id="bH_OISczCfJRNenOQu4P-340" value="" style="whiteSpace=wrap;html=1;aspect=fixed;fillColor=#647687;fontColor=#ffffff;strokeColor=#314354;" vertex="1" parent="WIyWlLk6GJQsqaUBKTNV-1">
          <mxGeometry x="2830" y="140" width="40" height="40" as="geometry" />
        </mxCell>
        <mxCell id="bH_OISczCfJRNenOQu4P-341" value="" style="whiteSpace=wrap;html=1;aspect=fixed;fillColor=#647687;fontColor=#ffffff;strokeColor=#314354;" vertex="1" parent="WIyWlLk6GJQsqaUBKTNV-1">
          <mxGeometry x="2870" y="140" width="40" height="40" as="geometry" />
        </mxCell>
        <mxCell id="bH_OISczCfJRNenOQu4P-342" value="" style="whiteSpace=wrap;html=1;aspect=fixed;fillColor=#647687;fontColor=#ffffff;strokeColor=#314354;" vertex="1" parent="WIyWlLk6GJQsqaUBKTNV-1">
          <mxGeometry x="2910" y="140" width="40" height="40" as="geometry" />
        </mxCell>
        <mxCell id="bH_OISczCfJRNenOQu4P-343" value="" style="whiteSpace=wrap;html=1;aspect=fixed;fillColor=#647687;fontColor=#ffffff;strokeColor=#314354;" vertex="1" parent="WIyWlLk6GJQsqaUBKTNV-1">
          <mxGeometry x="2750" y="180" width="40" height="40" as="geometry" />
        </mxCell>
        <mxCell id="bH_OISczCfJRNenOQu4P-344" value="" style="whiteSpace=wrap;html=1;aspect=fixed;fillColor=#b0e3e6;strokeColor=#0e8088;" vertex="1" parent="WIyWlLk6GJQsqaUBKTNV-1">
          <mxGeometry x="2790" y="180" width="40" height="40" as="geometry" />
        </mxCell>
        <mxCell id="bH_OISczCfJRNenOQu4P-345" value="" style="whiteSpace=wrap;html=1;aspect=fixed;fillColor=#ffcccc;strokeColor=#36393d;" vertex="1" parent="WIyWlLk6GJQsqaUBKTNV-1">
          <mxGeometry x="2830" y="180" width="40" height="40" as="geometry" />
        </mxCell>
        <mxCell id="bH_OISczCfJRNenOQu4P-346" value="" style="whiteSpace=wrap;html=1;aspect=fixed;fillColor=#b0e3e6;strokeColor=#0e8088;" vertex="1" parent="WIyWlLk6GJQsqaUBKTNV-1">
          <mxGeometry x="2870" y="180" width="40" height="40" as="geometry" />
        </mxCell>
        <mxCell id="bH_OISczCfJRNenOQu4P-347" value="" style="whiteSpace=wrap;html=1;aspect=fixed;fillColor=#b0e3e6;strokeColor=#0e8088;" vertex="1" parent="WIyWlLk6GJQsqaUBKTNV-1">
          <mxGeometry x="2910" y="180" width="40" height="40" as="geometry" />
        </mxCell>
        <mxCell id="bH_OISczCfJRNenOQu4P-348" value="" style="whiteSpace=wrap;html=1;aspect=fixed;fillColor=#647687;fontColor=#ffffff;strokeColor=#314354;" vertex="1" parent="WIyWlLk6GJQsqaUBKTNV-1">
          <mxGeometry x="2750" y="220" width="40" height="40" as="geometry" />
        </mxCell>
        <mxCell id="bH_OISczCfJRNenOQu4P-349" value="" style="whiteSpace=wrap;html=1;aspect=fixed;fillColor=#b0e3e6;strokeColor=#0e8088;" vertex="1" parent="WIyWlLk6GJQsqaUBKTNV-1">
          <mxGeometry x="2790" y="220" width="40" height="40" as="geometry" />
        </mxCell>
        <mxCell id="bH_OISczCfJRNenOQu4P-350" value="" style="whiteSpace=wrap;html=1;aspect=fixed;fillColor=#647687;fontColor=#ffffff;strokeColor=#314354;" vertex="1" parent="WIyWlLk6GJQsqaUBKTNV-1">
          <mxGeometry x="2830" y="220" width="40" height="40" as="geometry" />
        </mxCell>
        <mxCell id="bH_OISczCfJRNenOQu4P-351" value="" style="whiteSpace=wrap;html=1;aspect=fixed;fillColor=#b0e3e6;strokeColor=#0e8088;" vertex="1" parent="WIyWlLk6GJQsqaUBKTNV-1">
          <mxGeometry x="2870" y="220" width="40" height="40" as="geometry" />
        </mxCell>
        <mxCell id="bH_OISczCfJRNenOQu4P-352" value="" style="whiteSpace=wrap;html=1;aspect=fixed;fillColor=#647687;fontColor=#ffffff;strokeColor=#314354;" vertex="1" parent="WIyWlLk6GJQsqaUBKTNV-1">
          <mxGeometry x="2910" y="220" width="40" height="40" as="geometry" />
        </mxCell>
        <mxCell id="bH_OISczCfJRNenOQu4P-353" value="" style="whiteSpace=wrap;html=1;aspect=fixed;fillColor=#647687;fontColor=#ffffff;strokeColor=#314354;" vertex="1" parent="WIyWlLk6GJQsqaUBKTNV-1">
          <mxGeometry x="2750" y="260" width="40" height="40" as="geometry" />
        </mxCell>
        <mxCell id="bH_OISczCfJRNenOQu4P-354" value="" style="whiteSpace=wrap;html=1;aspect=fixed;fillColor=#b0e3e6;strokeColor=#0e8088;" vertex="1" parent="WIyWlLk6GJQsqaUBKTNV-1">
          <mxGeometry x="2790" y="260" width="40" height="40" as="geometry" />
        </mxCell>
        <mxCell id="bH_OISczCfJRNenOQu4P-355" value="" style="whiteSpace=wrap;html=1;aspect=fixed;fillColor=#b0e3e6;strokeColor=#0e8088;" vertex="1" parent="WIyWlLk6GJQsqaUBKTNV-1">
          <mxGeometry x="2830" y="260" width="40" height="40" as="geometry" />
        </mxCell>
        <mxCell id="bH_OISczCfJRNenOQu4P-356" value="" style="whiteSpace=wrap;html=1;aspect=fixed;fillColor=#b0e3e6;strokeColor=#0e8088;" vertex="1" parent="WIyWlLk6GJQsqaUBKTNV-1">
          <mxGeometry x="2870" y="260" width="40" height="40" as="geometry" />
        </mxCell>
        <mxCell id="bH_OISczCfJRNenOQu4P-357" value="" style="whiteSpace=wrap;html=1;aspect=fixed;fillColor=#647687;fontColor=#ffffff;strokeColor=#314354;" vertex="1" parent="WIyWlLk6GJQsqaUBKTNV-1">
          <mxGeometry x="2910" y="260" width="40" height="40" as="geometry" />
        </mxCell>
        <mxCell id="bH_OISczCfJRNenOQu4P-358" value="" style="ellipse;whiteSpace=wrap;html=1;aspect=fixed;fillColor=#e6d0de;gradientColor=#d5739d;strokeColor=#996185;" vertex="1" parent="WIyWlLk6GJQsqaUBKTNV-1">
          <mxGeometry x="2800" y="150" width="20" height="20" as="geometry" />
        </mxCell>
        <mxCell id="bH_OISczCfJRNenOQu4P-359" value="" style="ellipse;whiteSpace=wrap;html=1;aspect=fixed;fillColor=#dae8fc;gradientColor=#7ea6e0;strokeColor=#6c8ebf;" vertex="1" parent="WIyWlLk6GJQsqaUBKTNV-1">
          <mxGeometry x="2920" y="190" width="20" height="20" as="geometry" />
        </mxCell>
        <mxCell id="bH_OISczCfJRNenOQu4P-360" value="0,0" style="text;html=1;strokeColor=none;fillColor=none;align=center;verticalAlign=middle;whiteSpace=wrap;rounded=0;" vertex="1" parent="WIyWlLk6GJQsqaUBKTNV-1">
          <mxGeometry x="2750" y="260" width="40" height="40" as="geometry" />
        </mxCell>
        <mxCell id="bH_OISczCfJRNenOQu4P-361" value="4,3" style="text;html=1;strokeColor=none;fillColor=none;align=center;verticalAlign=middle;whiteSpace=wrap;rounded=0;" vertex="1" parent="WIyWlLk6GJQsqaUBKTNV-1">
          <mxGeometry x="2910" y="140" width="40" height="40" as="geometry" />
        </mxCell>
        <mxCell id="bH_OISczCfJRNenOQu4P-362" value="4, 2" style="rounded=0;whiteSpace=wrap;html=1;fillColor=#ffcd28;gradientColor=#ffa500;strokeColor=#d79b00;" vertex="1" parent="WIyWlLk6GJQsqaUBKTNV-1">
          <mxGeometry x="2839" y="110" width="40" height="20" as="geometry" />
        </mxCell>
        <mxCell id="bH_OISczCfJRNenOQu4P-363" value="Stack" style="text;html=1;strokeColor=#82b366;fillColor=#d5e8d4;align=center;verticalAlign=middle;whiteSpace=wrap;rounded=0;rotation=0;gradientColor=#97d077;" vertex="1" parent="WIyWlLk6GJQsqaUBKTNV-1">
          <mxGeometry x="2839" y="380" width="40" height="20" as="geometry" />
        </mxCell>
        <mxCell id="bH_OISczCfJRNenOQu4P-364" value="2, 2" style="rounded=0;whiteSpace=wrap;html=1;" vertex="1" parent="WIyWlLk6GJQsqaUBKTNV-1">
          <mxGeometry x="2839" y="360" width="40" height="20" as="geometry" />
        </mxCell>
        <mxCell id="bH_OISczCfJRNenOQu4P-365" value="4, 2" style="rounded=0;whiteSpace=wrap;html=1;" vertex="1" parent="WIyWlLk6GJQsqaUBKTNV-1">
          <mxGeometry x="2590" y="340" width="40" height="20" as="geometry" />
        </mxCell>
        <mxCell id="bH_OISczCfJRNenOQu4P-366" value="1, 3" style="rounded=0;whiteSpace=wrap;html=1;fillColor=#dae8fc;gradientColor=#7ea6e0;strokeColor=#6c8ebf;" vertex="1" parent="WIyWlLk6GJQsqaUBKTNV-1">
          <mxGeometry x="2430" y="470" width="40" height="20" as="geometry" />
        </mxCell>
        <mxCell id="bH_OISczCfJRNenOQu4P-367" value="1, 2" style="rounded=0;whiteSpace=wrap;html=1;fillColor=#cdeb8b;strokeColor=#36393d;" vertex="1" parent="WIyWlLk6GJQsqaUBKTNV-1">
          <mxGeometry x="2430" y="490" width="40" height="20" as="geometry" />
        </mxCell>
        <mxCell id="bH_OISczCfJRNenOQu4P-368" value="1, 2" style="rounded=0;whiteSpace=wrap;html=1;" vertex="1" parent="WIyWlLk6GJQsqaUBKTNV-1">
          <mxGeometry x="2470" y="470" width="40" height="20" as="geometry" />
        </mxCell>
        <mxCell id="bH_OISczCfJRNenOQu4P-369" value="2, 2" style="rounded=0;whiteSpace=wrap;html=1;" vertex="1" parent="WIyWlLk6GJQsqaUBKTNV-1">
          <mxGeometry x="2470" y="490" width="40" height="20" as="geometry" />
        </mxCell>
        <mxCell id="bH_OISczCfJRNenOQu4P-370" value="1, 2" style="rounded=0;whiteSpace=wrap;html=1;fillColor=#cdeb8b;strokeColor=#36393d;" vertex="1" parent="WIyWlLk6GJQsqaUBKTNV-1">
          <mxGeometry x="2510" y="470" width="40" height="20" as="geometry" />
        </mxCell>
        <mxCell id="bH_OISczCfJRNenOQu4P-371" value="1, 1" style="rounded=0;whiteSpace=wrap;html=1;fillColor=#cce5ff;strokeColor=#36393d;" vertex="1" parent="WIyWlLk6GJQsqaUBKTNV-1">
          <mxGeometry x="2510" y="490" width="40" height="20" as="geometry" />
        </mxCell>
        <mxCell id="bH_OISczCfJRNenOQu4P-372" value="1, 1" style="rounded=0;whiteSpace=wrap;html=1;fillColor=#cce5ff;strokeColor=#36393d;" vertex="1" parent="WIyWlLk6GJQsqaUBKTNV-1">
          <mxGeometry x="2550" y="470" width="40" height="20" as="geometry" />
        </mxCell>
        <mxCell id="bH_OISczCfJRNenOQu4P-373" value="1, 0" style="rounded=0;whiteSpace=wrap;html=1;fillColor=#cdeb8b;strokeColor=#36393d;" vertex="1" parent="WIyWlLk6GJQsqaUBKTNV-1">
          <mxGeometry x="2550" y="490" width="40" height="20" as="geometry" />
        </mxCell>
        <mxCell id="bH_OISczCfJRNenOQu4P-374" value="1, 0" style="rounded=0;whiteSpace=wrap;html=1;fillColor=#cdeb8b;strokeColor=#36393d;" vertex="1" parent="WIyWlLk6GJQsqaUBKTNV-1">
          <mxGeometry x="2590" y="470" width="40" height="20" as="geometry" />
        </mxCell>
        <mxCell id="bH_OISczCfJRNenOQu4P-375" value="2, 0" style="rounded=0;whiteSpace=wrap;html=1;fillColor=#cce5ff;strokeColor=#36393d;" vertex="1" parent="WIyWlLk6GJQsqaUBKTNV-1">
          <mxGeometry x="2590" y="490" width="40" height="20" as="geometry" />
        </mxCell>
        <mxCell id="bH_OISczCfJRNenOQu4P-376" value="2, 0" style="rounded=0;whiteSpace=wrap;html=1;fillColor=#cce5ff;strokeColor=#36393d;" vertex="1" parent="WIyWlLk6GJQsqaUBKTNV-1">
          <mxGeometry x="2630" y="470" width="40" height="20" as="geometry" />
        </mxCell>
        <mxCell id="bH_OISczCfJRNenOQu4P-377" value="3, 0" style="rounded=0;whiteSpace=wrap;html=1;fillColor=#cdeb8b;strokeColor=#36393d;" vertex="1" parent="WIyWlLk6GJQsqaUBKTNV-1">
          <mxGeometry x="2630" y="490" width="40" height="20" as="geometry" />
        </mxCell>
        <mxCell id="bH_OISczCfJRNenOQu4P-378" value="3, 0" style="rounded=0;whiteSpace=wrap;html=1;fillColor=#cdeb8b;strokeColor=#36393d;" vertex="1" parent="WIyWlLk6GJQsqaUBKTNV-1">
          <mxGeometry x="2670" y="470" width="40" height="20" as="geometry" />
        </mxCell>
        <mxCell id="bH_OISczCfJRNenOQu4P-379" value="3, 1" style="rounded=0;whiteSpace=wrap;html=1;fillColor=#cce5ff;strokeColor=#36393d;" vertex="1" parent="WIyWlLk6GJQsqaUBKTNV-1">
          <mxGeometry x="2670" y="490" width="40" height="20" as="geometry" />
        </mxCell>
        <mxCell id="bH_OISczCfJRNenOQu4P-380" value="3,1" style="rounded=0;whiteSpace=wrap;html=1;fillColor=#cce5ff;strokeColor=#36393d;" vertex="1" parent="WIyWlLk6GJQsqaUBKTNV-1">
          <mxGeometry x="2710" y="470" width="40" height="20" as="geometry" />
        </mxCell>
        <mxCell id="bH_OISczCfJRNenOQu4P-381" value="3, 2" style="rounded=0;whiteSpace=wrap;html=1;fillColor=#cdeb8b;strokeColor=#36393d;" vertex="1" parent="WIyWlLk6GJQsqaUBKTNV-1">
          <mxGeometry x="2710" y="490" width="40" height="20" as="geometry" />
        </mxCell>
        <mxCell id="bH_OISczCfJRNenOQu4P-382" value="3, 2" style="rounded=0;whiteSpace=wrap;html=1;fillColor=#cdeb8b;strokeColor=#36393d;" vertex="1" parent="WIyWlLk6GJQsqaUBKTNV-1">
          <mxGeometry x="2750" y="470" width="40" height="20" as="geometry" />
        </mxCell>
        <mxCell id="bH_OISczCfJRNenOQu4P-383" value="4, 2" style="rounded=0;whiteSpace=wrap;html=1;fillColor=#ffcd28;strokeColor=#d79b00;gradientColor=#ffa500;" vertex="1" parent="WIyWlLk6GJQsqaUBKTNV-1">
          <mxGeometry x="2750" y="490" width="40" height="20" as="geometry" />
        </mxCell>
        <mxCell id="bH_OISczCfJRNenOQu4P-384" value="3, 2" style="rounded=0;whiteSpace=wrap;html=1;" vertex="1" parent="WIyWlLk6GJQsqaUBKTNV-1">
          <mxGeometry x="2790" y="470" width="40" height="20" as="geometry" />
        </mxCell>
        <mxCell id="bH_OISczCfJRNenOQu4P-385" value="2, 2" style="rounded=0;whiteSpace=wrap;html=1;" vertex="1" parent="WIyWlLk6GJQsqaUBKTNV-1">
          <mxGeometry x="2790" y="490" width="40" height="20" as="geometry" />
        </mxCell>
        <mxCell id="bH_OISczCfJRNenOQu4P-388" value="4, 2" style="rounded=0;whiteSpace=wrap;html=1;fillColor=#ffcd28;gradientColor=#ffa500;strokeColor=#d79b00;" vertex="1" parent="WIyWlLk6GJQsqaUBKTNV-1">
          <mxGeometry x="2870" y="480" width="40" height="20" as="geometry" />
        </mxCell>
        <mxCell id="bH_OISczCfJRNenOQu4P-392" value="BFS&lt;br&gt;(Breadth-First-Search)" style="rounded=0;whiteSpace=wrap;html=1;" vertex="1" parent="WIyWlLk6GJQsqaUBKTNV-1">
          <mxGeometry x="20" y="660" width="140" height="60" as="geometry" />
        </mxCell>
        <mxCell id="bH_OISczCfJRNenOQu4P-393" value="너비 우선 탐색" style="text;html=1;strokeColor=none;fillColor=none;align=center;verticalAlign=middle;whiteSpace=wrap;rounded=0;" vertex="1" parent="WIyWlLk6GJQsqaUBKTNV-1">
          <mxGeometry x="170" y="660" width="180" height="60" as="geometry" />
        </mxCell>
        <mxCell id="bH_OISczCfJRNenOQu4P-394" style="edgeStyle=orthogonalEdgeStyle;rounded=0;orthogonalLoop=1;jettySize=auto;html=1;" edge="1" parent="WIyWlLk6GJQsqaUBKTNV-1" source="bH_OISczCfJRNenOQu4P-398" target="bH_OISczCfJRNenOQu4P-399">
          <mxGeometry relative="1" as="geometry">
            <Array as="points">
              <mxPoint x="180" y="810" />
              <mxPoint x="40" y="810" />
            </Array>
          </mxGeometry>
        </mxCell>
        <mxCell id="bH_OISczCfJRNenOQu4P-395" style="edgeStyle=orthogonalEdgeStyle;rounded=0;orthogonalLoop=1;jettySize=auto;html=1;" edge="1" parent="WIyWlLk6GJQsqaUBKTNV-1" source="bH_OISczCfJRNenOQu4P-398" target="bH_OISczCfJRNenOQu4P-401">
          <mxGeometry relative="1" as="geometry" />
        </mxCell>
        <mxCell id="bH_OISczCfJRNenOQu4P-396" style="edgeStyle=orthogonalEdgeStyle;rounded=0;orthogonalLoop=1;jettySize=auto;html=1;" edge="1" parent="WIyWlLk6GJQsqaUBKTNV-1" source="bH_OISczCfJRNenOQu4P-398" target="bH_OISczCfJRNenOQu4P-403">
          <mxGeometry relative="1" as="geometry" />
        </mxCell>
        <mxCell id="bH_OISczCfJRNenOQu4P-397" style="edgeStyle=orthogonalEdgeStyle;rounded=0;orthogonalLoop=1;jettySize=auto;html=1;" edge="1" parent="WIyWlLk6GJQsqaUBKTNV-1" source="bH_OISczCfJRNenOQu4P-398" target="bH_OISczCfJRNenOQu4P-405">
          <mxGeometry relative="1" as="geometry">
            <Array as="points">
              <mxPoint x="180" y="810" />
              <mxPoint x="340" y="810" />
            </Array>
          </mxGeometry>
        </mxCell>
        <mxCell id="bH_OISczCfJRNenOQu4P-398" value="1" style="ellipse;whiteSpace=wrap;html=1;aspect=fixed;" vertex="1" parent="WIyWlLk6GJQsqaUBKTNV-1">
          <mxGeometry x="150" y="730" width="60" height="60" as="geometry" />
        </mxCell>
        <mxCell id="bH_OISczCfJRNenOQu4P-399" value="2" style="ellipse;whiteSpace=wrap;html=1;aspect=fixed;" vertex="1" parent="WIyWlLk6GJQsqaUBKTNV-1">
          <mxGeometry x="10" y="830" width="60" height="60" as="geometry" />
        </mxCell>
        <mxCell id="bH_OISczCfJRNenOQu4P-400" style="edgeStyle=orthogonalEdgeStyle;rounded=0;orthogonalLoop=1;jettySize=auto;html=1;" edge="1" parent="WIyWlLk6GJQsqaUBKTNV-1" source="bH_OISczCfJRNenOQu4P-401" target="bH_OISczCfJRNenOQu4P-406">
          <mxGeometry relative="1" as="geometry" />
        </mxCell>
        <mxCell id="bH_OISczCfJRNenOQu4P-401" value="3" style="ellipse;whiteSpace=wrap;html=1;aspect=fixed;" vertex="1" parent="WIyWlLk6GJQsqaUBKTNV-1">
          <mxGeometry x="110" y="840" width="60" height="60" as="geometry" />
        </mxCell>
        <mxCell id="bH_OISczCfJRNenOQu4P-402" style="edgeStyle=orthogonalEdgeStyle;rounded=0;orthogonalLoop=1;jettySize=auto;html=1;entryX=0.5;entryY=0;entryDx=0;entryDy=0;" edge="1" parent="WIyWlLk6GJQsqaUBKTNV-1" source="bH_OISczCfJRNenOQu4P-403" target="bH_OISczCfJRNenOQu4P-409">
          <mxGeometry relative="1" as="geometry" />
        </mxCell>
        <mxCell id="bH_OISczCfJRNenOQu4P-403" value="4" style="ellipse;whiteSpace=wrap;html=1;aspect=fixed;" vertex="1" parent="WIyWlLk6GJQsqaUBKTNV-1">
          <mxGeometry x="210" y="850" width="60" height="60" as="geometry" />
        </mxCell>
        <mxCell id="bH_OISczCfJRNenOQu4P-404" style="edgeStyle=orthogonalEdgeStyle;rounded=0;orthogonalLoop=1;jettySize=auto;html=1;" edge="1" parent="WIyWlLk6GJQsqaUBKTNV-1" source="bH_OISczCfJRNenOQu4P-405" target="bH_OISczCfJRNenOQu4P-414">
          <mxGeometry relative="1" as="geometry" />
        </mxCell>
        <mxCell id="bH_OISczCfJRNenOQu4P-405" value="5" style="ellipse;whiteSpace=wrap;html=1;aspect=fixed;" vertex="1" parent="WIyWlLk6GJQsqaUBKTNV-1">
          <mxGeometry x="310" y="840" width="60" height="60" as="geometry" />
        </mxCell>
        <mxCell id="bH_OISczCfJRNenOQu4P-406" value="6" style="ellipse;whiteSpace=wrap;html=1;aspect=fixed;" vertex="1" parent="WIyWlLk6GJQsqaUBKTNV-1">
          <mxGeometry x="70" y="940" width="60" height="60" as="geometry" />
        </mxCell>
        <mxCell id="bH_OISczCfJRNenOQu4P-407" style="edgeStyle=orthogonalEdgeStyle;rounded=0;orthogonalLoop=1;jettySize=auto;html=1;" edge="1" parent="WIyWlLk6GJQsqaUBKTNV-1" source="bH_OISczCfJRNenOQu4P-409" target="bH_OISczCfJRNenOQu4P-412">
          <mxGeometry relative="1" as="geometry" />
        </mxCell>
        <mxCell id="bH_OISczCfJRNenOQu4P-408" style="edgeStyle=orthogonalEdgeStyle;rounded=0;orthogonalLoop=1;jettySize=auto;html=1;" edge="1" parent="WIyWlLk6GJQsqaUBKTNV-1" source="bH_OISczCfJRNenOQu4P-409" target="bH_OISczCfJRNenOQu4P-411">
          <mxGeometry relative="1" as="geometry" />
        </mxCell>
        <mxCell id="bH_OISczCfJRNenOQu4P-409" value="7" style="ellipse;whiteSpace=wrap;html=1;aspect=fixed;" vertex="1" parent="WIyWlLk6GJQsqaUBKTNV-1">
          <mxGeometry x="210" y="950" width="60" height="60" as="geometry" />
        </mxCell>
        <mxCell id="bH_OISczCfJRNenOQu4P-410" style="edgeStyle=orthogonalEdgeStyle;rounded=0;orthogonalLoop=1;jettySize=auto;html=1;entryX=0.5;entryY=0;entryDx=0;entryDy=0;" edge="1" parent="WIyWlLk6GJQsqaUBKTNV-1" source="bH_OISczCfJRNenOQu4P-411" target="bH_OISczCfJRNenOQu4P-413">
          <mxGeometry relative="1" as="geometry" />
        </mxCell>
        <mxCell id="bH_OISczCfJRNenOQu4P-411" value="10" style="ellipse;whiteSpace=wrap;html=1;aspect=fixed;fillColor=#ffe6cc;strokeColor=#d79b00;" vertex="1" parent="WIyWlLk6GJQsqaUBKTNV-1">
          <mxGeometry x="270" y="1050" width="60" height="60" as="geometry" />
        </mxCell>
        <mxCell id="bH_OISczCfJRNenOQu4P-412" value="9" style="ellipse;whiteSpace=wrap;html=1;aspect=fixed;" vertex="1" parent="WIyWlLk6GJQsqaUBKTNV-1">
          <mxGeometry x="150" y="1050" width="60" height="60" as="geometry" />
        </mxCell>
        <mxCell id="bH_OISczCfJRNenOQu4P-413" value="" style="ellipse;whiteSpace=wrap;html=1;aspect=fixed;" vertex="1" parent="WIyWlLk6GJQsqaUBKTNV-1">
          <mxGeometry x="270" y="1130" width="60" height="60" as="geometry" />
        </mxCell>
        <mxCell id="bH_OISczCfJRNenOQu4P-414" value="8" style="ellipse;whiteSpace=wrap;html=1;aspect=fixed;" vertex="1" parent="WIyWlLk6GJQsqaUBKTNV-1">
          <mxGeometry x="354" y="940" width="60" height="60" as="geometry" />
        </mxCell>
        <mxCell id="bH_OISczCfJRNenOQu4P-420" value="" style="whiteSpace=wrap;html=1;aspect=fixed;fillColor=#647687;fontColor=#ffffff;strokeColor=#314354;" vertex="1" parent="WIyWlLk6GJQsqaUBKTNV-1">
          <mxGeometry x="520" y="790" width="40" height="40" as="geometry" />
        </mxCell>
        <mxCell id="bH_OISczCfJRNenOQu4P-421" value="" style="whiteSpace=wrap;html=1;aspect=fixed;fillColor=#ffcccc;strokeColor=#36393d;" vertex="1" parent="WIyWlLk6GJQsqaUBKTNV-1">
          <mxGeometry x="560" y="790" width="40" height="40" as="geometry" />
        </mxCell>
        <mxCell id="bH_OISczCfJRNenOQu4P-422" value="" style="whiteSpace=wrap;html=1;aspect=fixed;fillColor=#647687;fontColor=#ffffff;strokeColor=#314354;" vertex="1" parent="WIyWlLk6GJQsqaUBKTNV-1">
          <mxGeometry x="600" y="790" width="40" height="40" as="geometry" />
        </mxCell>
        <mxCell id="bH_OISczCfJRNenOQu4P-423" value="" style="whiteSpace=wrap;html=1;aspect=fixed;fillColor=#647687;fontColor=#ffffff;strokeColor=#314354;" vertex="1" parent="WIyWlLk6GJQsqaUBKTNV-1">
          <mxGeometry x="640" y="790" width="40" height="40" as="geometry" />
        </mxCell>
        <mxCell id="bH_OISczCfJRNenOQu4P-424" value="" style="whiteSpace=wrap;html=1;aspect=fixed;fillColor=#647687;fontColor=#ffffff;strokeColor=#314354;" vertex="1" parent="WIyWlLk6GJQsqaUBKTNV-1">
          <mxGeometry x="680" y="790" width="40" height="40" as="geometry" />
        </mxCell>
        <mxCell id="bH_OISczCfJRNenOQu4P-425" value="" style="whiteSpace=wrap;html=1;aspect=fixed;fillColor=#647687;fontColor=#ffffff;strokeColor=#314354;" vertex="1" parent="WIyWlLk6GJQsqaUBKTNV-1">
          <mxGeometry x="520" y="830" width="40" height="40" as="geometry" />
        </mxCell>
        <mxCell id="bH_OISczCfJRNenOQu4P-426" value="" style="whiteSpace=wrap;html=1;aspect=fixed;fillColor=#e3c800;fontColor=#000000;strokeColor=#B09500;" vertex="1" parent="WIyWlLk6GJQsqaUBKTNV-1">
          <mxGeometry x="560" y="830" width="40" height="40" as="geometry" />
        </mxCell>
        <mxCell id="bH_OISczCfJRNenOQu4P-427" value="" style="whiteSpace=wrap;html=1;aspect=fixed;fillColor=#e3c800;fontColor=#000000;strokeColor=#B09500;" vertex="1" parent="WIyWlLk6GJQsqaUBKTNV-1">
          <mxGeometry x="600" y="830" width="40" height="40" as="geometry" />
        </mxCell>
        <mxCell id="bH_OISczCfJRNenOQu4P-428" value="" style="whiteSpace=wrap;html=1;aspect=fixed;fillColor=#e3c800;fontColor=#000000;strokeColor=#B09500;" vertex="1" parent="WIyWlLk6GJQsqaUBKTNV-1">
          <mxGeometry x="640" y="830" width="40" height="40" as="geometry" />
        </mxCell>
        <mxCell id="bH_OISczCfJRNenOQu4P-429" value="" style="whiteSpace=wrap;html=1;aspect=fixed;fillColor=#e3c800;fontColor=#000000;strokeColor=#B09500;" vertex="1" parent="WIyWlLk6GJQsqaUBKTNV-1">
          <mxGeometry x="680" y="830" width="40" height="40" as="geometry" />
        </mxCell>
        <mxCell id="bH_OISczCfJRNenOQu4P-430" value="" style="whiteSpace=wrap;html=1;aspect=fixed;fillColor=#647687;fontColor=#ffffff;strokeColor=#314354;" vertex="1" parent="WIyWlLk6GJQsqaUBKTNV-1">
          <mxGeometry x="520" y="870" width="40" height="40" as="geometry" />
        </mxCell>
        <mxCell id="bH_OISczCfJRNenOQu4P-431" value="" style="whiteSpace=wrap;html=1;aspect=fixed;fillColor=#e3c800;fontColor=#000000;strokeColor=#B09500;" vertex="1" parent="WIyWlLk6GJQsqaUBKTNV-1">
          <mxGeometry x="560" y="870" width="40" height="40" as="geometry" />
        </mxCell>
        <mxCell id="bH_OISczCfJRNenOQu4P-432" value="" style="whiteSpace=wrap;html=1;aspect=fixed;fillColor=#647687;fontColor=#ffffff;strokeColor=#314354;" vertex="1" parent="WIyWlLk6GJQsqaUBKTNV-1">
          <mxGeometry x="600" y="870" width="40" height="40" as="geometry" />
        </mxCell>
        <mxCell id="bH_OISczCfJRNenOQu4P-433" value="" style="whiteSpace=wrap;html=1;aspect=fixed;fillColor=#e3c800;fontColor=#000000;strokeColor=#B09500;" vertex="1" parent="WIyWlLk6GJQsqaUBKTNV-1">
          <mxGeometry x="640" y="870" width="40" height="40" as="geometry" />
        </mxCell>
        <mxCell id="bH_OISczCfJRNenOQu4P-434" value="" style="whiteSpace=wrap;html=1;aspect=fixed;fillColor=#647687;fontColor=#ffffff;strokeColor=#314354;" vertex="1" parent="WIyWlLk6GJQsqaUBKTNV-1">
          <mxGeometry x="680" y="870" width="40" height="40" as="geometry" />
        </mxCell>
        <mxCell id="bH_OISczCfJRNenOQu4P-435" value="" style="whiteSpace=wrap;html=1;aspect=fixed;fillColor=#647687;fontColor=#ffffff;strokeColor=#314354;" vertex="1" parent="WIyWlLk6GJQsqaUBKTNV-1">
          <mxGeometry x="520" y="910" width="40" height="40" as="geometry" />
        </mxCell>
        <mxCell id="bH_OISczCfJRNenOQu4P-436" value="" style="whiteSpace=wrap;html=1;aspect=fixed;fillColor=#e3c800;fontColor=#000000;strokeColor=#B09500;" vertex="1" parent="WIyWlLk6GJQsqaUBKTNV-1">
          <mxGeometry x="560" y="910" width="40" height="40" as="geometry" />
        </mxCell>
        <mxCell id="bH_OISczCfJRNenOQu4P-437" value="" style="whiteSpace=wrap;html=1;aspect=fixed;fillColor=#e3c800;fontColor=#000000;strokeColor=#B09500;" vertex="1" parent="WIyWlLk6GJQsqaUBKTNV-1">
          <mxGeometry x="600" y="910" width="40" height="40" as="geometry" />
        </mxCell>
        <mxCell id="bH_OISczCfJRNenOQu4P-438" value="" style="whiteSpace=wrap;html=1;aspect=fixed;fillColor=#e3c800;fontColor=#000000;strokeColor=#B09500;" vertex="1" parent="WIyWlLk6GJQsqaUBKTNV-1">
          <mxGeometry x="640" y="910" width="40" height="40" as="geometry" />
        </mxCell>
        <mxCell id="bH_OISczCfJRNenOQu4P-439" value="" style="whiteSpace=wrap;html=1;aspect=fixed;fillColor=#647687;fontColor=#ffffff;strokeColor=#314354;" vertex="1" parent="WIyWlLk6GJQsqaUBKTNV-1">
          <mxGeometry x="680" y="910" width="40" height="40" as="geometry" />
        </mxCell>
        <mxCell id="bH_OISczCfJRNenOQu4P-440" value="" style="ellipse;whiteSpace=wrap;html=1;aspect=fixed;fillColor=#e6d0de;gradientColor=#d5739d;strokeColor=#996185;" vertex="1" parent="WIyWlLk6GJQsqaUBKTNV-1">
          <mxGeometry x="570" y="800" width="20" height="20" as="geometry" />
        </mxCell>
        <mxCell id="bH_OISczCfJRNenOQu4P-441" value="" style="ellipse;whiteSpace=wrap;html=1;aspect=fixed;fillColor=#dae8fc;gradientColor=#7ea6e0;strokeColor=#6c8ebf;" vertex="1" parent="WIyWlLk6GJQsqaUBKTNV-1">
          <mxGeometry x="690" y="840" width="20" height="20" as="geometry" />
        </mxCell>
        <mxCell id="bH_OISczCfJRNenOQu4P-442" value="0,0" style="text;html=1;strokeColor=none;fillColor=none;align=center;verticalAlign=middle;whiteSpace=wrap;rounded=0;" vertex="1" parent="WIyWlLk6GJQsqaUBKTNV-1">
          <mxGeometry x="520" y="910" width="40" height="40" as="geometry" />
        </mxCell>
        <mxCell id="bH_OISczCfJRNenOQu4P-443" value="4,3" style="text;html=1;strokeColor=none;fillColor=none;align=center;verticalAlign=middle;whiteSpace=wrap;rounded=0;" vertex="1" parent="WIyWlLk6GJQsqaUBKTNV-1">
          <mxGeometry x="680" y="790" width="40" height="40" as="geometry" />
        </mxCell>
        <mxCell id="bH_OISczCfJRNenOQu4P-444" value="Queue!" style="text;html=1;strokeColor=#10739e;fillColor=#b1ddf0;align=center;verticalAlign=middle;whiteSpace=wrap;rounded=0;rotation=-25;" vertex="1" parent="WIyWlLk6GJQsqaUBKTNV-1">
          <mxGeometry x="560" y="840" width="40" height="20" as="geometry" />
        </mxCell>
        <mxCell id="bH_OISczCfJRNenOQu4P-445" value="1, 3" style="rounded=0;whiteSpace=wrap;html=1;fillColor=#ffcd28;gradientColor=#ffa500;strokeColor=#d79b00;" vertex="1" parent="WIyWlLk6GJQsqaUBKTNV-1">
          <mxGeometry x="600" y="760" width="40" height="20" as="geometry" />
        </mxCell>
        <mxCell id="bH_OISczCfJRNenOQu4P-446" value="Queue" style="text;html=1;strokeColor=#10739e;fillColor=#b1ddf0;align=center;verticalAlign=middle;whiteSpace=wrap;rounded=0;rotation=0;" vertex="1" parent="WIyWlLk6GJQsqaUBKTNV-1">
          <mxGeometry x="435" y="990" width="40" height="20" as="geometry" />
        </mxCell>
        <mxCell id="bH_OISczCfJRNenOQu4P-447" value="1, 3" style="rounded=0;whiteSpace=wrap;html=1;" vertex="1" parent="WIyWlLk6GJQsqaUBKTNV-1">
          <mxGeometry x="475" y="990" width="40" height="20" as="geometry" />
        </mxCell>
        <mxCell id="bH_OISczCfJRNenOQu4P-448" value="Queue" style="text;html=1;strokeColor=#10739e;fillColor=#b1ddf0;align=center;verticalAlign=middle;whiteSpace=wrap;rounded=0;rotation=0;" vertex="1" parent="WIyWlLk6GJQsqaUBKTNV-1">
          <mxGeometry x="560" y="990" width="40" height="20" as="geometry" />
        </mxCell>
        <mxCell id="bH_OISczCfJRNenOQu4P-449" value="1, 2" style="rounded=0;whiteSpace=wrap;html=1;" vertex="1" parent="WIyWlLk6GJQsqaUBKTNV-1">
          <mxGeometry x="600" y="990" width="40" height="20" as="geometry" />
        </mxCell>
        <mxCell id="bH_OISczCfJRNenOQu4P-450" value="1, 2" style="rounded=0;whiteSpace=wrap;html=1;fillColor=#ffcd28;gradientColor=#ffa500;strokeColor=#d79b00;" vertex="1" parent="WIyWlLk6GJQsqaUBKTNV-1">
          <mxGeometry x="840" y="760" width="40" height="20" as="geometry" />
        </mxCell>
        <mxCell id="bH_OISczCfJRNenOQu4P-451" value="" style="whiteSpace=wrap;html=1;aspect=fixed;fillColor=#647687;fontColor=#ffffff;strokeColor=#314354;" vertex="1" parent="WIyWlLk6GJQsqaUBKTNV-1">
          <mxGeometry x="760" y="790" width="40" height="40" as="geometry" />
        </mxCell>
        <mxCell id="bH_OISczCfJRNenOQu4P-452" value="" style="whiteSpace=wrap;html=1;aspect=fixed;fillColor=#ffcccc;strokeColor=#36393d;" vertex="1" parent="WIyWlLk6GJQsqaUBKTNV-1">
          <mxGeometry x="800" y="790" width="40" height="40" as="geometry" />
        </mxCell>
        <mxCell id="bH_OISczCfJRNenOQu4P-453" value="" style="whiteSpace=wrap;html=1;aspect=fixed;fillColor=#647687;fontColor=#ffffff;strokeColor=#314354;" vertex="1" parent="WIyWlLk6GJQsqaUBKTNV-1">
          <mxGeometry x="840" y="790" width="40" height="40" as="geometry" />
        </mxCell>
        <mxCell id="bH_OISczCfJRNenOQu4P-454" value="" style="whiteSpace=wrap;html=1;aspect=fixed;fillColor=#647687;fontColor=#ffffff;strokeColor=#314354;" vertex="1" parent="WIyWlLk6GJQsqaUBKTNV-1">
          <mxGeometry x="880" y="790" width="40" height="40" as="geometry" />
        </mxCell>
        <mxCell id="bH_OISczCfJRNenOQu4P-455" value="" style="whiteSpace=wrap;html=1;aspect=fixed;fillColor=#647687;fontColor=#ffffff;strokeColor=#314354;" vertex="1" parent="WIyWlLk6GJQsqaUBKTNV-1">
          <mxGeometry x="920" y="790" width="40" height="40" as="geometry" />
        </mxCell>
        <mxCell id="bH_OISczCfJRNenOQu4P-456" value="" style="whiteSpace=wrap;html=1;aspect=fixed;fillColor=#647687;fontColor=#ffffff;strokeColor=#314354;" vertex="1" parent="WIyWlLk6GJQsqaUBKTNV-1">
          <mxGeometry x="760" y="830" width="40" height="40" as="geometry" />
        </mxCell>
        <mxCell id="bH_OISczCfJRNenOQu4P-457" value="" style="whiteSpace=wrap;html=1;aspect=fixed;fillColor=#ffcccc;strokeColor=#36393d;" vertex="1" parent="WIyWlLk6GJQsqaUBKTNV-1">
          <mxGeometry x="800" y="830" width="40" height="40" as="geometry" />
        </mxCell>
        <mxCell id="bH_OISczCfJRNenOQu4P-458" value="" style="whiteSpace=wrap;html=1;aspect=fixed;fillColor=#e3c800;fontColor=#000000;strokeColor=#B09500;" vertex="1" parent="WIyWlLk6GJQsqaUBKTNV-1">
          <mxGeometry x="840" y="830" width="40" height="40" as="geometry" />
        </mxCell>
        <mxCell id="bH_OISczCfJRNenOQu4P-459" value="" style="whiteSpace=wrap;html=1;aspect=fixed;fillColor=#e3c800;fontColor=#000000;strokeColor=#B09500;" vertex="1" parent="WIyWlLk6GJQsqaUBKTNV-1">
          <mxGeometry x="880" y="830" width="40" height="40" as="geometry" />
        </mxCell>
        <mxCell id="bH_OISczCfJRNenOQu4P-460" value="" style="whiteSpace=wrap;html=1;aspect=fixed;fillColor=#e3c800;fontColor=#000000;strokeColor=#B09500;" vertex="1" parent="WIyWlLk6GJQsqaUBKTNV-1">
          <mxGeometry x="920" y="830" width="40" height="40" as="geometry" />
        </mxCell>
        <mxCell id="bH_OISczCfJRNenOQu4P-461" value="" style="whiteSpace=wrap;html=1;aspect=fixed;fillColor=#647687;fontColor=#ffffff;strokeColor=#314354;" vertex="1" parent="WIyWlLk6GJQsqaUBKTNV-1">
          <mxGeometry x="760" y="870" width="40" height="40" as="geometry" />
        </mxCell>
        <mxCell id="bH_OISczCfJRNenOQu4P-462" value="" style="whiteSpace=wrap;html=1;aspect=fixed;fillColor=#e3c800;fontColor=#000000;strokeColor=#B09500;" vertex="1" parent="WIyWlLk6GJQsqaUBKTNV-1">
          <mxGeometry x="800" y="870" width="40" height="40" as="geometry" />
        </mxCell>
        <mxCell id="bH_OISczCfJRNenOQu4P-463" value="" style="whiteSpace=wrap;html=1;aspect=fixed;fillColor=#647687;fontColor=#ffffff;strokeColor=#314354;" vertex="1" parent="WIyWlLk6GJQsqaUBKTNV-1">
          <mxGeometry x="840" y="870" width="40" height="40" as="geometry" />
        </mxCell>
        <mxCell id="bH_OISczCfJRNenOQu4P-464" value="" style="whiteSpace=wrap;html=1;aspect=fixed;fillColor=#e3c800;fontColor=#000000;strokeColor=#B09500;" vertex="1" parent="WIyWlLk6GJQsqaUBKTNV-1">
          <mxGeometry x="880" y="870" width="40" height="40" as="geometry" />
        </mxCell>
        <mxCell id="bH_OISczCfJRNenOQu4P-465" value="" style="whiteSpace=wrap;html=1;aspect=fixed;fillColor=#647687;fontColor=#ffffff;strokeColor=#314354;" vertex="1" parent="WIyWlLk6GJQsqaUBKTNV-1">
          <mxGeometry x="920" y="870" width="40" height="40" as="geometry" />
        </mxCell>
        <mxCell id="bH_OISczCfJRNenOQu4P-466" value="" style="whiteSpace=wrap;html=1;aspect=fixed;fillColor=#647687;fontColor=#ffffff;strokeColor=#314354;" vertex="1" parent="WIyWlLk6GJQsqaUBKTNV-1">
          <mxGeometry x="760" y="910" width="40" height="40" as="geometry" />
        </mxCell>
        <mxCell id="bH_OISczCfJRNenOQu4P-467" value="" style="whiteSpace=wrap;html=1;aspect=fixed;fillColor=#e3c800;fontColor=#000000;strokeColor=#B09500;" vertex="1" parent="WIyWlLk6GJQsqaUBKTNV-1">
          <mxGeometry x="800" y="910" width="40" height="40" as="geometry" />
        </mxCell>
        <mxCell id="bH_OISczCfJRNenOQu4P-468" value="" style="whiteSpace=wrap;html=1;aspect=fixed;fillColor=#e3c800;fontColor=#000000;strokeColor=#B09500;" vertex="1" parent="WIyWlLk6GJQsqaUBKTNV-1">
          <mxGeometry x="840" y="910" width="40" height="40" as="geometry" />
        </mxCell>
        <mxCell id="bH_OISczCfJRNenOQu4P-469" value="" style="whiteSpace=wrap;html=1;aspect=fixed;fillColor=#e3c800;fontColor=#000000;strokeColor=#B09500;" vertex="1" parent="WIyWlLk6GJQsqaUBKTNV-1">
          <mxGeometry x="880" y="910" width="40" height="40" as="geometry" />
        </mxCell>
        <mxCell id="bH_OISczCfJRNenOQu4P-470" value="" style="whiteSpace=wrap;html=1;aspect=fixed;fillColor=#647687;fontColor=#ffffff;strokeColor=#314354;" vertex="1" parent="WIyWlLk6GJQsqaUBKTNV-1">
          <mxGeometry x="920" y="910" width="40" height="40" as="geometry" />
        </mxCell>
        <mxCell id="bH_OISczCfJRNenOQu4P-471" value="" style="ellipse;whiteSpace=wrap;html=1;aspect=fixed;fillColor=#e6d0de;gradientColor=#d5739d;strokeColor=#996185;" vertex="1" parent="WIyWlLk6GJQsqaUBKTNV-1">
          <mxGeometry x="810" y="800" width="20" height="20" as="geometry" />
        </mxCell>
        <mxCell id="bH_OISczCfJRNenOQu4P-472" value="" style="ellipse;whiteSpace=wrap;html=1;aspect=fixed;fillColor=#dae8fc;gradientColor=#7ea6e0;strokeColor=#6c8ebf;" vertex="1" parent="WIyWlLk6GJQsqaUBKTNV-1">
          <mxGeometry x="930" y="840" width="20" height="20" as="geometry" />
        </mxCell>
        <mxCell id="bH_OISczCfJRNenOQu4P-473" value="0,0" style="text;html=1;strokeColor=none;fillColor=none;align=center;verticalAlign=middle;whiteSpace=wrap;rounded=0;" vertex="1" parent="WIyWlLk6GJQsqaUBKTNV-1">
          <mxGeometry x="760" y="910" width="40" height="40" as="geometry" />
        </mxCell>
        <mxCell id="bH_OISczCfJRNenOQu4P-474" value="4,3" style="text;html=1;strokeColor=none;fillColor=none;align=center;verticalAlign=middle;whiteSpace=wrap;rounded=0;" vertex="1" parent="WIyWlLk6GJQsqaUBKTNV-1">
          <mxGeometry x="920" y="790" width="40" height="40" as="geometry" />
        </mxCell>
        <mxCell id="bH_OISczCfJRNenOQu4P-476" value="Queue" style="text;html=1;strokeColor=#10739e;fillColor=#b1ddf0;align=center;verticalAlign=middle;whiteSpace=wrap;rounded=0;rotation=0;" vertex="1" parent="WIyWlLk6GJQsqaUBKTNV-1">
          <mxGeometry x="790" y="990" width="40" height="20" as="geometry" />
        </mxCell>
        <mxCell id="bH_OISczCfJRNenOQu4P-477" value="탐색 우선순위&lt;br&gt;하, 좌, 상, 우" style="text;html=1;strokeColor=none;fillColor=none;align=center;verticalAlign=middle;whiteSpace=wrap;rounded=0;" vertex="1" parent="WIyWlLk6GJQsqaUBKTNV-1">
          <mxGeometry x="515" y="700" width="150" height="40" as="geometry" />
        </mxCell>
        <mxCell id="bH_OISczCfJRNenOQu4P-478" value="1, 1" style="rounded=0;whiteSpace=wrap;html=1;" vertex="1" parent="WIyWlLk6GJQsqaUBKTNV-1">
          <mxGeometry x="830" y="990" width="40" height="20" as="geometry" />
        </mxCell>
        <mxCell id="bH_OISczCfJRNenOQu4P-479" value="Queue!" style="text;html=1;strokeColor=#10739e;fillColor=#b1ddf0;align=center;verticalAlign=middle;whiteSpace=wrap;rounded=0;rotation=-25;" vertex="1" parent="WIyWlLk6GJQsqaUBKTNV-1">
          <mxGeometry x="800" y="880" width="40" height="20" as="geometry" />
        </mxCell>
        <mxCell id="bH_OISczCfJRNenOQu4P-480" value="Queue!" style="text;html=1;strokeColor=#10739e;fillColor=#b1ddf0;align=center;verticalAlign=middle;whiteSpace=wrap;rounded=0;rotation=-25;" vertex="1" parent="WIyWlLk6GJQsqaUBKTNV-1">
          <mxGeometry x="840" y="840" width="40" height="20" as="geometry" />
        </mxCell>
        <mxCell id="bH_OISczCfJRNenOQu4P-481" value="2, 2" style="rounded=0;whiteSpace=wrap;html=1;" vertex="1" parent="WIyWlLk6GJQsqaUBKTNV-1">
          <mxGeometry x="870" y="990" width="40" height="20" as="geometry" />
        </mxCell>
        <mxCell id="bH_OISczCfJRNenOQu4P-482" value="1, 1" style="rounded=0;whiteSpace=wrap;html=1;fillColor=#ffcd28;gradientColor=#ffa500;strokeColor=#d79b00;" vertex="1" parent="WIyWlLk6GJQsqaUBKTNV-1">
          <mxGeometry x="1081" y="760" width="40" height="20" as="geometry" />
        </mxCell>
        <mxCell id="bH_OISczCfJRNenOQu4P-483" value="" style="whiteSpace=wrap;html=1;aspect=fixed;fillColor=#647687;fontColor=#ffffff;strokeColor=#314354;" vertex="1" parent="WIyWlLk6GJQsqaUBKTNV-1">
          <mxGeometry x="1001" y="790" width="40" height="40" as="geometry" />
        </mxCell>
        <mxCell id="bH_OISczCfJRNenOQu4P-484" value="" style="whiteSpace=wrap;html=1;aspect=fixed;fillColor=#ffcccc;strokeColor=#36393d;" vertex="1" parent="WIyWlLk6GJQsqaUBKTNV-1">
          <mxGeometry x="1041" y="790" width="40" height="40" as="geometry" />
        </mxCell>
        <mxCell id="bH_OISczCfJRNenOQu4P-485" value="" style="whiteSpace=wrap;html=1;aspect=fixed;fillColor=#647687;fontColor=#ffffff;strokeColor=#314354;" vertex="1" parent="WIyWlLk6GJQsqaUBKTNV-1">
          <mxGeometry x="1081" y="790" width="40" height="40" as="geometry" />
        </mxCell>
        <mxCell id="bH_OISczCfJRNenOQu4P-486" value="" style="whiteSpace=wrap;html=1;aspect=fixed;fillColor=#647687;fontColor=#ffffff;strokeColor=#314354;" vertex="1" parent="WIyWlLk6GJQsqaUBKTNV-1">
          <mxGeometry x="1121" y="790" width="40" height="40" as="geometry" />
        </mxCell>
        <mxCell id="bH_OISczCfJRNenOQu4P-487" value="" style="whiteSpace=wrap;html=1;aspect=fixed;fillColor=#647687;fontColor=#ffffff;strokeColor=#314354;" vertex="1" parent="WIyWlLk6GJQsqaUBKTNV-1">
          <mxGeometry x="1161" y="790" width="40" height="40" as="geometry" />
        </mxCell>
        <mxCell id="bH_OISczCfJRNenOQu4P-488" value="" style="whiteSpace=wrap;html=1;aspect=fixed;fillColor=#647687;fontColor=#ffffff;strokeColor=#314354;" vertex="1" parent="WIyWlLk6GJQsqaUBKTNV-1">
          <mxGeometry x="1001" y="830" width="40" height="40" as="geometry" />
        </mxCell>
        <mxCell id="bH_OISczCfJRNenOQu4P-489" value="" style="whiteSpace=wrap;html=1;aspect=fixed;fillColor=#ffcccc;strokeColor=#36393d;" vertex="1" parent="WIyWlLk6GJQsqaUBKTNV-1">
          <mxGeometry x="1041" y="830" width="40" height="40" as="geometry" />
        </mxCell>
        <mxCell id="bH_OISczCfJRNenOQu4P-490" value="" style="whiteSpace=wrap;html=1;aspect=fixed;fillColor=#e3c800;fontColor=#000000;strokeColor=#B09500;" vertex="1" parent="WIyWlLk6GJQsqaUBKTNV-1">
          <mxGeometry x="1081" y="830" width="40" height="40" as="geometry" />
        </mxCell>
        <mxCell id="bH_OISczCfJRNenOQu4P-491" value="" style="whiteSpace=wrap;html=1;aspect=fixed;fillColor=#e3c800;fontColor=#000000;strokeColor=#B09500;" vertex="1" parent="WIyWlLk6GJQsqaUBKTNV-1">
          <mxGeometry x="1121" y="830" width="40" height="40" as="geometry" />
        </mxCell>
        <mxCell id="bH_OISczCfJRNenOQu4P-492" value="" style="whiteSpace=wrap;html=1;aspect=fixed;fillColor=#e3c800;fontColor=#000000;strokeColor=#B09500;" vertex="1" parent="WIyWlLk6GJQsqaUBKTNV-1">
          <mxGeometry x="1161" y="830" width="40" height="40" as="geometry" />
        </mxCell>
        <mxCell id="bH_OISczCfJRNenOQu4P-493" value="" style="whiteSpace=wrap;html=1;aspect=fixed;fillColor=#647687;fontColor=#ffffff;strokeColor=#314354;" vertex="1" parent="WIyWlLk6GJQsqaUBKTNV-1">
          <mxGeometry x="1001" y="870" width="40" height="40" as="geometry" />
        </mxCell>
        <mxCell id="bH_OISczCfJRNenOQu4P-494" value="" style="whiteSpace=wrap;html=1;aspect=fixed;fillColor=#ffcccc;strokeColor=#36393d;" vertex="1" parent="WIyWlLk6GJQsqaUBKTNV-1">
          <mxGeometry x="1041" y="870" width="40" height="40" as="geometry" />
        </mxCell>
        <mxCell id="bH_OISczCfJRNenOQu4P-495" value="" style="whiteSpace=wrap;html=1;aspect=fixed;fillColor=#647687;fontColor=#ffffff;strokeColor=#314354;" vertex="1" parent="WIyWlLk6GJQsqaUBKTNV-1">
          <mxGeometry x="1081" y="870" width="40" height="40" as="geometry" />
        </mxCell>
        <mxCell id="bH_OISczCfJRNenOQu4P-496" value="" style="whiteSpace=wrap;html=1;aspect=fixed;fillColor=#e3c800;fontColor=#000000;strokeColor=#B09500;" vertex="1" parent="WIyWlLk6GJQsqaUBKTNV-1">
          <mxGeometry x="1121" y="870" width="40" height="40" as="geometry" />
        </mxCell>
        <mxCell id="bH_OISczCfJRNenOQu4P-497" value="" style="whiteSpace=wrap;html=1;aspect=fixed;fillColor=#647687;fontColor=#ffffff;strokeColor=#314354;" vertex="1" parent="WIyWlLk6GJQsqaUBKTNV-1">
          <mxGeometry x="1161" y="870" width="40" height="40" as="geometry" />
        </mxCell>
        <mxCell id="bH_OISczCfJRNenOQu4P-498" value="" style="whiteSpace=wrap;html=1;aspect=fixed;fillColor=#647687;fontColor=#ffffff;strokeColor=#314354;" vertex="1" parent="WIyWlLk6GJQsqaUBKTNV-1">
          <mxGeometry x="1001" y="910" width="40" height="40" as="geometry" />
        </mxCell>
        <mxCell id="bH_OISczCfJRNenOQu4P-499" value="" style="whiteSpace=wrap;html=1;aspect=fixed;fillColor=#e3c800;fontColor=#000000;strokeColor=#B09500;" vertex="1" parent="WIyWlLk6GJQsqaUBKTNV-1">
          <mxGeometry x="1041" y="910" width="40" height="40" as="geometry" />
        </mxCell>
        <mxCell id="bH_OISczCfJRNenOQu4P-500" value="" style="whiteSpace=wrap;html=1;aspect=fixed;fillColor=#e3c800;fontColor=#000000;strokeColor=#B09500;" vertex="1" parent="WIyWlLk6GJQsqaUBKTNV-1">
          <mxGeometry x="1081" y="910" width="40" height="40" as="geometry" />
        </mxCell>
        <mxCell id="bH_OISczCfJRNenOQu4P-501" value="" style="whiteSpace=wrap;html=1;aspect=fixed;fillColor=#e3c800;fontColor=#000000;strokeColor=#B09500;" vertex="1" parent="WIyWlLk6GJQsqaUBKTNV-1">
          <mxGeometry x="1121" y="910" width="40" height="40" as="geometry" />
        </mxCell>
        <mxCell id="bH_OISczCfJRNenOQu4P-502" value="" style="whiteSpace=wrap;html=1;aspect=fixed;fillColor=#647687;fontColor=#ffffff;strokeColor=#314354;" vertex="1" parent="WIyWlLk6GJQsqaUBKTNV-1">
          <mxGeometry x="1161" y="910" width="40" height="40" as="geometry" />
        </mxCell>
        <mxCell id="bH_OISczCfJRNenOQu4P-503" value="" style="ellipse;whiteSpace=wrap;html=1;aspect=fixed;fillColor=#e6d0de;gradientColor=#d5739d;strokeColor=#996185;" vertex="1" parent="WIyWlLk6GJQsqaUBKTNV-1">
          <mxGeometry x="1051" y="800" width="20" height="20" as="geometry" />
        </mxCell>
        <mxCell id="bH_OISczCfJRNenOQu4P-504" value="" style="ellipse;whiteSpace=wrap;html=1;aspect=fixed;fillColor=#dae8fc;gradientColor=#7ea6e0;strokeColor=#6c8ebf;" vertex="1" parent="WIyWlLk6GJQsqaUBKTNV-1">
          <mxGeometry x="1171" y="840" width="20" height="20" as="geometry" />
        </mxCell>
        <mxCell id="bH_OISczCfJRNenOQu4P-505" value="0,0" style="text;html=1;strokeColor=none;fillColor=none;align=center;verticalAlign=middle;whiteSpace=wrap;rounded=0;" vertex="1" parent="WIyWlLk6GJQsqaUBKTNV-1">
          <mxGeometry x="1001" y="910" width="40" height="40" as="geometry" />
        </mxCell>
        <mxCell id="bH_OISczCfJRNenOQu4P-506" value="4,3" style="text;html=1;strokeColor=none;fillColor=none;align=center;verticalAlign=middle;whiteSpace=wrap;rounded=0;" vertex="1" parent="WIyWlLk6GJQsqaUBKTNV-1">
          <mxGeometry x="1161" y="790" width="40" height="40" as="geometry" />
        </mxCell>
        <mxCell id="bH_OISczCfJRNenOQu4P-509" value="Queue" style="text;html=1;strokeColor=#10739e;fillColor=#b1ddf0;align=center;verticalAlign=middle;whiteSpace=wrap;rounded=0;rotation=0;" vertex="1" parent="WIyWlLk6GJQsqaUBKTNV-1">
          <mxGeometry x="1051" y="990" width="40" height="20" as="geometry" />
        </mxCell>
        <mxCell id="bH_OISczCfJRNenOQu4P-510" value="2, 2" style="rounded=0;whiteSpace=wrap;html=1;" vertex="1" parent="WIyWlLk6GJQsqaUBKTNV-1">
          <mxGeometry x="1091" y="990" width="40" height="20" as="geometry" />
        </mxCell>
        <mxCell id="bH_OISczCfJRNenOQu4P-511" value="Queue!" style="text;html=1;strokeColor=#10739e;fillColor=#b1ddf0;align=center;verticalAlign=middle;whiteSpace=wrap;rounded=0;rotation=-25;" vertex="1" parent="WIyWlLk6GJQsqaUBKTNV-1">
          <mxGeometry x="1041" y="920" width="40" height="20" as="geometry" />
        </mxCell>
        <mxCell id="bH_OISczCfJRNenOQu4P-512" value="1, 0" style="rounded=0;whiteSpace=wrap;html=1;" vertex="1" parent="WIyWlLk6GJQsqaUBKTNV-1">
          <mxGeometry x="1131" y="990" width="40" height="20" as="geometry" />
        </mxCell>
        <mxCell id="bH_OISczCfJRNenOQu4P-513" value="2, 2" style="rounded=0;whiteSpace=wrap;html=1;fillColor=#ffcd28;gradientColor=#ffa500;strokeColor=#d79b00;" vertex="1" parent="WIyWlLk6GJQsqaUBKTNV-1">
          <mxGeometry x="1321" y="760" width="40" height="20" as="geometry" />
        </mxCell>
        <mxCell id="bH_OISczCfJRNenOQu4P-514" value="" style="whiteSpace=wrap;html=1;aspect=fixed;fillColor=#647687;fontColor=#ffffff;strokeColor=#314354;" vertex="1" parent="WIyWlLk6GJQsqaUBKTNV-1">
          <mxGeometry x="1241" y="790" width="40" height="40" as="geometry" />
        </mxCell>
        <mxCell id="bH_OISczCfJRNenOQu4P-515" value="" style="whiteSpace=wrap;html=1;aspect=fixed;fillColor=#ffcccc;strokeColor=#36393d;" vertex="1" parent="WIyWlLk6GJQsqaUBKTNV-1">
          <mxGeometry x="1281" y="790" width="40" height="40" as="geometry" />
        </mxCell>
        <mxCell id="bH_OISczCfJRNenOQu4P-516" value="" style="whiteSpace=wrap;html=1;aspect=fixed;fillColor=#647687;fontColor=#ffffff;strokeColor=#314354;" vertex="1" parent="WIyWlLk6GJQsqaUBKTNV-1">
          <mxGeometry x="1321" y="790" width="40" height="40" as="geometry" />
        </mxCell>
        <mxCell id="bH_OISczCfJRNenOQu4P-517" value="" style="whiteSpace=wrap;html=1;aspect=fixed;fillColor=#647687;fontColor=#ffffff;strokeColor=#314354;" vertex="1" parent="WIyWlLk6GJQsqaUBKTNV-1">
          <mxGeometry x="1361" y="790" width="40" height="40" as="geometry" />
        </mxCell>
        <mxCell id="bH_OISczCfJRNenOQu4P-518" value="" style="whiteSpace=wrap;html=1;aspect=fixed;fillColor=#647687;fontColor=#ffffff;strokeColor=#314354;" vertex="1" parent="WIyWlLk6GJQsqaUBKTNV-1">
          <mxGeometry x="1401" y="790" width="40" height="40" as="geometry" />
        </mxCell>
        <mxCell id="bH_OISczCfJRNenOQu4P-519" value="" style="whiteSpace=wrap;html=1;aspect=fixed;fillColor=#647687;fontColor=#ffffff;strokeColor=#314354;" vertex="1" parent="WIyWlLk6GJQsqaUBKTNV-1">
          <mxGeometry x="1241" y="830" width="40" height="40" as="geometry" />
        </mxCell>
        <mxCell id="bH_OISczCfJRNenOQu4P-520" value="" style="whiteSpace=wrap;html=1;aspect=fixed;fillColor=#ffcccc;strokeColor=#36393d;" vertex="1" parent="WIyWlLk6GJQsqaUBKTNV-1">
          <mxGeometry x="1281" y="830" width="40" height="40" as="geometry" />
        </mxCell>
        <mxCell id="bH_OISczCfJRNenOQu4P-521" value="" style="whiteSpace=wrap;html=1;aspect=fixed;fillColor=#ffcccc;strokeColor=#36393d;" vertex="1" parent="WIyWlLk6GJQsqaUBKTNV-1">
          <mxGeometry x="1321" y="830" width="40" height="40" as="geometry" />
        </mxCell>
        <mxCell id="bH_OISczCfJRNenOQu4P-522" value="" style="whiteSpace=wrap;html=1;aspect=fixed;fillColor=#e3c800;fontColor=#000000;strokeColor=#B09500;" vertex="1" parent="WIyWlLk6GJQsqaUBKTNV-1">
          <mxGeometry x="1361" y="830" width="40" height="40" as="geometry" />
        </mxCell>
        <mxCell id="bH_OISczCfJRNenOQu4P-523" value="" style="whiteSpace=wrap;html=1;aspect=fixed;fillColor=#e3c800;fontColor=#000000;strokeColor=#B09500;" vertex="1" parent="WIyWlLk6GJQsqaUBKTNV-1">
          <mxGeometry x="1401" y="830" width="40" height="40" as="geometry" />
        </mxCell>
        <mxCell id="bH_OISczCfJRNenOQu4P-524" value="" style="whiteSpace=wrap;html=1;aspect=fixed;fillColor=#647687;fontColor=#ffffff;strokeColor=#314354;" vertex="1" parent="WIyWlLk6GJQsqaUBKTNV-1">
          <mxGeometry x="1241" y="870" width="40" height="40" as="geometry" />
        </mxCell>
        <mxCell id="bH_OISczCfJRNenOQu4P-525" value="" style="whiteSpace=wrap;html=1;aspect=fixed;fillColor=#ffcccc;strokeColor=#36393d;" vertex="1" parent="WIyWlLk6GJQsqaUBKTNV-1">
          <mxGeometry x="1281" y="870" width="40" height="40" as="geometry" />
        </mxCell>
        <mxCell id="bH_OISczCfJRNenOQu4P-526" value="" style="whiteSpace=wrap;html=1;aspect=fixed;fillColor=#647687;fontColor=#ffffff;strokeColor=#314354;" vertex="1" parent="WIyWlLk6GJQsqaUBKTNV-1">
          <mxGeometry x="1321" y="870" width="40" height="40" as="geometry" />
        </mxCell>
        <mxCell id="bH_OISczCfJRNenOQu4P-527" value="" style="whiteSpace=wrap;html=1;aspect=fixed;fillColor=#e3c800;fontColor=#000000;strokeColor=#B09500;" vertex="1" parent="WIyWlLk6GJQsqaUBKTNV-1">
          <mxGeometry x="1361" y="870" width="40" height="40" as="geometry" />
        </mxCell>
        <mxCell id="bH_OISczCfJRNenOQu4P-528" value="" style="whiteSpace=wrap;html=1;aspect=fixed;fillColor=#647687;fontColor=#ffffff;strokeColor=#314354;" vertex="1" parent="WIyWlLk6GJQsqaUBKTNV-1">
          <mxGeometry x="1401" y="870" width="40" height="40" as="geometry" />
        </mxCell>
        <mxCell id="bH_OISczCfJRNenOQu4P-529" value="" style="whiteSpace=wrap;html=1;aspect=fixed;fillColor=#647687;fontColor=#ffffff;strokeColor=#314354;" vertex="1" parent="WIyWlLk6GJQsqaUBKTNV-1">
          <mxGeometry x="1241" y="910" width="40" height="40" as="geometry" />
        </mxCell>
        <mxCell id="bH_OISczCfJRNenOQu4P-530" value="" style="whiteSpace=wrap;html=1;aspect=fixed;fillColor=#e3c800;fontColor=#000000;strokeColor=#B09500;" vertex="1" parent="WIyWlLk6GJQsqaUBKTNV-1">
          <mxGeometry x="1281" y="910" width="40" height="40" as="geometry" />
        </mxCell>
        <mxCell id="bH_OISczCfJRNenOQu4P-531" value="" style="whiteSpace=wrap;html=1;aspect=fixed;fillColor=#e3c800;fontColor=#000000;strokeColor=#B09500;" vertex="1" parent="WIyWlLk6GJQsqaUBKTNV-1">
          <mxGeometry x="1321" y="910" width="40" height="40" as="geometry" />
        </mxCell>
        <mxCell id="bH_OISczCfJRNenOQu4P-532" value="" style="whiteSpace=wrap;html=1;aspect=fixed;fillColor=#e3c800;fontColor=#000000;strokeColor=#B09500;" vertex="1" parent="WIyWlLk6GJQsqaUBKTNV-1">
          <mxGeometry x="1361" y="910" width="40" height="40" as="geometry" />
        </mxCell>
        <mxCell id="bH_OISczCfJRNenOQu4P-533" value="" style="whiteSpace=wrap;html=1;aspect=fixed;fillColor=#647687;fontColor=#ffffff;strokeColor=#314354;" vertex="1" parent="WIyWlLk6GJQsqaUBKTNV-1">
          <mxGeometry x="1401" y="910" width="40" height="40" as="geometry" />
        </mxCell>
        <mxCell id="bH_OISczCfJRNenOQu4P-534" value="" style="ellipse;whiteSpace=wrap;html=1;aspect=fixed;fillColor=#e6d0de;gradientColor=#d5739d;strokeColor=#996185;" vertex="1" parent="WIyWlLk6GJQsqaUBKTNV-1">
          <mxGeometry x="1291" y="800" width="20" height="20" as="geometry" />
        </mxCell>
        <mxCell id="bH_OISczCfJRNenOQu4P-535" value="" style="ellipse;whiteSpace=wrap;html=1;aspect=fixed;fillColor=#dae8fc;gradientColor=#7ea6e0;strokeColor=#6c8ebf;" vertex="1" parent="WIyWlLk6GJQsqaUBKTNV-1">
          <mxGeometry x="1411" y="840" width="20" height="20" as="geometry" />
        </mxCell>
        <mxCell id="bH_OISczCfJRNenOQu4P-536" value="0,0" style="text;html=1;strokeColor=none;fillColor=none;align=center;verticalAlign=middle;whiteSpace=wrap;rounded=0;" vertex="1" parent="WIyWlLk6GJQsqaUBKTNV-1">
          <mxGeometry x="1241" y="910" width="40" height="40" as="geometry" />
        </mxCell>
        <mxCell id="bH_OISczCfJRNenOQu4P-537" value="4,3" style="text;html=1;strokeColor=none;fillColor=none;align=center;verticalAlign=middle;whiteSpace=wrap;rounded=0;" vertex="1" parent="WIyWlLk6GJQsqaUBKTNV-1">
          <mxGeometry x="1401" y="790" width="40" height="40" as="geometry" />
        </mxCell>
        <mxCell id="bH_OISczCfJRNenOQu4P-539" value="Queue" style="text;html=1;strokeColor=#10739e;fillColor=#b1ddf0;align=center;verticalAlign=middle;whiteSpace=wrap;rounded=0;rotation=0;" vertex="1" parent="WIyWlLk6GJQsqaUBKTNV-1">
          <mxGeometry x="1300" y="990" width="40" height="20" as="geometry" />
        </mxCell>
        <mxCell id="bH_OISczCfJRNenOQu4P-540" value="1, 0" style="rounded=0;whiteSpace=wrap;html=1;" vertex="1" parent="WIyWlLk6GJQsqaUBKTNV-1">
          <mxGeometry x="1340" y="990" width="40" height="20" as="geometry" />
        </mxCell>
        <mxCell id="bH_OISczCfJRNenOQu4P-541" value="Queue!" style="text;html=1;strokeColor=#10739e;fillColor=#b1ddf0;align=center;verticalAlign=middle;whiteSpace=wrap;rounded=0;rotation=-25;" vertex="1" parent="WIyWlLk6GJQsqaUBKTNV-1">
          <mxGeometry x="1360" y="840" width="40" height="20" as="geometry" />
        </mxCell>
        <mxCell id="bH_OISczCfJRNenOQu4P-542" value="3, 2" style="rounded=0;whiteSpace=wrap;html=1;" vertex="1" parent="WIyWlLk6GJQsqaUBKTNV-1">
          <mxGeometry x="1380" y="990" width="40" height="20" as="geometry" />
        </mxCell>
        <mxCell id="bH_OISczCfJRNenOQu4P-569" value="" style="whiteSpace=wrap;html=1;aspect=fixed;fillColor=#647687;fontColor=#ffffff;strokeColor=#314354;" vertex="1" parent="WIyWlLk6GJQsqaUBKTNV-1">
          <mxGeometry x="1470" y="790" width="40" height="40" as="geometry" />
        </mxCell>
        <mxCell id="bH_OISczCfJRNenOQu4P-570" value="" style="whiteSpace=wrap;html=1;aspect=fixed;fillColor=#ffcccc;strokeColor=#36393d;" vertex="1" parent="WIyWlLk6GJQsqaUBKTNV-1">
          <mxGeometry x="1510" y="790" width="40" height="40" as="geometry" />
        </mxCell>
        <mxCell id="bH_OISczCfJRNenOQu4P-571" value="" style="whiteSpace=wrap;html=1;aspect=fixed;fillColor=#647687;fontColor=#ffffff;strokeColor=#314354;" vertex="1" parent="WIyWlLk6GJQsqaUBKTNV-1">
          <mxGeometry x="1550" y="790" width="40" height="40" as="geometry" />
        </mxCell>
        <mxCell id="bH_OISczCfJRNenOQu4P-572" value="" style="whiteSpace=wrap;html=1;aspect=fixed;fillColor=#647687;fontColor=#ffffff;strokeColor=#314354;" vertex="1" parent="WIyWlLk6GJQsqaUBKTNV-1">
          <mxGeometry x="1590" y="790" width="40" height="40" as="geometry" />
        </mxCell>
        <mxCell id="bH_OISczCfJRNenOQu4P-573" value="" style="whiteSpace=wrap;html=1;aspect=fixed;fillColor=#647687;fontColor=#ffffff;strokeColor=#314354;" vertex="1" parent="WIyWlLk6GJQsqaUBKTNV-1">
          <mxGeometry x="1630" y="790" width="40" height="40" as="geometry" />
        </mxCell>
        <mxCell id="bH_OISczCfJRNenOQu4P-574" value="" style="whiteSpace=wrap;html=1;aspect=fixed;fillColor=#647687;fontColor=#ffffff;strokeColor=#314354;" vertex="1" parent="WIyWlLk6GJQsqaUBKTNV-1">
          <mxGeometry x="1470" y="830" width="40" height="40" as="geometry" />
        </mxCell>
        <mxCell id="bH_OISczCfJRNenOQu4P-575" value="" style="whiteSpace=wrap;html=1;aspect=fixed;fillColor=#ffcccc;strokeColor=#36393d;" vertex="1" parent="WIyWlLk6GJQsqaUBKTNV-1">
          <mxGeometry x="1510" y="830" width="40" height="40" as="geometry" />
        </mxCell>
        <mxCell id="bH_OISczCfJRNenOQu4P-576" value="" style="whiteSpace=wrap;html=1;aspect=fixed;fillColor=#ffcccc;strokeColor=#36393d;" vertex="1" parent="WIyWlLk6GJQsqaUBKTNV-1">
          <mxGeometry x="1550" y="830" width="40" height="40" as="geometry" />
        </mxCell>
        <mxCell id="bH_OISczCfJRNenOQu4P-577" value="" style="whiteSpace=wrap;html=1;aspect=fixed;fillColor=#e3c800;fontColor=#000000;strokeColor=#B09500;" vertex="1" parent="WIyWlLk6GJQsqaUBKTNV-1">
          <mxGeometry x="1590" y="830" width="40" height="40" as="geometry" />
        </mxCell>
        <mxCell id="bH_OISczCfJRNenOQu4P-578" value="" style="whiteSpace=wrap;html=1;aspect=fixed;fillColor=#e3c800;fontColor=#000000;strokeColor=#B09500;" vertex="1" parent="WIyWlLk6GJQsqaUBKTNV-1">
          <mxGeometry x="1630" y="830" width="40" height="40" as="geometry" />
        </mxCell>
        <mxCell id="bH_OISczCfJRNenOQu4P-579" value="" style="whiteSpace=wrap;html=1;aspect=fixed;fillColor=#647687;fontColor=#ffffff;strokeColor=#314354;" vertex="1" parent="WIyWlLk6GJQsqaUBKTNV-1">
          <mxGeometry x="1470" y="870" width="40" height="40" as="geometry" />
        </mxCell>
        <mxCell id="bH_OISczCfJRNenOQu4P-580" value="" style="whiteSpace=wrap;html=1;aspect=fixed;fillColor=#ffcccc;strokeColor=#36393d;" vertex="1" parent="WIyWlLk6GJQsqaUBKTNV-1">
          <mxGeometry x="1510" y="870" width="40" height="40" as="geometry" />
        </mxCell>
        <mxCell id="bH_OISczCfJRNenOQu4P-581" value="" style="whiteSpace=wrap;html=1;aspect=fixed;fillColor=#647687;fontColor=#ffffff;strokeColor=#314354;" vertex="1" parent="WIyWlLk6GJQsqaUBKTNV-1">
          <mxGeometry x="1550" y="870" width="40" height="40" as="geometry" />
        </mxCell>
        <mxCell id="bH_OISczCfJRNenOQu4P-582" value="" style="whiteSpace=wrap;html=1;aspect=fixed;fillColor=#e3c800;fontColor=#000000;strokeColor=#B09500;" vertex="1" parent="WIyWlLk6GJQsqaUBKTNV-1">
          <mxGeometry x="1590" y="870" width="40" height="40" as="geometry" />
        </mxCell>
        <mxCell id="bH_OISczCfJRNenOQu4P-583" value="" style="whiteSpace=wrap;html=1;aspect=fixed;fillColor=#647687;fontColor=#ffffff;strokeColor=#314354;" vertex="1" parent="WIyWlLk6GJQsqaUBKTNV-1">
          <mxGeometry x="1630" y="870" width="40" height="40" as="geometry" />
        </mxCell>
        <mxCell id="bH_OISczCfJRNenOQu4P-584" value="" style="whiteSpace=wrap;html=1;aspect=fixed;fillColor=#647687;fontColor=#ffffff;strokeColor=#314354;" vertex="1" parent="WIyWlLk6GJQsqaUBKTNV-1">
          <mxGeometry x="1470" y="910" width="40" height="40" as="geometry" />
        </mxCell>
        <mxCell id="bH_OISczCfJRNenOQu4P-585" value="" style="whiteSpace=wrap;html=1;aspect=fixed;fillColor=#ffcccc;strokeColor=#36393d;" vertex="1" parent="WIyWlLk6GJQsqaUBKTNV-1">
          <mxGeometry x="1510" y="910" width="40" height="40" as="geometry" />
        </mxCell>
        <mxCell id="bH_OISczCfJRNenOQu4P-586" value="" style="whiteSpace=wrap;html=1;aspect=fixed;fillColor=#e3c800;fontColor=#000000;strokeColor=#B09500;" vertex="1" parent="WIyWlLk6GJQsqaUBKTNV-1">
          <mxGeometry x="1550" y="910" width="40" height="40" as="geometry" />
        </mxCell>
        <mxCell id="bH_OISczCfJRNenOQu4P-587" value="" style="whiteSpace=wrap;html=1;aspect=fixed;fillColor=#e3c800;fontColor=#000000;strokeColor=#B09500;" vertex="1" parent="WIyWlLk6GJQsqaUBKTNV-1">
          <mxGeometry x="1590" y="910" width="40" height="40" as="geometry" />
        </mxCell>
        <mxCell id="bH_OISczCfJRNenOQu4P-588" value="" style="whiteSpace=wrap;html=1;aspect=fixed;fillColor=#647687;fontColor=#ffffff;strokeColor=#314354;" vertex="1" parent="WIyWlLk6GJQsqaUBKTNV-1">
          <mxGeometry x="1630" y="910" width="40" height="40" as="geometry" />
        </mxCell>
        <mxCell id="bH_OISczCfJRNenOQu4P-589" value="" style="ellipse;whiteSpace=wrap;html=1;aspect=fixed;fillColor=#e6d0de;gradientColor=#d5739d;strokeColor=#996185;" vertex="1" parent="WIyWlLk6GJQsqaUBKTNV-1">
          <mxGeometry x="1520" y="800" width="20" height="20" as="geometry" />
        </mxCell>
        <mxCell id="bH_OISczCfJRNenOQu4P-590" value="" style="ellipse;whiteSpace=wrap;html=1;aspect=fixed;fillColor=#dae8fc;gradientColor=#7ea6e0;strokeColor=#6c8ebf;" vertex="1" parent="WIyWlLk6GJQsqaUBKTNV-1">
          <mxGeometry x="1640" y="840" width="20" height="20" as="geometry" />
        </mxCell>
        <mxCell id="bH_OISczCfJRNenOQu4P-591" value="0,0" style="text;html=1;strokeColor=none;fillColor=none;align=center;verticalAlign=middle;whiteSpace=wrap;rounded=0;" vertex="1" parent="WIyWlLk6GJQsqaUBKTNV-1">
          <mxGeometry x="1470" y="910" width="40" height="40" as="geometry" />
        </mxCell>
        <mxCell id="bH_OISczCfJRNenOQu4P-592" value="4,3" style="text;html=1;strokeColor=none;fillColor=none;align=center;verticalAlign=middle;whiteSpace=wrap;rounded=0;" vertex="1" parent="WIyWlLk6GJQsqaUBKTNV-1">
          <mxGeometry x="1630" y="790" width="40" height="40" as="geometry" />
        </mxCell>
        <mxCell id="bH_OISczCfJRNenOQu4P-594" value="1, 0" style="rounded=0;whiteSpace=wrap;html=1;fillColor=#ffcd28;gradientColor=#ffa500;strokeColor=#d79b00;" vertex="1" parent="WIyWlLk6GJQsqaUBKTNV-1">
          <mxGeometry x="1560" y="760" width="40" height="20" as="geometry" />
        </mxCell>
        <mxCell id="bH_OISczCfJRNenOQu4P-595" value="Queue" style="text;html=1;strokeColor=#10739e;fillColor=#b1ddf0;align=center;verticalAlign=middle;whiteSpace=wrap;rounded=0;rotation=0;" vertex="1" parent="WIyWlLk6GJQsqaUBKTNV-1">
          <mxGeometry x="1530" y="990" width="40" height="20" as="geometry" />
        </mxCell>
        <mxCell id="bH_OISczCfJRNenOQu4P-596" value="3, 2" style="rounded=0;whiteSpace=wrap;html=1;" vertex="1" parent="WIyWlLk6GJQsqaUBKTNV-1">
          <mxGeometry x="1570" y="990" width="40" height="20" as="geometry" />
        </mxCell>
        <mxCell id="bH_OISczCfJRNenOQu4P-597" value="Queue!" style="text;html=1;strokeColor=#10739e;fillColor=#b1ddf0;align=center;verticalAlign=middle;whiteSpace=wrap;rounded=0;rotation=-25;" vertex="1" parent="WIyWlLk6GJQsqaUBKTNV-1">
          <mxGeometry x="1550" y="920" width="40" height="20" as="geometry" />
        </mxCell>
        <mxCell id="bH_OISczCfJRNenOQu4P-598" value="2, 0" style="rounded=0;whiteSpace=wrap;html=1;" vertex="1" parent="WIyWlLk6GJQsqaUBKTNV-1">
          <mxGeometry x="1610" y="990" width="40" height="20" as="geometry" />
        </mxCell>
        <mxCell id="bH_OISczCfJRNenOQu4P-599" value="" style="whiteSpace=wrap;html=1;aspect=fixed;fillColor=#647687;fontColor=#ffffff;strokeColor=#314354;" vertex="1" parent="WIyWlLk6GJQsqaUBKTNV-1">
          <mxGeometry x="1689" y="790" width="40" height="40" as="geometry" />
        </mxCell>
        <mxCell id="bH_OISczCfJRNenOQu4P-600" value="" style="whiteSpace=wrap;html=1;aspect=fixed;fillColor=#ffcccc;strokeColor=#36393d;" vertex="1" parent="WIyWlLk6GJQsqaUBKTNV-1">
          <mxGeometry x="1729" y="790" width="40" height="40" as="geometry" />
        </mxCell>
        <mxCell id="bH_OISczCfJRNenOQu4P-601" value="" style="whiteSpace=wrap;html=1;aspect=fixed;fillColor=#647687;fontColor=#ffffff;strokeColor=#314354;" vertex="1" parent="WIyWlLk6GJQsqaUBKTNV-1">
          <mxGeometry x="1769" y="790" width="40" height="40" as="geometry" />
        </mxCell>
        <mxCell id="bH_OISczCfJRNenOQu4P-602" value="" style="whiteSpace=wrap;html=1;aspect=fixed;fillColor=#647687;fontColor=#ffffff;strokeColor=#314354;" vertex="1" parent="WIyWlLk6GJQsqaUBKTNV-1">
          <mxGeometry x="1809" y="790" width="40" height="40" as="geometry" />
        </mxCell>
        <mxCell id="bH_OISczCfJRNenOQu4P-603" value="" style="whiteSpace=wrap;html=1;aspect=fixed;fillColor=#647687;fontColor=#ffffff;strokeColor=#314354;" vertex="1" parent="WIyWlLk6GJQsqaUBKTNV-1">
          <mxGeometry x="1849" y="790" width="40" height="40" as="geometry" />
        </mxCell>
        <mxCell id="bH_OISczCfJRNenOQu4P-604" value="" style="whiteSpace=wrap;html=1;aspect=fixed;fillColor=#647687;fontColor=#ffffff;strokeColor=#314354;" vertex="1" parent="WIyWlLk6GJQsqaUBKTNV-1">
          <mxGeometry x="1689" y="830" width="40" height="40" as="geometry" />
        </mxCell>
        <mxCell id="bH_OISczCfJRNenOQu4P-605" value="" style="whiteSpace=wrap;html=1;aspect=fixed;fillColor=#ffcccc;strokeColor=#36393d;" vertex="1" parent="WIyWlLk6GJQsqaUBKTNV-1">
          <mxGeometry x="1729" y="830" width="40" height="40" as="geometry" />
        </mxCell>
        <mxCell id="bH_OISczCfJRNenOQu4P-606" value="" style="whiteSpace=wrap;html=1;aspect=fixed;fillColor=#ffcccc;strokeColor=#36393d;" vertex="1" parent="WIyWlLk6GJQsqaUBKTNV-1">
          <mxGeometry x="1769" y="830" width="40" height="40" as="geometry" />
        </mxCell>
        <mxCell id="bH_OISczCfJRNenOQu4P-607" value="" style="whiteSpace=wrap;html=1;aspect=fixed;fillColor=#ffcccc;strokeColor=#36393d;" vertex="1" parent="WIyWlLk6GJQsqaUBKTNV-1">
          <mxGeometry x="1809" y="830" width="40" height="40" as="geometry" />
        </mxCell>
        <mxCell id="bH_OISczCfJRNenOQu4P-608" value="" style="whiteSpace=wrap;html=1;aspect=fixed;fillColor=#e3c800;fontColor=#000000;strokeColor=#B09500;" vertex="1" parent="WIyWlLk6GJQsqaUBKTNV-1">
          <mxGeometry x="1849" y="830" width="40" height="40" as="geometry" />
        </mxCell>
        <mxCell id="bH_OISczCfJRNenOQu4P-609" value="" style="whiteSpace=wrap;html=1;aspect=fixed;fillColor=#647687;fontColor=#ffffff;strokeColor=#314354;" vertex="1" parent="WIyWlLk6GJQsqaUBKTNV-1">
          <mxGeometry x="1689" y="870" width="40" height="40" as="geometry" />
        </mxCell>
        <mxCell id="bH_OISczCfJRNenOQu4P-610" value="" style="whiteSpace=wrap;html=1;aspect=fixed;fillColor=#ffcccc;strokeColor=#36393d;" vertex="1" parent="WIyWlLk6GJQsqaUBKTNV-1">
          <mxGeometry x="1729" y="870" width="40" height="40" as="geometry" />
        </mxCell>
        <mxCell id="bH_OISczCfJRNenOQu4P-611" value="" style="whiteSpace=wrap;html=1;aspect=fixed;fillColor=#647687;fontColor=#ffffff;strokeColor=#314354;" vertex="1" parent="WIyWlLk6GJQsqaUBKTNV-1">
          <mxGeometry x="1769" y="870" width="40" height="40" as="geometry" />
        </mxCell>
        <mxCell id="bH_OISczCfJRNenOQu4P-612" value="" style="whiteSpace=wrap;html=1;aspect=fixed;fillColor=#e3c800;fontColor=#000000;strokeColor=#B09500;" vertex="1" parent="WIyWlLk6GJQsqaUBKTNV-1">
          <mxGeometry x="1809" y="870" width="40" height="40" as="geometry" />
        </mxCell>
        <mxCell id="bH_OISczCfJRNenOQu4P-613" value="" style="whiteSpace=wrap;html=1;aspect=fixed;fillColor=#647687;fontColor=#ffffff;strokeColor=#314354;" vertex="1" parent="WIyWlLk6GJQsqaUBKTNV-1">
          <mxGeometry x="1849" y="870" width="40" height="40" as="geometry" />
        </mxCell>
        <mxCell id="bH_OISczCfJRNenOQu4P-614" value="" style="whiteSpace=wrap;html=1;aspect=fixed;fillColor=#647687;fontColor=#ffffff;strokeColor=#314354;" vertex="1" parent="WIyWlLk6GJQsqaUBKTNV-1">
          <mxGeometry x="1689" y="910" width="40" height="40" as="geometry" />
        </mxCell>
        <mxCell id="bH_OISczCfJRNenOQu4P-615" value="" style="whiteSpace=wrap;html=1;aspect=fixed;fillColor=#ffcccc;strokeColor=#36393d;" vertex="1" parent="WIyWlLk6GJQsqaUBKTNV-1">
          <mxGeometry x="1729" y="910" width="40" height="40" as="geometry" />
        </mxCell>
        <mxCell id="bH_OISczCfJRNenOQu4P-616" value="" style="whiteSpace=wrap;html=1;aspect=fixed;fillColor=#e3c800;fontColor=#000000;strokeColor=#B09500;" vertex="1" parent="WIyWlLk6GJQsqaUBKTNV-1">
          <mxGeometry x="1769" y="910" width="40" height="40" as="geometry" />
        </mxCell>
        <mxCell id="bH_OISczCfJRNenOQu4P-617" value="" style="whiteSpace=wrap;html=1;aspect=fixed;fillColor=#e3c800;fontColor=#000000;strokeColor=#B09500;" vertex="1" parent="WIyWlLk6GJQsqaUBKTNV-1">
          <mxGeometry x="1809" y="910" width="40" height="40" as="geometry" />
        </mxCell>
        <mxCell id="bH_OISczCfJRNenOQu4P-618" value="" style="whiteSpace=wrap;html=1;aspect=fixed;fillColor=#647687;fontColor=#ffffff;strokeColor=#314354;" vertex="1" parent="WIyWlLk6GJQsqaUBKTNV-1">
          <mxGeometry x="1849" y="910" width="40" height="40" as="geometry" />
        </mxCell>
        <mxCell id="bH_OISczCfJRNenOQu4P-619" value="" style="ellipse;whiteSpace=wrap;html=1;aspect=fixed;fillColor=#e6d0de;gradientColor=#d5739d;strokeColor=#996185;" vertex="1" parent="WIyWlLk6GJQsqaUBKTNV-1">
          <mxGeometry x="1739" y="800" width="20" height="20" as="geometry" />
        </mxCell>
        <mxCell id="bH_OISczCfJRNenOQu4P-620" value="" style="ellipse;whiteSpace=wrap;html=1;aspect=fixed;fillColor=#dae8fc;gradientColor=#7ea6e0;strokeColor=#6c8ebf;" vertex="1" parent="WIyWlLk6GJQsqaUBKTNV-1">
          <mxGeometry x="1859" y="840" width="20" height="20" as="geometry" />
        </mxCell>
        <mxCell id="bH_OISczCfJRNenOQu4P-621" value="0,0" style="text;html=1;strokeColor=none;fillColor=none;align=center;verticalAlign=middle;whiteSpace=wrap;rounded=0;" vertex="1" parent="WIyWlLk6GJQsqaUBKTNV-1">
          <mxGeometry x="1689" y="910" width="40" height="40" as="geometry" />
        </mxCell>
        <mxCell id="bH_OISczCfJRNenOQu4P-622" value="4,3" style="text;html=1;strokeColor=none;fillColor=none;align=center;verticalAlign=middle;whiteSpace=wrap;rounded=0;" vertex="1" parent="WIyWlLk6GJQsqaUBKTNV-1">
          <mxGeometry x="1849" y="790" width="40" height="40" as="geometry" />
        </mxCell>
        <mxCell id="bH_OISczCfJRNenOQu4P-624" value="3, 2" style="rounded=0;whiteSpace=wrap;html=1;fillColor=#ffcd28;gradientColor=#ffa500;strokeColor=#d79b00;" vertex="1" parent="WIyWlLk6GJQsqaUBKTNV-1">
          <mxGeometry x="1780" y="760" width="40" height="20" as="geometry" />
        </mxCell>
        <mxCell id="bH_OISczCfJRNenOQu4P-625" value="Queue" style="text;html=1;strokeColor=#10739e;fillColor=#b1ddf0;align=center;verticalAlign=middle;whiteSpace=wrap;rounded=0;rotation=0;" vertex="1" parent="WIyWlLk6GJQsqaUBKTNV-1">
          <mxGeometry x="1708.5" y="990" width="40" height="20" as="geometry" />
        </mxCell>
        <mxCell id="bH_OISczCfJRNenOQu4P-627" value="2, 0" style="rounded=0;whiteSpace=wrap;html=1;" vertex="1" parent="WIyWlLk6GJQsqaUBKTNV-1">
          <mxGeometry x="1749.5" y="990" width="40" height="20" as="geometry" />
        </mxCell>
        <mxCell id="bH_OISczCfJRNenOQu4P-628" value="Queue!" style="text;html=1;strokeColor=#10739e;fillColor=#b1ddf0;align=center;verticalAlign=middle;whiteSpace=wrap;rounded=0;rotation=-25;" vertex="1" parent="WIyWlLk6GJQsqaUBKTNV-1">
          <mxGeometry x="1810" y="880" width="40" height="20" as="geometry" />
        </mxCell>
        <mxCell id="bH_OISczCfJRNenOQu4P-629" value="Queue!" style="text;html=1;strokeColor=#10739e;fillColor=#b1ddf0;align=center;verticalAlign=middle;whiteSpace=wrap;rounded=0;rotation=-25;" vertex="1" parent="WIyWlLk6GJQsqaUBKTNV-1">
          <mxGeometry x="1850" y="840" width="40" height="20" as="geometry" />
        </mxCell>
        <mxCell id="bH_OISczCfJRNenOQu4P-630" value="3, 1" style="rounded=0;whiteSpace=wrap;html=1;" vertex="1" parent="WIyWlLk6GJQsqaUBKTNV-1">
          <mxGeometry x="1789.5" y="990" width="40" height="20" as="geometry" />
        </mxCell>
        <mxCell id="bH_OISczCfJRNenOQu4P-631" value="4, 2" style="rounded=0;whiteSpace=wrap;html=1;" vertex="1" parent="WIyWlLk6GJQsqaUBKTNV-1">
          <mxGeometry x="1829.5" y="990" width="40" height="20" as="geometry" />
        </mxCell>
        <mxCell id="bH_OISczCfJRNenOQu4P-632" value="" style="whiteSpace=wrap;html=1;aspect=fixed;fillColor=#647687;fontColor=#ffffff;strokeColor=#314354;" vertex="1" parent="WIyWlLk6GJQsqaUBKTNV-1">
          <mxGeometry x="1920" y="790" width="40" height="40" as="geometry" />
        </mxCell>
        <mxCell id="bH_OISczCfJRNenOQu4P-633" value="" style="whiteSpace=wrap;html=1;aspect=fixed;fillColor=#ffcccc;strokeColor=#36393d;" vertex="1" parent="WIyWlLk6GJQsqaUBKTNV-1">
          <mxGeometry x="1960" y="790" width="40" height="40" as="geometry" />
        </mxCell>
        <mxCell id="bH_OISczCfJRNenOQu4P-634" value="" style="whiteSpace=wrap;html=1;aspect=fixed;fillColor=#647687;fontColor=#ffffff;strokeColor=#314354;" vertex="1" parent="WIyWlLk6GJQsqaUBKTNV-1">
          <mxGeometry x="2000" y="790" width="40" height="40" as="geometry" />
        </mxCell>
        <mxCell id="bH_OISczCfJRNenOQu4P-635" value="" style="whiteSpace=wrap;html=1;aspect=fixed;fillColor=#647687;fontColor=#ffffff;strokeColor=#314354;" vertex="1" parent="WIyWlLk6GJQsqaUBKTNV-1">
          <mxGeometry x="2040" y="790" width="40" height="40" as="geometry" />
        </mxCell>
        <mxCell id="bH_OISczCfJRNenOQu4P-636" value="" style="whiteSpace=wrap;html=1;aspect=fixed;fillColor=#647687;fontColor=#ffffff;strokeColor=#314354;" vertex="1" parent="WIyWlLk6GJQsqaUBKTNV-1">
          <mxGeometry x="2080" y="790" width="40" height="40" as="geometry" />
        </mxCell>
        <mxCell id="bH_OISczCfJRNenOQu4P-637" value="" style="whiteSpace=wrap;html=1;aspect=fixed;fillColor=#647687;fontColor=#ffffff;strokeColor=#314354;" vertex="1" parent="WIyWlLk6GJQsqaUBKTNV-1">
          <mxGeometry x="1920" y="830" width="40" height="40" as="geometry" />
        </mxCell>
        <mxCell id="bH_OISczCfJRNenOQu4P-638" value="" style="whiteSpace=wrap;html=1;aspect=fixed;fillColor=#ffcccc;strokeColor=#36393d;" vertex="1" parent="WIyWlLk6GJQsqaUBKTNV-1">
          <mxGeometry x="1960" y="830" width="40" height="40" as="geometry" />
        </mxCell>
        <mxCell id="bH_OISczCfJRNenOQu4P-639" value="" style="whiteSpace=wrap;html=1;aspect=fixed;fillColor=#ffcccc;strokeColor=#36393d;" vertex="1" parent="WIyWlLk6GJQsqaUBKTNV-1">
          <mxGeometry x="2000" y="830" width="40" height="40" as="geometry" />
        </mxCell>
        <mxCell id="bH_OISczCfJRNenOQu4P-640" value="" style="whiteSpace=wrap;html=1;aspect=fixed;fillColor=#ffcccc;strokeColor=#36393d;" vertex="1" parent="WIyWlLk6GJQsqaUBKTNV-1">
          <mxGeometry x="2040" y="830" width="40" height="40" as="geometry" />
        </mxCell>
        <mxCell id="bH_OISczCfJRNenOQu4P-641" value="" style="whiteSpace=wrap;html=1;aspect=fixed;fillColor=#e3c800;fontColor=#000000;strokeColor=#B09500;" vertex="1" parent="WIyWlLk6GJQsqaUBKTNV-1">
          <mxGeometry x="2080" y="830" width="40" height="40" as="geometry" />
        </mxCell>
        <mxCell id="bH_OISczCfJRNenOQu4P-642" value="" style="whiteSpace=wrap;html=1;aspect=fixed;fillColor=#647687;fontColor=#ffffff;strokeColor=#314354;" vertex="1" parent="WIyWlLk6GJQsqaUBKTNV-1">
          <mxGeometry x="1920" y="870" width="40" height="40" as="geometry" />
        </mxCell>
        <mxCell id="bH_OISczCfJRNenOQu4P-643" value="" style="whiteSpace=wrap;html=1;aspect=fixed;fillColor=#ffcccc;strokeColor=#36393d;" vertex="1" parent="WIyWlLk6GJQsqaUBKTNV-1">
          <mxGeometry x="1960" y="870" width="40" height="40" as="geometry" />
        </mxCell>
        <mxCell id="bH_OISczCfJRNenOQu4P-644" value="" style="whiteSpace=wrap;html=1;aspect=fixed;fillColor=#647687;fontColor=#ffffff;strokeColor=#314354;" vertex="1" parent="WIyWlLk6GJQsqaUBKTNV-1">
          <mxGeometry x="2000" y="870" width="40" height="40" as="geometry" />
        </mxCell>
        <mxCell id="bH_OISczCfJRNenOQu4P-645" value="" style="whiteSpace=wrap;html=1;aspect=fixed;fillColor=#e3c800;fontColor=#000000;strokeColor=#B09500;" vertex="1" parent="WIyWlLk6GJQsqaUBKTNV-1">
          <mxGeometry x="2040" y="870" width="40" height="40" as="geometry" />
        </mxCell>
        <mxCell id="bH_OISczCfJRNenOQu4P-646" value="" style="whiteSpace=wrap;html=1;aspect=fixed;fillColor=#647687;fontColor=#ffffff;strokeColor=#314354;" vertex="1" parent="WIyWlLk6GJQsqaUBKTNV-1">
          <mxGeometry x="2080" y="870" width="40" height="40" as="geometry" />
        </mxCell>
        <mxCell id="bH_OISczCfJRNenOQu4P-647" value="" style="whiteSpace=wrap;html=1;aspect=fixed;fillColor=#647687;fontColor=#ffffff;strokeColor=#314354;" vertex="1" parent="WIyWlLk6GJQsqaUBKTNV-1">
          <mxGeometry x="1920" y="910" width="40" height="40" as="geometry" />
        </mxCell>
        <mxCell id="bH_OISczCfJRNenOQu4P-648" value="" style="whiteSpace=wrap;html=1;aspect=fixed;fillColor=#ffcccc;strokeColor=#36393d;" vertex="1" parent="WIyWlLk6GJQsqaUBKTNV-1">
          <mxGeometry x="1960" y="910" width="40" height="40" as="geometry" />
        </mxCell>
        <mxCell id="bH_OISczCfJRNenOQu4P-649" value="" style="whiteSpace=wrap;html=1;aspect=fixed;fillColor=#ffcccc;strokeColor=#36393d;" vertex="1" parent="WIyWlLk6GJQsqaUBKTNV-1">
          <mxGeometry x="2000" y="910" width="40" height="40" as="geometry" />
        </mxCell>
        <mxCell id="bH_OISczCfJRNenOQu4P-650" value="" style="whiteSpace=wrap;html=1;aspect=fixed;fillColor=#e3c800;fontColor=#000000;strokeColor=#B09500;" vertex="1" parent="WIyWlLk6GJQsqaUBKTNV-1">
          <mxGeometry x="2040" y="910" width="40" height="40" as="geometry" />
        </mxCell>
        <mxCell id="bH_OISczCfJRNenOQu4P-651" value="" style="whiteSpace=wrap;html=1;aspect=fixed;fillColor=#647687;fontColor=#ffffff;strokeColor=#314354;" vertex="1" parent="WIyWlLk6GJQsqaUBKTNV-1">
          <mxGeometry x="2080" y="910" width="40" height="40" as="geometry" />
        </mxCell>
        <mxCell id="bH_OISczCfJRNenOQu4P-652" value="" style="ellipse;whiteSpace=wrap;html=1;aspect=fixed;fillColor=#e6d0de;gradientColor=#d5739d;strokeColor=#996185;" vertex="1" parent="WIyWlLk6GJQsqaUBKTNV-1">
          <mxGeometry x="1970" y="800" width="20" height="20" as="geometry" />
        </mxCell>
        <mxCell id="bH_OISczCfJRNenOQu4P-653" value="" style="ellipse;whiteSpace=wrap;html=1;aspect=fixed;fillColor=#dae8fc;gradientColor=#7ea6e0;strokeColor=#6c8ebf;" vertex="1" parent="WIyWlLk6GJQsqaUBKTNV-1">
          <mxGeometry x="2090" y="840" width="20" height="20" as="geometry" />
        </mxCell>
        <mxCell id="bH_OISczCfJRNenOQu4P-654" value="0,0" style="text;html=1;strokeColor=none;fillColor=none;align=center;verticalAlign=middle;whiteSpace=wrap;rounded=0;" vertex="1" parent="WIyWlLk6GJQsqaUBKTNV-1">
          <mxGeometry x="1920" y="910" width="40" height="40" as="geometry" />
        </mxCell>
        <mxCell id="bH_OISczCfJRNenOQu4P-655" value="4,3" style="text;html=1;strokeColor=none;fillColor=none;align=center;verticalAlign=middle;whiteSpace=wrap;rounded=0;" vertex="1" parent="WIyWlLk6GJQsqaUBKTNV-1">
          <mxGeometry x="2080" y="790" width="40" height="40" as="geometry" />
        </mxCell>
        <mxCell id="bH_OISczCfJRNenOQu4P-658" value="2, 0" style="rounded=0;whiteSpace=wrap;html=1;fillColor=#ffcd28;gradientColor=#ffa500;strokeColor=#d79b00;" vertex="1" parent="WIyWlLk6GJQsqaUBKTNV-1">
          <mxGeometry x="2000" y="760" width="40" height="20" as="geometry" />
        </mxCell>
        <mxCell id="bH_OISczCfJRNenOQu4P-659" value="Queue" style="text;html=1;strokeColor=#10739e;fillColor=#b1ddf0;align=center;verticalAlign=middle;whiteSpace=wrap;rounded=0;rotation=0;" vertex="1" parent="WIyWlLk6GJQsqaUBKTNV-1">
          <mxGeometry x="1939.5" y="990" width="40" height="20" as="geometry" />
        </mxCell>
        <mxCell id="bH_OISczCfJRNenOQu4P-661" value="3, 1" style="rounded=0;whiteSpace=wrap;html=1;" vertex="1" parent="WIyWlLk6GJQsqaUBKTNV-1">
          <mxGeometry x="1980" y="990" width="40" height="20" as="geometry" />
        </mxCell>
        <mxCell id="bH_OISczCfJRNenOQu4P-662" value="4, 2" style="rounded=0;whiteSpace=wrap;html=1;" vertex="1" parent="WIyWlLk6GJQsqaUBKTNV-1">
          <mxGeometry x="2020" y="990" width="40" height="20" as="geometry" />
        </mxCell>
        <mxCell id="bH_OISczCfJRNenOQu4P-663" value="Queue!" style="text;html=1;strokeColor=#10739e;fillColor=#b1ddf0;align=center;verticalAlign=middle;whiteSpace=wrap;rounded=0;rotation=-25;" vertex="1" parent="WIyWlLk6GJQsqaUBKTNV-1">
          <mxGeometry x="2040" y="920" width="40" height="20" as="geometry" />
        </mxCell>
        <mxCell id="bH_OISczCfJRNenOQu4P-664" value="3, 0" style="rounded=0;whiteSpace=wrap;html=1;" vertex="1" parent="WIyWlLk6GJQsqaUBKTNV-1">
          <mxGeometry x="2060" y="990" width="40" height="20" as="geometry" />
        </mxCell>
        <mxCell id="bH_OISczCfJRNenOQu4P-665" value="" style="whiteSpace=wrap;html=1;aspect=fixed;fillColor=#647687;fontColor=#ffffff;strokeColor=#314354;" vertex="1" parent="WIyWlLk6GJQsqaUBKTNV-1">
          <mxGeometry x="2150" y="790" width="40" height="40" as="geometry" />
        </mxCell>
        <mxCell id="bH_OISczCfJRNenOQu4P-666" value="" style="whiteSpace=wrap;html=1;aspect=fixed;fillColor=#ffcccc;strokeColor=#36393d;" vertex="1" parent="WIyWlLk6GJQsqaUBKTNV-1">
          <mxGeometry x="2190" y="790" width="40" height="40" as="geometry" />
        </mxCell>
        <mxCell id="bH_OISczCfJRNenOQu4P-667" value="" style="whiteSpace=wrap;html=1;aspect=fixed;fillColor=#647687;fontColor=#ffffff;strokeColor=#314354;" vertex="1" parent="WIyWlLk6GJQsqaUBKTNV-1">
          <mxGeometry x="2230" y="790" width="40" height="40" as="geometry" />
        </mxCell>
        <mxCell id="bH_OISczCfJRNenOQu4P-668" value="" style="whiteSpace=wrap;html=1;aspect=fixed;fillColor=#647687;fontColor=#ffffff;strokeColor=#314354;" vertex="1" parent="WIyWlLk6GJQsqaUBKTNV-1">
          <mxGeometry x="2270" y="790" width="40" height="40" as="geometry" />
        </mxCell>
        <mxCell id="bH_OISczCfJRNenOQu4P-669" value="" style="whiteSpace=wrap;html=1;aspect=fixed;fillColor=#647687;fontColor=#ffffff;strokeColor=#314354;" vertex="1" parent="WIyWlLk6GJQsqaUBKTNV-1">
          <mxGeometry x="2310" y="790" width="40" height="40" as="geometry" />
        </mxCell>
        <mxCell id="bH_OISczCfJRNenOQu4P-670" value="" style="whiteSpace=wrap;html=1;aspect=fixed;fillColor=#647687;fontColor=#ffffff;strokeColor=#314354;" vertex="1" parent="WIyWlLk6GJQsqaUBKTNV-1">
          <mxGeometry x="2150" y="830" width="40" height="40" as="geometry" />
        </mxCell>
        <mxCell id="bH_OISczCfJRNenOQu4P-671" value="" style="whiteSpace=wrap;html=1;aspect=fixed;fillColor=#ffcccc;strokeColor=#36393d;" vertex="1" parent="WIyWlLk6GJQsqaUBKTNV-1">
          <mxGeometry x="2190" y="830" width="40" height="40" as="geometry" />
        </mxCell>
        <mxCell id="bH_OISczCfJRNenOQu4P-672" value="" style="whiteSpace=wrap;html=1;aspect=fixed;fillColor=#ffcccc;strokeColor=#36393d;" vertex="1" parent="WIyWlLk6GJQsqaUBKTNV-1">
          <mxGeometry x="2230" y="830" width="40" height="40" as="geometry" />
        </mxCell>
        <mxCell id="bH_OISczCfJRNenOQu4P-673" value="" style="whiteSpace=wrap;html=1;aspect=fixed;fillColor=#ffcccc;strokeColor=#36393d;" vertex="1" parent="WIyWlLk6GJQsqaUBKTNV-1">
          <mxGeometry x="2270" y="830" width="40" height="40" as="geometry" />
        </mxCell>
        <mxCell id="bH_OISczCfJRNenOQu4P-674" value="" style="whiteSpace=wrap;html=1;aspect=fixed;fillColor=#e3c800;fontColor=#000000;strokeColor=#B09500;" vertex="1" parent="WIyWlLk6GJQsqaUBKTNV-1">
          <mxGeometry x="2310" y="830" width="40" height="40" as="geometry" />
        </mxCell>
        <mxCell id="bH_OISczCfJRNenOQu4P-675" value="" style="whiteSpace=wrap;html=1;aspect=fixed;fillColor=#647687;fontColor=#ffffff;strokeColor=#314354;" vertex="1" parent="WIyWlLk6GJQsqaUBKTNV-1">
          <mxGeometry x="2150" y="870" width="40" height="40" as="geometry" />
        </mxCell>
        <mxCell id="bH_OISczCfJRNenOQu4P-676" value="" style="whiteSpace=wrap;html=1;aspect=fixed;fillColor=#ffcccc;strokeColor=#36393d;" vertex="1" parent="WIyWlLk6GJQsqaUBKTNV-1">
          <mxGeometry x="2190" y="870" width="40" height="40" as="geometry" />
        </mxCell>
        <mxCell id="bH_OISczCfJRNenOQu4P-677" value="" style="whiteSpace=wrap;html=1;aspect=fixed;fillColor=#647687;fontColor=#ffffff;strokeColor=#314354;" vertex="1" parent="WIyWlLk6GJQsqaUBKTNV-1">
          <mxGeometry x="2230" y="870" width="40" height="40" as="geometry" />
        </mxCell>
        <mxCell id="bH_OISczCfJRNenOQu4P-678" value="" style="whiteSpace=wrap;html=1;aspect=fixed;fillColor=#ffcccc;strokeColor=#36393d;" vertex="1" parent="WIyWlLk6GJQsqaUBKTNV-1">
          <mxGeometry x="2270" y="870" width="40" height="40" as="geometry" />
        </mxCell>
        <mxCell id="bH_OISczCfJRNenOQu4P-679" value="" style="whiteSpace=wrap;html=1;aspect=fixed;fillColor=#647687;fontColor=#ffffff;strokeColor=#314354;" vertex="1" parent="WIyWlLk6GJQsqaUBKTNV-1">
          <mxGeometry x="2310" y="870" width="40" height="40" as="geometry" />
        </mxCell>
        <mxCell id="bH_OISczCfJRNenOQu4P-680" value="" style="whiteSpace=wrap;html=1;aspect=fixed;fillColor=#647687;fontColor=#ffffff;strokeColor=#314354;" vertex="1" parent="WIyWlLk6GJQsqaUBKTNV-1">
          <mxGeometry x="2150" y="910" width="40" height="40" as="geometry" />
        </mxCell>
        <mxCell id="bH_OISczCfJRNenOQu4P-681" value="" style="whiteSpace=wrap;html=1;aspect=fixed;fillColor=#ffcccc;strokeColor=#36393d;" vertex="1" parent="WIyWlLk6GJQsqaUBKTNV-1">
          <mxGeometry x="2190" y="910" width="40" height="40" as="geometry" />
        </mxCell>
        <mxCell id="bH_OISczCfJRNenOQu4P-682" value="" style="whiteSpace=wrap;html=1;aspect=fixed;fillColor=#ffcccc;strokeColor=#36393d;" vertex="1" parent="WIyWlLk6GJQsqaUBKTNV-1">
          <mxGeometry x="2230" y="910" width="40" height="40" as="geometry" />
        </mxCell>
        <mxCell id="bH_OISczCfJRNenOQu4P-683" value="" style="whiteSpace=wrap;html=1;aspect=fixed;fillColor=#e3c800;fontColor=#000000;strokeColor=#B09500;" vertex="1" parent="WIyWlLk6GJQsqaUBKTNV-1">
          <mxGeometry x="2270" y="910" width="40" height="40" as="geometry" />
        </mxCell>
        <mxCell id="bH_OISczCfJRNenOQu4P-684" value="" style="whiteSpace=wrap;html=1;aspect=fixed;fillColor=#647687;fontColor=#ffffff;strokeColor=#314354;" vertex="1" parent="WIyWlLk6GJQsqaUBKTNV-1">
          <mxGeometry x="2310" y="910" width="40" height="40" as="geometry" />
        </mxCell>
        <mxCell id="bH_OISczCfJRNenOQu4P-685" value="" style="ellipse;whiteSpace=wrap;html=1;aspect=fixed;fillColor=#e6d0de;gradientColor=#d5739d;strokeColor=#996185;" vertex="1" parent="WIyWlLk6GJQsqaUBKTNV-1">
          <mxGeometry x="2200" y="800" width="20" height="20" as="geometry" />
        </mxCell>
        <mxCell id="bH_OISczCfJRNenOQu4P-686" value="" style="ellipse;whiteSpace=wrap;html=1;aspect=fixed;fillColor=#dae8fc;gradientColor=#7ea6e0;strokeColor=#6c8ebf;" vertex="1" parent="WIyWlLk6GJQsqaUBKTNV-1">
          <mxGeometry x="2320" y="840" width="20" height="20" as="geometry" />
        </mxCell>
        <mxCell id="bH_OISczCfJRNenOQu4P-687" value="0,0" style="text;html=1;strokeColor=none;fillColor=none;align=center;verticalAlign=middle;whiteSpace=wrap;rounded=0;" vertex="1" parent="WIyWlLk6GJQsqaUBKTNV-1">
          <mxGeometry x="2150" y="910" width="40" height="40" as="geometry" />
        </mxCell>
        <mxCell id="bH_OISczCfJRNenOQu4P-688" value="4,3" style="text;html=1;strokeColor=none;fillColor=none;align=center;verticalAlign=middle;whiteSpace=wrap;rounded=0;" vertex="1" parent="WIyWlLk6GJQsqaUBKTNV-1">
          <mxGeometry x="2310" y="790" width="40" height="40" as="geometry" />
        </mxCell>
        <mxCell id="bH_OISczCfJRNenOQu4P-690" value="3, 1" style="rounded=0;whiteSpace=wrap;html=1;fillColor=#ffcd28;gradientColor=#ffa500;strokeColor=#d79b00;" vertex="1" parent="WIyWlLk6GJQsqaUBKTNV-1">
          <mxGeometry x="2230" y="760" width="40" height="20" as="geometry" />
        </mxCell>
        <mxCell id="bH_OISczCfJRNenOQu4P-691" value="Queue" style="text;html=1;strokeColor=#10739e;fillColor=#b1ddf0;align=center;verticalAlign=middle;whiteSpace=wrap;rounded=0;rotation=0;" vertex="1" parent="WIyWlLk6GJQsqaUBKTNV-1">
          <mxGeometry x="2169.75" y="990" width="40" height="20" as="geometry" />
        </mxCell>
        <mxCell id="bH_OISczCfJRNenOQu4P-693" value="4, 2" style="rounded=0;whiteSpace=wrap;html=1;" vertex="1" parent="WIyWlLk6GJQsqaUBKTNV-1">
          <mxGeometry x="2210" y="990" width="40" height="20" as="geometry" />
        </mxCell>
        <mxCell id="bH_OISczCfJRNenOQu4P-694" value="3, 0" style="rounded=0;whiteSpace=wrap;html=1;" vertex="1" parent="WIyWlLk6GJQsqaUBKTNV-1">
          <mxGeometry x="2250" y="990" width="40" height="20" as="geometry" />
        </mxCell>
        <mxCell id="bH_OISczCfJRNenOQu4P-695" value="Queue!" style="text;html=1;strokeColor=#10739e;fillColor=#b1ddf0;align=center;verticalAlign=middle;whiteSpace=wrap;rounded=0;rotation=-25;" vertex="1" parent="WIyWlLk6GJQsqaUBKTNV-1">
          <mxGeometry x="2270" y="920" width="40" height="20" as="geometry" />
        </mxCell>
        <mxCell id="bH_OISczCfJRNenOQu4P-696" value="3, 0" style="rounded=0;whiteSpace=wrap;html=1;" vertex="1" parent="WIyWlLk6GJQsqaUBKTNV-1">
          <mxGeometry x="2290" y="990" width="40" height="20" as="geometry" />
        </mxCell>
        <mxCell id="bH_OISczCfJRNenOQu4P-697" value="" style="whiteSpace=wrap;html=1;aspect=fixed;fillColor=#647687;fontColor=#ffffff;strokeColor=#314354;" vertex="1" parent="WIyWlLk6GJQsqaUBKTNV-1">
          <mxGeometry x="2380" y="790" width="40" height="40" as="geometry" />
        </mxCell>
        <mxCell id="bH_OISczCfJRNenOQu4P-698" value="" style="whiteSpace=wrap;html=1;aspect=fixed;fillColor=#cce5ff;strokeColor=#36393d;" vertex="1" parent="WIyWlLk6GJQsqaUBKTNV-1">
          <mxGeometry x="2420" y="790" width="40" height="40" as="geometry" />
        </mxCell>
        <mxCell id="bH_OISczCfJRNenOQu4P-699" value="" style="whiteSpace=wrap;html=1;aspect=fixed;fillColor=#647687;fontColor=#ffffff;strokeColor=#314354;" vertex="1" parent="WIyWlLk6GJQsqaUBKTNV-1">
          <mxGeometry x="2460" y="790" width="40" height="40" as="geometry" />
        </mxCell>
        <mxCell id="bH_OISczCfJRNenOQu4P-700" value="" style="whiteSpace=wrap;html=1;aspect=fixed;fillColor=#647687;fontColor=#ffffff;strokeColor=#314354;" vertex="1" parent="WIyWlLk6GJQsqaUBKTNV-1">
          <mxGeometry x="2500" y="790" width="40" height="40" as="geometry" />
        </mxCell>
        <mxCell id="bH_OISczCfJRNenOQu4P-701" value="" style="whiteSpace=wrap;html=1;aspect=fixed;fillColor=#647687;fontColor=#ffffff;strokeColor=#314354;" vertex="1" parent="WIyWlLk6GJQsqaUBKTNV-1">
          <mxGeometry x="2540" y="790" width="40" height="40" as="geometry" />
        </mxCell>
        <mxCell id="bH_OISczCfJRNenOQu4P-702" value="" style="whiteSpace=wrap;html=1;aspect=fixed;fillColor=#647687;fontColor=#ffffff;strokeColor=#314354;" vertex="1" parent="WIyWlLk6GJQsqaUBKTNV-1">
          <mxGeometry x="2380" y="830" width="40" height="40" as="geometry" />
        </mxCell>
        <mxCell id="bH_OISczCfJRNenOQu4P-703" value="" style="whiteSpace=wrap;html=1;aspect=fixed;fillColor=#cce5ff;strokeColor=#36393d;" vertex="1" parent="WIyWlLk6GJQsqaUBKTNV-1">
          <mxGeometry x="2420" y="830" width="40" height="40" as="geometry" />
        </mxCell>
        <mxCell id="bH_OISczCfJRNenOQu4P-704" value="" style="whiteSpace=wrap;html=1;aspect=fixed;fillColor=#cce5ff;strokeColor=#36393d;" vertex="1" parent="WIyWlLk6GJQsqaUBKTNV-1">
          <mxGeometry x="2460" y="830" width="40" height="40" as="geometry" />
        </mxCell>
        <mxCell id="bH_OISczCfJRNenOQu4P-705" value="" style="whiteSpace=wrap;html=1;aspect=fixed;fillColor=#cce5ff;strokeColor=#36393d;" vertex="1" parent="WIyWlLk6GJQsqaUBKTNV-1">
          <mxGeometry x="2500" y="830" width="40" height="40" as="geometry" />
        </mxCell>
        <mxCell id="bH_OISczCfJRNenOQu4P-706" value="" style="whiteSpace=wrap;html=1;aspect=fixed;fillColor=#cce5ff;strokeColor=#36393d;" vertex="1" parent="WIyWlLk6GJQsqaUBKTNV-1">
          <mxGeometry x="2540" y="830" width="40" height="40" as="geometry" />
        </mxCell>
        <mxCell id="bH_OISczCfJRNenOQu4P-707" value="" style="whiteSpace=wrap;html=1;aspect=fixed;fillColor=#647687;fontColor=#ffffff;strokeColor=#314354;" vertex="1" parent="WIyWlLk6GJQsqaUBKTNV-1">
          <mxGeometry x="2380" y="870" width="40" height="40" as="geometry" />
        </mxCell>
        <mxCell id="bH_OISczCfJRNenOQu4P-708" value="" style="whiteSpace=wrap;html=1;aspect=fixed;fillColor=#ffcccc;strokeColor=#36393d;" vertex="1" parent="WIyWlLk6GJQsqaUBKTNV-1">
          <mxGeometry x="2420" y="870" width="40" height="40" as="geometry" />
        </mxCell>
        <mxCell id="bH_OISczCfJRNenOQu4P-709" value="" style="whiteSpace=wrap;html=1;aspect=fixed;fillColor=#647687;fontColor=#ffffff;strokeColor=#314354;" vertex="1" parent="WIyWlLk6GJQsqaUBKTNV-1">
          <mxGeometry x="2460" y="870" width="40" height="40" as="geometry" />
        </mxCell>
        <mxCell id="bH_OISczCfJRNenOQu4P-710" value="" style="whiteSpace=wrap;html=1;aspect=fixed;fillColor=#ffcccc;strokeColor=#36393d;" vertex="1" parent="WIyWlLk6GJQsqaUBKTNV-1">
          <mxGeometry x="2500" y="870" width="40" height="40" as="geometry" />
        </mxCell>
        <mxCell id="bH_OISczCfJRNenOQu4P-711" value="" style="whiteSpace=wrap;html=1;aspect=fixed;fillColor=#647687;fontColor=#ffffff;strokeColor=#314354;" vertex="1" parent="WIyWlLk6GJQsqaUBKTNV-1">
          <mxGeometry x="2540" y="870" width="40" height="40" as="geometry" />
        </mxCell>
        <mxCell id="bH_OISczCfJRNenOQu4P-712" value="" style="whiteSpace=wrap;html=1;aspect=fixed;fillColor=#647687;fontColor=#ffffff;strokeColor=#314354;" vertex="1" parent="WIyWlLk6GJQsqaUBKTNV-1">
          <mxGeometry x="2380" y="910" width="40" height="40" as="geometry" />
        </mxCell>
        <mxCell id="bH_OISczCfJRNenOQu4P-713" value="" style="whiteSpace=wrap;html=1;aspect=fixed;fillColor=#ffcccc;strokeColor=#36393d;" vertex="1" parent="WIyWlLk6GJQsqaUBKTNV-1">
          <mxGeometry x="2420" y="910" width="40" height="40" as="geometry" />
        </mxCell>
        <mxCell id="bH_OISczCfJRNenOQu4P-714" value="" style="whiteSpace=wrap;html=1;aspect=fixed;fillColor=#ffcccc;strokeColor=#36393d;" vertex="1" parent="WIyWlLk6GJQsqaUBKTNV-1">
          <mxGeometry x="2460" y="910" width="40" height="40" as="geometry" />
        </mxCell>
        <mxCell id="bH_OISczCfJRNenOQu4P-715" value="" style="whiteSpace=wrap;html=1;aspect=fixed;fillColor=#e3c800;fontColor=#000000;strokeColor=#B09500;" vertex="1" parent="WIyWlLk6GJQsqaUBKTNV-1">
          <mxGeometry x="2500" y="910" width="40" height="40" as="geometry" />
        </mxCell>
        <mxCell id="bH_OISczCfJRNenOQu4P-716" value="" style="whiteSpace=wrap;html=1;aspect=fixed;fillColor=#647687;fontColor=#ffffff;strokeColor=#314354;" vertex="1" parent="WIyWlLk6GJQsqaUBKTNV-1">
          <mxGeometry x="2540" y="910" width="40" height="40" as="geometry" />
        </mxCell>
        <mxCell id="bH_OISczCfJRNenOQu4P-717" value="" style="ellipse;whiteSpace=wrap;html=1;aspect=fixed;fillColor=#e6d0de;gradientColor=#d5739d;strokeColor=#996185;" vertex="1" parent="WIyWlLk6GJQsqaUBKTNV-1">
          <mxGeometry x="2430" y="800" width="20" height="20" as="geometry" />
        </mxCell>
        <mxCell id="bH_OISczCfJRNenOQu4P-718" value="" style="ellipse;whiteSpace=wrap;html=1;aspect=fixed;fillColor=#dae8fc;gradientColor=#7ea6e0;strokeColor=#6c8ebf;" vertex="1" parent="WIyWlLk6GJQsqaUBKTNV-1">
          <mxGeometry x="2550" y="840" width="20" height="20" as="geometry" />
        </mxCell>
        <mxCell id="bH_OISczCfJRNenOQu4P-719" value="0,0" style="text;html=1;strokeColor=none;fillColor=none;align=center;verticalAlign=middle;whiteSpace=wrap;rounded=0;" vertex="1" parent="WIyWlLk6GJQsqaUBKTNV-1">
          <mxGeometry x="2380" y="910" width="40" height="40" as="geometry" />
        </mxCell>
        <mxCell id="bH_OISczCfJRNenOQu4P-720" value="4,3" style="text;html=1;strokeColor=none;fillColor=none;align=center;verticalAlign=middle;whiteSpace=wrap;rounded=0;" vertex="1" parent="WIyWlLk6GJQsqaUBKTNV-1">
          <mxGeometry x="2540" y="790" width="40" height="40" as="geometry" />
        </mxCell>
        <mxCell id="bH_OISczCfJRNenOQu4P-722" value="4, 2" style="rounded=0;whiteSpace=wrap;html=1;fillColor=#ffcd28;gradientColor=#ffa500;strokeColor=#d79b00;" vertex="1" parent="WIyWlLk6GJQsqaUBKTNV-1">
          <mxGeometry x="2460" y="760" width="40" height="20" as="geometry" />
        </mxCell>
        <mxCell id="bH_OISczCfJRNenOQu4P-723" value="Queue" style="text;html=1;strokeColor=#10739e;fillColor=#b1ddf0;align=center;verticalAlign=middle;whiteSpace=wrap;rounded=0;rotation=0;" vertex="1" parent="WIyWlLk6GJQsqaUBKTNV-1">
          <mxGeometry x="2399.88" y="990" width="40" height="20" as="geometry" />
        </mxCell>
        <mxCell id="bH_OISczCfJRNenOQu4P-725" value="3, 0" style="rounded=0;whiteSpace=wrap;html=1;" vertex="1" parent="WIyWlLk6GJQsqaUBKTNV-1">
          <mxGeometry x="2439.88" y="990" width="40" height="20" as="geometry" />
        </mxCell>
        <mxCell id="bH_OISczCfJRNenOQu4P-726" value="3, 0" style="rounded=0;whiteSpace=wrap;html=1;" vertex="1" parent="WIyWlLk6GJQsqaUBKTNV-1">
          <mxGeometry x="2479.88" y="990" width="40" height="20" as="geometry" />
        </mxCell>
      </root>
    </mxGraphModel>
  </diagram>
</mxfile>
